# This file is brought to you by Roblox Corporation
# Generated by Roblox Studio

mtllib floor.mtl

g Baseplate1

v 81.6801 2.00001 -79.0752 
v 81.6801 2.00001 80.9248 
v 81.6801 1.00001 -79.0752 
v 81.6801 1.00001 80.9248 
v -78.3199 2.00001 80.9248 
v 81.6801 2.00001 80.9248 
v -78.3199 2.00001 -79.0752 
v 81.6801 2.00001 -79.0752 
v 81.6801 2.00001 80.9248 
v -78.3199 2.00001 80.9248 
v 81.6801 1.00001 80.9248 
v -78.3199 1.00001 80.9248 
v -78.3199 2.00001 80.9248 
v -78.3199 2.00001 -79.0752 
v -78.3199 1.00001 80.9248 
v -78.3199 1.00001 -79.0752 
v -78.3199 1.00001 -79.0752 
v 81.6801 1.00001 -79.0752 
v -78.3199 1.00001 80.9248 
v 81.6801 1.00001 80.9248 
v -78.3199 2.00001 -79.0752 
v 81.6801 2.00001 -79.0752 
v -78.3199 1.00001 -79.0752 
v 81.6801 1.00001 -79.0752 

vn 1 0 0 
vn 1 0 0 
vn 1 0 0 
vn 1 0 0 
vn 0 1 0 
vn 0 1 0 
vn 0 1 0 
vn 0 1 0 
vn 0 0 1 
vn 0 0 1 
vn 0 0 1 
vn 0 0 1 
vn -1 0 0 
vn -1 0 0 
vn -1 0 0 
vn -1 0 0 
vn 0 -1 0 
vn 0 -1 0 
vn 0 -1 0 
vn 0 -1 0 
vn 0 0 -1 
vn 0 0 -1 
vn 0 0 -1 
vn 0 0 -1 

vt 23.5 -3.25 
vt 3.5 -3.25 
vt 23.5 -3.375 
vt 3.5 -3.375 
vt 23.5 -3.25 
vt 3.5 -3.25 
vt 23.5 -23.25 
vt 3.5 -23.25 
vt 23.5 -3.25 
vt 3.5 -3.25 
vt 23.5 -3.375 
vt 3.5 -3.375 
vt 23.5 -3.25 
vt 3.5 -3.25 
vt 23.5 -3.375 
vt 3.5 -3.375 
vt 23.5 -3.25 
vt 3.5 -3.25 
vt 23.5 -23.25 
vt 3.5 -23.25 
vt 23.5 -3.25 
vt 3.5 -3.25 
vt 23.5 -3.375 
vt 3.5 -3.375 

usemtl Baseplate1Mtl

f 1/1/1 2/2/2 3/3/3 
f 3/3/3 2/2/2 4/4/4 
f 5/5/5 6/6/6 7/7/7 
f 7/7/7 6/6/6 8/8/8 
f 9/9/9 10/10/10 11/11/11 
f 11/11/11 10/10/10 12/12/12 
f 13/13/13 14/14/14 15/15/15 
f 15/15/15 14/14/14 16/16/16 
f 17/17/17 18/18/18 19/19/19 
f 19/19/19 18/18/18 20/20/20 
f 21/21/21 22/22/22 23/23/23 
f 23/23/23 22/22/22 24/24/24 

g Baseplate2

v -78.3199 2.02001 80.9248 
v 81.6801 2.02001 80.9248 
v -78.3199 2.02001 -79.0752 
v 81.6801 2.02001 -79.0752 

vn 0 1 0 
vn 0 1 0 
vn 0 1 0 
vn 0 1 0 

vt 80 1 
vt 0 1 
vt 80 -39 
vt 0 -39 

usemtl Baseplate2Mtl

f 25/25/25 26/26/26 27/27/27 
f 27/27/27 26/26/26 28/28/28 

g Baseplate3

v 81.6801 0.980006 80.9248 
v -78.3199 0.980006 80.9248 
v 81.6801 0.980006 -79.0752 
v -78.3199 0.980006 -79.0752 

vn 0 -1 0 
vn 0 -1 0 
vn 0 -1 0 
vn 0 -1 0 

vt 80 1 
vt 0 1 
vt 80 -39 
vt 0 -39 

usemtl Baseplate3Mtl

f 29/29/29 30/30/30 31/31/31 
f 31/31/31 30/30/30 32/32/32 

g GrassPart1

v 81.6801 23 28.9239 
v 81.6801 23 80.9239 
v 81.6801 22 28.9239 
v 81.6801 22 80.9239 
v -19.3199 23 80.9239 
v 81.6801 23 80.9239 
v -19.3199 23 28.9239 
v 81.6801 23 28.9239 
v 81.6801 23 80.9239 
v -19.3199 23 80.9239 
v 81.6801 22 80.9239 
v -19.3199 22 80.9239 
v -19.3199 23 80.9239 
v -19.3199 23 28.9239 
v -19.3199 22 80.9239 
v -19.3199 22 28.9239 
v -19.3199 22 28.9239 
v 81.6801 22 28.9239 
v -19.3199 22 80.9239 
v 81.6801 22 80.9239 
v -19.3199 23 28.9239 
v 81.6801 23 28.9239 
v -19.3199 22 28.9239 
v 81.6801 22 28.9239 

vn 1 0 0 
vn 1 0 0 
vn 1 0 0 
vn 1 0 0 
vn 0 1 0 
vn 0 1 0 
vn 0 1 0 
vn 0 1 0 
vn 0 0 1 
vn 0 0 1 
vn 0 0 1 
vn 0 0 1 
vn -1 0 0 
vn -1 0 0 
vn -1 0 0 
vn -1 0 0 
vn 0 -1 0 
vn 0 -1 0 
vn 0 -1 0 
vn 0 -1 0 
vn 0 0 -1 
vn 0 0 -1 
vn 0 0 -1 
vn 0 0 -1 

vt 12.75 -3.75 
vt 6.25 -3.75 
vt 12.75 -3.875 
vt 6.25 -3.875 
vt 18.875 -3.75 
vt 6.25 -3.75 
vt 18.875 -10.25 
vt 6.25 -10.25 
vt 18.875 -3.75 
vt 6.25 -3.75 
vt 18.875 -3.875 
vt 6.25 -3.875 
vt 12.75 -3.75 
vt 6.25 -3.75 
vt 12.75 -3.875 
vt 6.25 -3.875 
vt 18.875 -3.75 
vt 6.25 -3.75 
vt 18.875 -10.25 
vt 6.25 -10.25 
vt 18.875 -3.75 
vt 6.25 -3.75 
vt 18.875 -3.875 
vt 6.25 -3.875 

usemtl Baseplate1Mtl

f 33/33/33 34/34/34 35/35/35 
f 35/35/35 34/34/34 36/36/36 
f 37/37/37 38/38/38 39/39/39 
f 39/39/39 38/38/38 40/40/40 
f 41/41/41 42/42/42 43/43/43 
f 43/43/43 42/42/42 44/44/44 
f 45/45/45 46/46/46 47/47/47 
f 47/47/47 46/46/46 48/48/48 
f 49/49/49 50/50/50 51/51/51 
f 51/51/51 50/50/50 52/52/52 
f 53/53/53 54/54/54 55/55/55 
f 55/55/55 54/54/54 56/56/56 

g GrassPart2

v -19.3199 23.02 80.9239 
v 81.6801 23.02 80.9239 
v -19.3199 23.02 28.9239 
v 81.6801 23.02 28.9239 

vn 0 1 0 
vn 0 1 0 
vn 0 1 0 
vn 0 1 0 

vt 50.5 1 
vt 0 1 
vt 50.5 -12 
vt 0 -12 

usemtl Baseplate2Mtl

f 57/57/57 58/58/58 59/59/59 
f 59/59/59 58/58/58 60/60/60 

g GrassPart3

v 81.6801 21.98 80.9239 
v -19.3199 21.98 80.9239 
v 81.6801 21.98 28.9239 
v -19.3199 21.98 28.9239 

vn 0 -1 0 
vn 0 -1 0 
vn 0 -1 0 
vn 0 -1 0 

vt 50.5 1 
vt 0 1 
vt 50.5 -12 
vt 0 -12 

usemtl Baseplate3Mtl

f 61/61/61 62/62/62 63/63/63 
f 63/63/63 62/62/62 64/64/64 

g DirtPart1

v 81.6801 22 28.9248 
v 81.6801 22 80.9248 
v 81.6801 2.00001 28.9248 
v 81.6801 2.00001 80.9248 
v -19.3199 22 80.9248 
v 81.6801 22 80.9248 
v -19.3199 22 28.9248 
v 81.6801 22 28.9248 
v 81.6801 22 80.9248 
v -19.3199 22 80.9248 
v 81.6801 2.00001 80.9248 
v -19.3199 2.00001 80.9248 
v -19.3199 22 80.9248 
v -19.3199 22 28.9248 
v -19.3199 2.00001 80.9248 
v -19.3199 2.00001 28.9248 
v -19.3199 2.00001 28.9248 
v 81.6801 2.00001 28.9248 
v -19.3199 2.00001 80.9248 
v 81.6801 2.00001 80.9248 
v -19.3199 22 28.9248 
v 81.6801 22 28.9248 
v -19.3199 2.00001 28.9248 
v 81.6801 2.00001 28.9248 

vn 1 0 0 
vn 1 0 0 
vn 1 0 0 
vn 1 0 0 
vn 0 1 0 
vn 0 1 0 
vn 0 1 0 
vn 0 1 0 
vn 0 0 1 
vn 0 0 1 
vn 0 0 1 
vn 0 0 1 
vn -1 0 0 
vn -1 0 0 
vn -1 0 0 
vn -1 0 0 
vn 0 -1 0 
vn 0 -1 0 
vn 0 -1 0 
vn 0 -1 0 
vn 0 0 -1 
vn 0 0 -1 
vn 0 0 -1 
vn 0 0 -1 

vt 13.5 -3 
vt 7 -3 
vt 13.5 -5.5 
vt 7 -5.5 
vt 19.625 -3 
vt 7 -3 
vt 19.625 -9.5 
vt 7 -9.5 
vt 19.625 -3 
vt 7 -3 
vt 19.625 -5.5 
vt 7 -5.5 
vt 13.5 -3 
vt 7 -3 
vt 13.5 -5.5 
vt 7 -5.5 
vt 19.625 -3 
vt 7 -3 
vt 19.625 -9.5 
vt 7 -9.5 
vt 19.625 -3 
vt 7 -3 
vt 19.625 -5.5 
vt 7 -5.5 

usemtl DirtPart1Mtl

f 65/65/65 66/66/66 67/67/67 
f 67/67/67 66/66/66 68/68/68 
f 69/69/69 70/70/70 71/71/71 
f 71/71/71 70/70/70 72/72/72 
f 73/73/73 74/74/74 75/75/75 
f 75/75/75 74/74/74 76/76/76 
f 77/77/77 78/78/78 79/79/79 
f 79/79/79 78/78/78 80/80/80 
f 81/81/81 82/82/82 83/83/83 
f 83/83/83 82/82/82 84/84/84 
f 85/85/85 86/86/86 87/87/87 
f 87/87/87 86/86/86 88/88/88 

g DirtPart2

v -19.3199 22.02 80.9248 
v 81.6801 22.02 80.9248 
v -19.3199 22.02 28.9248 
v 81.6801 22.02 28.9248 

vn 0 1 0 
vn 0 1 0 
vn 0 1 0 
vn 0 1 0 

vt 50.5 1 
vt 0 1 
vt 50.5 -12 
vt 0 -12 

usemtl Baseplate2Mtl

f 89/89/89 90/90/90 91/91/91 
f 91/91/91 90/90/90 92/92/92 

g DirtPart3

v 81.6801 1.98001 80.9248 
v -19.3199 1.98001 80.9248 
v 81.6801 1.98001 28.9248 
v -19.3199 1.98001 28.9248 

vn 0 -1 0 
vn 0 -1 0 
vn 0 -1 0 
vn 0 -1 0 

vt 50.5 1 
vt 0 1 
vt 50.5 -12 
vt 0 -12 

usemtl Baseplate3Mtl

f 93/93/93 94/94/94 95/95/95 
f 95/95/95 94/94/94 96/96/96 

g ClimbPart1

v -19.3199 10 66.9239 
v -19.3199 10 70.9239 
v -19.3199 9.00002 66.9239 
v -19.3199 9.00002 70.9239 
v -20.3199 10 70.9239 
v -19.3199 10 70.9239 
v -20.3199 10 66.9239 
v -19.3199 10 66.9239 
v -19.3199 10 70.9239 
v -20.3199 10 70.9239 
v -19.3199 9.00002 70.9239 
v -20.3199 9.00002 70.9239 
v -20.3199 10 70.9239 
v -20.3199 10 66.9239 
v -20.3199 9.00002 70.9239 
v -20.3199 9.00002 66.9239 
v -20.3199 9.00002 66.9239 
v -19.3199 9.00002 66.9239 
v -20.3199 9.00002 70.9239 
v -19.3199 9.00002 70.9239 
v -20.3199 10 66.9239 
v -19.3199 10 66.9239 
v -20.3199 9.00002 66.9239 
v -19.3199 9.00002 66.9239 

vn 1 0 0 
vn 1 0 0 
vn 1 0 0 
vn 1 0 0 
vn 0 1 0 
vn 0 1 0 
vn 0 1 0 
vn 0 1 0 
vn 0 0 1 
vn 0 0 1 
vn 0 0 1 
vn 0 0 1 
vn -1 0 0 
vn -1 0 0 
vn -1 0 0 
vn -1 0 0 
vn 0 -1 0 
vn 0 -1 0 
vn 0 -1 0 
vn 0 -1 0 
vn 0 0 -1 
vn 0 0 -1 
vn 0 0 -1 
vn 0 0 -1 

vt 2.75 0.75 
vt 2.25 0.75 
vt 2.75 0.625 
vt 2.25 0.625 
vt 2.375 0.75 
vt 2.25 0.75 
vt 2.375 0.25 
vt 2.25 0.25 
vt 2.375 0.75 
vt 2.25 0.75 
vt 2.375 0.625 
vt 2.25 0.625 
vt 2.75 0.75 
vt 2.25 0.75 
vt 2.75 0.625 
vt 2.25 0.625 
vt 2.375 0.75 
vt 2.25 0.75 
vt 2.375 0.25 
vt 2.25 0.25 
vt 2.375 0.75 
vt 2.25 0.75 
vt 2.375 0.625 
vt 2.25 0.625 

usemtl ClimbPart1Mtl

f 97/97/97 98/98/98 99/99/99 
f 99/99/99 98/98/98 100/100/100 
f 101/101/101 102/102/102 103/103/103 
f 103/103/103 102/102/102 104/104/104 
f 105/105/105 106/106/106 107/107/107 
f 107/107/107 106/106/106 108/108/108 
f 109/109/109 110/110/110 111/111/111 
f 111/111/111 110/110/110 112/112/112 
f 113/113/113 114/114/114 115/115/115 
f 115/115/115 114/114/114 116/116/116 
f 117/117/117 118/118/118 119/119/119 
f 119/119/119 118/118/118 120/120/120 

g ClimbPart2

v -20.3199 10.02 70.9239 
v -19.3199 10.02 70.9239 
v -20.3199 10.02 66.9239 
v -19.3199 10.02 66.9239 

vn 0 1 0 
vn 0 1 0 
vn 0 1 0 
vn 0 1 0 

vt 0.5 1 
vt 0 1 
vt 0.5 0 
vt 0 0 

usemtl Baseplate2Mtl

f 121/121/121 122/122/122 123/123/123 
f 123/123/123 122/122/122 124/124/124 

g ClimbPart3

v -19.3199 8.98002 70.9239 
v -20.3199 8.98002 70.9239 
v -19.3199 8.98002 66.9239 
v -20.3199 8.98002 66.9239 

vn 0 -1 0 
vn 0 -1 0 
vn 0 -1 0 
vn 0 -1 0 

vt 0.5 1 
vt 0 1 
vt 0.5 0 
vt 0 0 

usemtl Baseplate3Mtl

f 125/125/125 126/126/126 127/127/127 
f 127/127/127 126/126/126 128/128/128 

g ClimbPart4

v -19.3199 18 66.9239 
v -19.3199 18 70.9239 
v -19.3199 17 66.9239 
v -19.3199 17 70.9239 
v -20.3199 18 70.9239 
v -19.3199 18 70.9239 
v -20.3199 18 66.9239 
v -19.3199 18 66.9239 
v -19.3199 18 70.9239 
v -20.3199 18 70.9239 
v -19.3199 17 70.9239 
v -20.3199 17 70.9239 
v -20.3199 18 70.9239 
v -20.3199 18 66.9239 
v -20.3199 17 70.9239 
v -20.3199 17 66.9239 
v -20.3199 17 66.9239 
v -19.3199 17 66.9239 
v -20.3199 17 70.9239 
v -19.3199 17 70.9239 
v -20.3199 18 66.9239 
v -19.3199 18 66.9239 
v -20.3199 17 66.9239 
v -19.3199 17 66.9239 

vn 1 0 0 
vn 1 0 0 
vn 1 0 0 
vn 1 0 0 
vn 0 1 0 
vn 0 1 0 
vn 0 1 0 
vn 0 1 0 
vn 0 0 1 
vn 0 0 1 
vn 0 0 1 
vn 0 0 1 
vn -1 0 0 
vn -1 0 0 
vn -1 0 0 
vn -1 0 0 
vn 0 -1 0 
vn 0 -1 0 
vn 0 -1 0 
vn 0 -1 0 
vn 0 0 -1 
vn 0 0 -1 
vn 0 0 -1 
vn 0 0 -1 

vt 7.25 -3.5 
vt 6.75 -3.5 
vt 7.25 -3.625 
vt 6.75 -3.625 
vt 6.875 -3.5 
vt 6.75 -3.5 
vt 6.875 -4 
vt 6.75 -4 
vt 6.875 -3.5 
vt 6.75 -3.5 
vt 6.875 -3.625 
vt 6.75 -3.625 
vt 7.25 -3.5 
vt 6.75 -3.5 
vt 7.25 -3.625 
vt 6.75 -3.625 
vt 6.875 -3.5 
vt 6.75 -3.5 
vt 6.875 -4 
vt 6.75 -4 
vt 6.875 -3.5 
vt 6.75 -3.5 
vt 6.875 -3.625 
vt 6.75 -3.625 

usemtl ClimbPart1Mtl

f 129/129/129 130/130/130 131/131/131 
f 131/131/131 130/130/130 132/132/132 
f 133/133/133 134/134/134 135/135/135 
f 135/135/135 134/134/134 136/136/136 
f 137/137/137 138/138/138 139/139/139 
f 139/139/139 138/138/138 140/140/140 
f 141/141/141 142/142/142 143/143/143 
f 143/143/143 142/142/142 144/144/144 
f 145/145/145 146/146/146 147/147/147 
f 147/147/147 146/146/146 148/148/148 
f 149/149/149 150/150/150 151/151/151 
f 151/151/151 150/150/150 152/152/152 

g ClimbPart5

v -20.3199 18.02 70.9239 
v -19.3199 18.02 70.9239 
v -20.3199 18.02 66.9239 
v -19.3199 18.02 66.9239 

vn 0 1 0 
vn 0 1 0 
vn 0 1 0 
vn 0 1 0 

vt 0.5 1 
vt 0 1 
vt 0.5 0 
vt 0 0 

usemtl Baseplate2Mtl

f 153/153/153 154/154/154 155/155/155 
f 155/155/155 154/154/154 156/156/156 

g ClimbPart6

v -19.3199 16.98 70.9239 
v -20.3199 16.98 70.9239 
v -19.3199 16.98 66.9239 
v -20.3199 16.98 66.9239 

vn 0 -1 0 
vn 0 -1 0 
vn 0 -1 0 
vn 0 -1 0 

vt 0.5 1 
vt 0 1 
vt 0.5 0 
vt 0 0 

usemtl Baseplate3Mtl

f 157/157/157 158/158/158 159/159/159 
f 159/159/159 158/158/158 160/160/160 

g ClimbPart7

v -19.3199 20 66.9239 
v -19.3199 20 70.9239 
v -19.3199 19 66.9239 
v -19.3199 19 70.9239 
v -20.3199 20 70.9239 
v -19.3199 20 70.9239 
v -20.3199 20 66.9239 
v -19.3199 20 66.9239 
v -19.3199 20 70.9239 
v -20.3199 20 70.9239 
v -19.3199 19 70.9239 
v -20.3199 19 70.9239 
v -20.3199 20 70.9239 
v -20.3199 20 66.9239 
v -20.3199 19 70.9239 
v -20.3199 19 66.9239 
v -20.3199 19 66.9239 
v -19.3199 19 66.9239 
v -20.3199 19 70.9239 
v -19.3199 19 70.9239 
v -20.3199 20 66.9239 
v -19.3199 20 66.9239 
v -20.3199 19 66.9239 
v -19.3199 19 66.9239 

vn 1 0 0 
vn 1 0 0 
vn 1 0 0 
vn 1 0 0 
vn 0 1 0 
vn 0 1 0 
vn 0 1 0 
vn 0 1 0 
vn 0 0 1 
vn 0 0 1 
vn 0 0 1 
vn 0 0 1 
vn -1 0 0 
vn -1 0 0 
vn -1 0 0 
vn -1 0 0 
vn 0 -1 0 
vn 0 -1 0 
vn 0 -1 0 
vn 0 -1 0 
vn 0 0 -1 
vn 0 0 -1 
vn 0 0 -1 
vn 0 0 -1 

vt 3 -6 
vt 2.5 -6 
vt 3 -6.125 
vt 2.5 -6.125 
vt 2.625 -6 
vt 2.5 -6 
vt 2.625 -6.5 
vt 2.5 -6.5 
vt 2.625 -6 
vt 2.5 -6 
vt 2.625 -6.125 
vt 2.5 -6.125 
vt 3 -6 
vt 2.5 -6 
vt 3 -6.125 
vt 2.5 -6.125 
vt 2.625 -6 
vt 2.5 -6 
vt 2.625 -6.5 
vt 2.5 -6.5 
vt 2.625 -6 
vt 2.5 -6 
vt 2.625 -6.125 
vt 2.5 -6.125 

usemtl ClimbPart1Mtl

f 161/161/161 162/162/162 163/163/163 
f 163/163/163 162/162/162 164/164/164 
f 165/165/165 166/166/166 167/167/167 
f 167/167/167 166/166/166 168/168/168 
f 169/169/169 170/170/170 171/171/171 
f 171/171/171 170/170/170 172/172/172 
f 173/173/173 174/174/174 175/175/175 
f 175/175/175 174/174/174 176/176/176 
f 177/177/177 178/178/178 179/179/179 
f 179/179/179 178/178/178 180/180/180 
f 181/181/181 182/182/182 183/183/183 
f 183/183/183 182/182/182 184/184/184 

g ClimbPart8

v -20.3199 20.02 70.9239 
v -19.3199 20.02 70.9239 
v -20.3199 20.02 66.9239 
v -19.3199 20.02 66.9239 

vn 0 1 0 
vn 0 1 0 
vn 0 1 0 
vn 0 1 0 

vt 0.5 1 
vt 0 1 
vt 0.5 0 
vt 0 0 

usemtl Baseplate2Mtl

f 185/185/185 186/186/186 187/187/187 
f 187/187/187 186/186/186 188/188/188 

g ClimbPart9

v -19.3199 18.98 70.9239 
v -20.3199 18.98 70.9239 
v -19.3199 18.98 66.9239 
v -20.3199 18.98 66.9239 

vn 0 -1 0 
vn 0 -1 0 
vn 0 -1 0 
vn 0 -1 0 

vt 0.5 1 
vt 0 1 
vt 0.5 0 
vt 0 0 

usemtl Baseplate3Mtl

f 189/189/189 190/190/190 191/191/191 
f 191/191/191 190/190/190 192/192/192 

g LadderHolder1

v -19.3199 23 65.9239 
v -19.3199 23 66.9239 
v -19.3199 2.00002 65.9239 
v -19.3199 2.00002 66.9239 
v -20.3199 23 66.9239 
v -19.3199 23 66.9239 
v -20.3199 23 65.9239 
v -19.3199 23 65.9239 
v -19.3199 23 66.9239 
v -20.3199 23 66.9239 
v -19.3199 2.00002 66.9239 
v -20.3199 2.00002 66.9239 
v -20.3199 23 66.9239 
v -20.3199 23 65.9239 
v -20.3199 2.00002 66.9239 
v -20.3199 2.00002 65.9239 
v -20.3199 2.00002 65.9239 
v -19.3199 2.00002 65.9239 
v -20.3199 2.00002 66.9239 
v -19.3199 2.00002 66.9239 
v -20.3199 23 65.9239 
v -19.3199 23 65.9239 
v -20.3199 2.00002 65.9239 
v -19.3199 2.00002 65.9239 

vn 1 0 0 
vn 1 0 0 
vn 1 0 0 
vn 1 0 0 
vn 0 1 0 
vn 0 1 0 
vn 0 1 0 
vn 0 1 0 
vn 0 0 1 
vn 0 0 1 
vn 0 0 1 
vn 0 0 1 
vn -1 0 0 
vn -1 0 0 
vn -1 0 0 
vn -1 0 0 
vn 0 -1 0 
vn 0 -1 0 
vn 0 -1 0 
vn 0 -1 0 
vn 0 0 -1 
vn 0 0 -1 
vn 0 0 -1 
vn 0 0 -1 

vt 3.125 -0.75 
vt 3 -0.75 
vt 3.125 -3.375 
vt 3 -3.375 
vt 3.125 -0.75 
vt 3 -0.75 
vt 3.125 -0.875 
vt 3 -0.875 
vt 3.125 -0.75 
vt 3 -0.75 
vt 3.125 -3.375 
vt 3 -3.375 
vt 3.125 -0.75 
vt 3 -0.75 
vt 3.125 -3.375 
vt 3 -3.375 
vt 3.125 -0.75 
vt 3 -0.75 
vt 3.125 -0.875 
vt 3 -0.875 
vt 3.125 -0.75 
vt 3 -0.75 
vt 3.125 -3.375 
vt 3 -3.375 

usemtl LadderHolder1Mtl

f 193/193/193 194/194/194 195/195/195 
f 195/195/195 194/194/194 196/196/196 
f 197/197/197 198/198/198 199/199/199 
f 199/199/199 198/198/198 200/200/200 
f 201/201/201 202/202/202 203/203/203 
f 203/203/203 202/202/202 204/204/204 
f 205/205/205 206/206/206 207/207/207 
f 207/207/207 206/206/206 208/208/208 
f 209/209/209 210/210/210 211/211/211 
f 211/211/211 210/210/210 212/212/212 
f 213/213/213 214/214/214 215/215/215 
f 215/215/215 214/214/214 216/216/216 

g LadderHolder2

v -20.3199 23.02 66.9239 
v -19.3199 23.02 66.9239 
v -20.3199 23.02 65.9239 
v -19.3199 23.02 65.9239 

vn 0 1 0 
vn 0 1 0 
vn 0 1 0 
vn 0 1 0 

vt 0.5 1 
vt 0 1 
vt 0.5 0.75 
vt 0 0.75 

usemtl Baseplate2Mtl

f 217/217/217 218/218/218 219/219/219 
f 219/219/219 218/218/218 220/220/220 

g LadderHolder3

v -19.3199 1.98002 66.9239 
v -20.3199 1.98002 66.9239 
v -19.3199 1.98002 65.9239 
v -20.3199 1.98002 65.9239 

vn 0 -1 0 
vn 0 -1 0 
vn 0 -1 0 
vn 0 -1 0 

vt 0.5 1 
vt 0 1 
vt 0.5 0.75 
vt 0 0.75 

usemtl Baseplate3Mtl

f 221/221/221 222/222/222 223/223/223 
f 223/223/223 222/222/222 224/224/224 

g ClimbPart10

v -19.3199 12 66.9239 
v -19.3199 12 70.9239 
v -19.3199 11 66.9239 
v -19.3199 11 70.9239 
v -20.3199 12 70.9239 
v -19.3199 12 70.9239 
v -20.3199 12 66.9239 
v -19.3199 12 66.9239 
v -19.3199 12 70.9239 
v -20.3199 12 70.9239 
v -19.3199 11 70.9239 
v -20.3199 11 70.9239 
v -20.3199 12 70.9239 
v -20.3199 12 66.9239 
v -20.3199 11 70.9239 
v -20.3199 11 66.9239 
v -20.3199 11 66.9239 
v -19.3199 11 66.9239 
v -20.3199 11 70.9239 
v -19.3199 11 70.9239 
v -20.3199 12 66.9239 
v -19.3199 12 66.9239 
v -20.3199 11 66.9239 
v -19.3199 11 66.9239 

vn 1 0 0 
vn 1 0 0 
vn 1 0 0 
vn 1 0 0 
vn 0 1 0 
vn 0 1 0 
vn 0 1 0 
vn 0 1 0 
vn 0 0 1 
vn 0 0 1 
vn 0 0 1 
vn 0 0 1 
vn -1 0 0 
vn -1 0 0 
vn -1 0 0 
vn -1 0 0 
vn 0 -1 0 
vn 0 -1 0 
vn 0 -1 0 
vn 0 -1 0 
vn 0 0 -1 
vn 0 0 -1 
vn 0 0 -1 
vn 0 0 -1 

vt 6.5 -3.75 
vt 6 -3.75 
vt 6.5 -3.875 
vt 6 -3.875 
vt 6.125 -3.75 
vt 6 -3.75 
vt 6.125 -4.25 
vt 6 -4.25 
vt 6.125 -3.75 
vt 6 -3.75 
vt 6.125 -3.875 
vt 6 -3.875 
vt 6.5 -3.75 
vt 6 -3.75 
vt 6.5 -3.875 
vt 6 -3.875 
vt 6.125 -3.75 
vt 6 -3.75 
vt 6.125 -4.25 
vt 6 -4.25 
vt 6.125 -3.75 
vt 6 -3.75 
vt 6.125 -3.875 
vt 6 -3.875 

usemtl ClimbPart1Mtl

f 225/225/225 226/226/226 227/227/227 
f 227/227/227 226/226/226 228/228/228 
f 229/229/229 230/230/230 231/231/231 
f 231/231/231 230/230/230 232/232/232 
f 233/233/233 234/234/234 235/235/235 
f 235/235/235 234/234/234 236/236/236 
f 237/237/237 238/238/238 239/239/239 
f 239/239/239 238/238/238 240/240/240 
f 241/241/241 242/242/242 243/243/243 
f 243/243/243 242/242/242 244/244/244 
f 245/245/245 246/246/246 247/247/247 
f 247/247/247 246/246/246 248/248/248 

g ClimbPart11

v -20.3199 12.02 70.9239 
v -19.3199 12.02 70.9239 
v -20.3199 12.02 66.9239 
v -19.3199 12.02 66.9239 

vn 0 1 0 
vn 0 1 0 
vn 0 1 0 
vn 0 1 0 

vt 0.5 1 
vt 0 1 
vt 0.5 0 
vt 0 0 

usemtl Baseplate2Mtl

f 249/249/249 250/250/250 251/251/251 
f 251/251/251 250/250/250 252/252/252 

g ClimbPart12

v -19.3199 10.98 70.9239 
v -20.3199 10.98 70.9239 
v -19.3199 10.98 66.9239 
v -20.3199 10.98 66.9239 

vn 0 -1 0 
vn 0 -1 0 
vn 0 -1 0 
vn 0 -1 0 

vt 0.5 1 
vt 0 1 
vt 0.5 0 
vt 0 0 

usemtl Baseplate3Mtl

f 253/253/253 254/254/254 255/255/255 
f 255/255/255 254/254/254 256/256/256 

g ClimbPart13

v -19.3199 22 66.9239 
v -19.3199 22 70.9239 
v -19.3199 21 66.9239 
v -19.3199 21 70.9239 
v -20.3199 22 70.9239 
v -19.3199 22 70.9239 
v -20.3199 22 66.9239 
v -19.3199 22 66.9239 
v -19.3199 22 70.9239 
v -20.3199 22 70.9239 
v -19.3199 21 70.9239 
v -20.3199 21 70.9239 
v -20.3199 22 70.9239 
v -20.3199 22 66.9239 
v -20.3199 21 70.9239 
v -20.3199 21 66.9239 
v -20.3199 21 66.9239 
v -19.3199 21 66.9239 
v -20.3199 21 70.9239 
v -19.3199 21 70.9239 
v -20.3199 22 66.9239 
v -19.3199 22 66.9239 
v -20.3199 21 66.9239 
v -19.3199 21 66.9239 

vn 1 0 0 
vn 1 0 0 
vn 1 0 0 
vn 1 0 0 
vn 0 1 0 
vn 0 1 0 
vn 0 1 0 
vn 0 1 0 
vn 0 0 1 
vn 0 0 1 
vn 0 0 1 
vn 0 0 1 
vn -1 0 0 
vn -1 0 0 
vn -1 0 0 
vn -1 0 0 
vn 0 -1 0 
vn 0 -1 0 
vn 0 -1 0 
vn 0 -1 0 
vn 0 0 -1 
vn 0 0 -1 
vn 0 0 -1 
vn 0 0 -1 

vt 5.75 -2.5 
vt 5.25 -2.5 
vt 5.75 -2.625 
vt 5.25 -2.625 
vt 5.375 -2.5 
vt 5.25 -2.5 
vt 5.375 -3 
vt 5.25 -3 
vt 5.375 -2.5 
vt 5.25 -2.5 
vt 5.375 -2.625 
vt 5.25 -2.625 
vt 5.75 -2.5 
vt 5.25 -2.5 
vt 5.75 -2.625 
vt 5.25 -2.625 
vt 5.375 -2.5 
vt 5.25 -2.5 
vt 5.375 -3 
vt 5.25 -3 
vt 5.375 -2.5 
vt 5.25 -2.5 
vt 5.375 -2.625 
vt 5.25 -2.625 

usemtl ClimbPart1Mtl

f 257/257/257 258/258/258 259/259/259 
f 259/259/259 258/258/258 260/260/260 
f 261/261/261 262/262/262 263/263/263 
f 263/263/263 262/262/262 264/264/264 
f 265/265/265 266/266/266 267/267/267 
f 267/267/267 266/266/266 268/268/268 
f 269/269/269 270/270/270 271/271/271 
f 271/271/271 270/270/270 272/272/272 
f 273/273/273 274/274/274 275/275/275 
f 275/275/275 274/274/274 276/276/276 
f 277/277/277 278/278/278 279/279/279 
f 279/279/279 278/278/278 280/280/280 

g ClimbPart14

v -20.3199 22.02 70.9239 
v -19.3199 22.02 70.9239 
v -20.3199 22.02 66.9239 
v -19.3199 22.02 66.9239 

vn 0 1 0 
vn 0 1 0 
vn 0 1 0 
vn 0 1 0 

vt 0.5 1 
vt 0 1 
vt 0.5 0 
vt 0 0 

usemtl Baseplate2Mtl

f 281/281/281 282/282/282 283/283/283 
f 283/283/283 282/282/282 284/284/284 

g ClimbPart15

v -19.3199 20.98 70.9239 
v -20.3199 20.98 70.9239 
v -19.3199 20.98 66.9239 
v -20.3199 20.98 66.9239 

vn 0 -1 0 
vn 0 -1 0 
vn 0 -1 0 
vn 0 -1 0 

vt 0.5 1 
vt 0 1 
vt 0.5 0 
vt 0 0 

usemtl Baseplate3Mtl

f 285/285/285 286/286/286 287/287/287 
f 287/287/287 286/286/286 288/288/288 

g ClimbPart16

v -19.3199 16 66.9239 
v -19.3199 16 70.9239 
v -19.3199 15 66.9239 
v -19.3199 15 70.9239 
v -20.3199 16 70.9239 
v -19.3199 16 70.9239 
v -20.3199 16 66.9239 
v -19.3199 16 66.9239 
v -19.3199 16 70.9239 
v -20.3199 16 70.9239 
v -19.3199 15 70.9239 
v -20.3199 15 70.9239 
v -20.3199 16 70.9239 
v -20.3199 16 66.9239 
v -20.3199 15 70.9239 
v -20.3199 15 66.9239 
v -20.3199 15 66.9239 
v -19.3199 15 66.9239 
v -20.3199 15 70.9239 
v -19.3199 15 70.9239 
v -20.3199 16 66.9239 
v -19.3199 16 66.9239 
v -20.3199 15 66.9239 
v -19.3199 15 66.9239 

vn 1 0 0 
vn 1 0 0 
vn 1 0 0 
vn 1 0 0 
vn 0 1 0 
vn 0 1 0 
vn 0 1 0 
vn 0 1 0 
vn 0 0 1 
vn 0 0 1 
vn 0 0 1 
vn 0 0 1 
vn -1 0 0 
vn -1 0 0 
vn -1 0 0 
vn -1 0 0 
vn 0 -1 0 
vn 0 -1 0 
vn 0 -1 0 
vn 0 -1 0 
vn 0 0 -1 
vn 0 0 -1 
vn 0 0 -1 
vn 0 0 -1 

vt 5.25 -2.5 
vt 4.75 -2.5 
vt 5.25 -2.625 
vt 4.75 -2.625 
vt 4.875 -2.5 
vt 4.75 -2.5 
vt 4.875 -3 
vt 4.75 -3 
vt 4.875 -2.5 
vt 4.75 -2.5 
vt 4.875 -2.625 
vt 4.75 -2.625 
vt 5.25 -2.5 
vt 4.75 -2.5 
vt 5.25 -2.625 
vt 4.75 -2.625 
vt 4.875 -2.5 
vt 4.75 -2.5 
vt 4.875 -3 
vt 4.75 -3 
vt 4.875 -2.5 
vt 4.75 -2.5 
vt 4.875 -2.625 
vt 4.75 -2.625 

usemtl ClimbPart1Mtl

f 289/289/289 290/290/290 291/291/291 
f 291/291/291 290/290/290 292/292/292 
f 293/293/293 294/294/294 295/295/295 
f 295/295/295 294/294/294 296/296/296 
f 297/297/297 298/298/298 299/299/299 
f 299/299/299 298/298/298 300/300/300 
f 301/301/301 302/302/302 303/303/303 
f 303/303/303 302/302/302 304/304/304 
f 305/305/305 306/306/306 307/307/307 
f 307/307/307 306/306/306 308/308/308 
f 309/309/309 310/310/310 311/311/311 
f 311/311/311 310/310/310 312/312/312 

g ClimbPart17

v -20.3199 16.02 70.9239 
v -19.3199 16.02 70.9239 
v -20.3199 16.02 66.9239 
v -19.3199 16.02 66.9239 

vn 0 1 0 
vn 0 1 0 
vn 0 1 0 
vn 0 1 0 

vt 0.5 1 
vt 0 1 
vt 0.5 0 
vt 0 0 

usemtl Baseplate2Mtl

f 313/313/313 314/314/314 315/315/315 
f 315/315/315 314/314/314 316/316/316 

g ClimbPart18

v -19.3199 14.98 70.9239 
v -20.3199 14.98 70.9239 
v -19.3199 14.98 66.9239 
v -20.3199 14.98 66.9239 

vn 0 -1 0 
vn 0 -1 0 
vn 0 -1 0 
vn 0 -1 0 

vt 0.5 1 
vt 0 1 
vt 0.5 0 
vt 0 0 

usemtl Baseplate3Mtl

f 317/317/317 318/318/318 319/319/319 
f 319/319/319 318/318/318 320/320/320 

g LadderHolder4

v -19.3199 23 70.9239 
v -19.3199 23 71.9239 
v -19.3199 2.00002 70.9239 
v -19.3199 2.00002 71.9239 
v -20.3199 23 71.9239 
v -19.3199 23 71.9239 
v -20.3199 23 70.9239 
v -19.3199 23 70.9239 
v -19.3199 23 71.9239 
v -20.3199 23 71.9239 
v -19.3199 2.00002 71.9239 
v -20.3199 2.00002 71.9239 
v -20.3199 23 71.9239 
v -20.3199 23 70.9239 
v -20.3199 2.00002 71.9239 
v -20.3199 2.00002 70.9239 
v -20.3199 2.00002 70.9239 
v -19.3199 2.00002 70.9239 
v -20.3199 2.00002 71.9239 
v -19.3199 2.00002 71.9239 
v -20.3199 23 70.9239 
v -19.3199 23 70.9239 
v -20.3199 2.00002 70.9239 
v -19.3199 2.00002 70.9239 

vn 1 0 0 
vn 1 0 0 
vn 1 0 0 
vn 1 0 0 
vn 0 1 0 
vn 0 1 0 
vn 0 1 0 
vn 0 1 0 
vn 0 0 1 
vn 0 0 1 
vn 0 0 1 
vn 0 0 1 
vn -1 0 0 
vn -1 0 0 
vn -1 0 0 
vn -1 0 0 
vn 0 -1 0 
vn 0 -1 0 
vn 0 -1 0 
vn 0 -1 0 
vn 0 0 -1 
vn 0 0 -1 
vn 0 0 -1 
vn 0 0 -1 

vt 2.875 -4.75 
vt 2.75 -4.75 
vt 2.875 -7.375 
vt 2.75 -7.375 
vt 2.875 -4.75 
vt 2.75 -4.75 
vt 2.875 -4.875 
vt 2.75 -4.875 
vt 2.875 -4.75 
vt 2.75 -4.75 
vt 2.875 -7.375 
vt 2.75 -7.375 
vt 2.875 -4.75 
vt 2.75 -4.75 
vt 2.875 -7.375 
vt 2.75 -7.375 
vt 2.875 -4.75 
vt 2.75 -4.75 
vt 2.875 -4.875 
vt 2.75 -4.875 
vt 2.875 -4.75 
vt 2.75 -4.75 
vt 2.875 -7.375 
vt 2.75 -7.375 

usemtl LadderHolder1Mtl

f 321/321/321 322/322/322 323/323/323 
f 323/323/323 322/322/322 324/324/324 
f 325/325/325 326/326/326 327/327/327 
f 327/327/327 326/326/326 328/328/328 
f 329/329/329 330/330/330 331/331/331 
f 331/331/331 330/330/330 332/332/332 
f 333/333/333 334/334/334 335/335/335 
f 335/335/335 334/334/334 336/336/336 
f 337/337/337 338/338/338 339/339/339 
f 339/339/339 338/338/338 340/340/340 
f 341/341/341 342/342/342 343/343/343 
f 343/343/343 342/342/342 344/344/344 

g LadderHolder5

v -20.3199 23.02 71.9239 
v -19.3199 23.02 71.9239 
v -20.3199 23.02 70.9239 
v -19.3199 23.02 70.9239 

vn 0 1 0 
vn 0 1 0 
vn 0 1 0 
vn 0 1 0 

vt 0.5 1 
vt 0 1 
vt 0.5 0.75 
vt 0 0.75 

usemtl Baseplate2Mtl

f 345/345/345 346/346/346 347/347/347 
f 347/347/347 346/346/346 348/348/348 

g LadderHolder6

v -19.3199 1.98002 71.9239 
v -20.3199 1.98002 71.9239 
v -19.3199 1.98002 70.9239 
v -20.3199 1.98002 70.9239 

vn 0 -1 0 
vn 0 -1 0 
vn 0 -1 0 
vn 0 -1 0 

vt 0.5 1 
vt 0 1 
vt 0.5 0.75 
vt 0 0.75 

usemtl Baseplate3Mtl

f 349/349/349 350/350/350 351/351/351 
f 351/351/351 350/350/350 352/352/352 

g ClimbPart19

v -19.3199 14 66.9239 
v -19.3199 14 70.9239 
v -19.3199 13 66.9239 
v -19.3199 13 70.9239 
v -20.3199 14 70.9239 
v -19.3199 14 70.9239 
v -20.3199 14 66.9239 
v -19.3199 14 66.9239 
v -19.3199 14 70.9239 
v -20.3199 14 70.9239 
v -19.3199 13 70.9239 
v -20.3199 13 70.9239 
v -20.3199 14 70.9239 
v -20.3199 14 66.9239 
v -20.3199 13 70.9239 
v -20.3199 13 66.9239 
v -20.3199 13 66.9239 
v -19.3199 13 66.9239 
v -20.3199 13 70.9239 
v -19.3199 13 70.9239 
v -20.3199 14 66.9239 
v -19.3199 14 66.9239 
v -20.3199 13 66.9239 
v -19.3199 13 66.9239 

vn 1 0 0 
vn 1 0 0 
vn 1 0 0 
vn 1 0 0 
vn 0 1 0 
vn 0 1 0 
vn 0 1 0 
vn 0 1 0 
vn 0 0 1 
vn 0 0 1 
vn 0 0 1 
vn 0 0 1 
vn -1 0 0 
vn -1 0 0 
vn -1 0 0 
vn -1 0 0 
vn 0 -1 0 
vn 0 -1 0 
vn 0 -1 0 
vn 0 -1 0 
vn 0 0 -1 
vn 0 0 -1 
vn 0 0 -1 
vn 0 0 -1 

vt 3.5 -4.75 
vt 3 -4.75 
vt 3.5 -4.875 
vt 3 -4.875 
vt 3.125 -4.75 
vt 3 -4.75 
vt 3.125 -5.25 
vt 3 -5.25 
vt 3.125 -4.75 
vt 3 -4.75 
vt 3.125 -4.875 
vt 3 -4.875 
vt 3.5 -4.75 
vt 3 -4.75 
vt 3.5 -4.875 
vt 3 -4.875 
vt 3.125 -4.75 
vt 3 -4.75 
vt 3.125 -5.25 
vt 3 -5.25 
vt 3.125 -4.75 
vt 3 -4.75 
vt 3.125 -4.875 
vt 3 -4.875 

usemtl ClimbPart1Mtl

f 353/353/353 354/354/354 355/355/355 
f 355/355/355 354/354/354 356/356/356 
f 357/357/357 358/358/358 359/359/359 
f 359/359/359 358/358/358 360/360/360 
f 361/361/361 362/362/362 363/363/363 
f 363/363/363 362/362/362 364/364/364 
f 365/365/365 366/366/366 367/367/367 
f 367/367/367 366/366/366 368/368/368 
f 369/369/369 370/370/370 371/371/371 
f 371/371/371 370/370/370 372/372/372 
f 373/373/373 374/374/374 375/375/375 
f 375/375/375 374/374/374 376/376/376 

g ClimbPart20

v -20.3199 14.02 70.9239 
v -19.3199 14.02 70.9239 
v -20.3199 14.02 66.9239 
v -19.3199 14.02 66.9239 

vn 0 1 0 
vn 0 1 0 
vn 0 1 0 
vn 0 1 0 

vt 0.5 1 
vt 0 1 
vt 0.5 0 
vt 0 0 

usemtl Baseplate2Mtl

f 377/377/377 378/378/378 379/379/379 
f 379/379/379 378/378/378 380/380/380 

g ClimbPart21

v -19.3199 12.98 70.9239 
v -20.3199 12.98 70.9239 
v -19.3199 12.98 66.9239 
v -20.3199 12.98 66.9239 

vn 0 -1 0 
vn 0 -1 0 
vn 0 -1 0 
vn 0 -1 0 

vt 0.5 1 
vt 0 1 
vt 0.5 0 
vt 0 0 

usemtl Baseplate3Mtl

f 381/381/381 382/382/382 383/383/383 
f 383/383/383 382/382/382 384/384/384 

g ClimbPart22

v -19.3199 8.00002 66.9239 
v -19.3199 8.00002 70.9239 
v -19.3199 7.00002 66.9239 
v -19.3199 7.00002 70.9239 
v -20.3199 8.00002 70.9239 
v -19.3199 8.00002 70.9239 
v -20.3199 8.00002 66.9239 
v -19.3199 8.00002 66.9239 
v -19.3199 8.00002 70.9239 
v -20.3199 8.00002 70.9239 
v -19.3199 7.00002 70.9239 
v -20.3199 7.00002 70.9239 
v -20.3199 8.00002 70.9239 
v -20.3199 8.00002 66.9239 
v -20.3199 7.00002 70.9239 
v -20.3199 7.00002 66.9239 
v -20.3199 7.00002 66.9239 
v -19.3199 7.00002 66.9239 
v -20.3199 7.00002 70.9239 
v -19.3199 7.00002 70.9239 
v -20.3199 8.00002 66.9239 
v -19.3199 8.00002 66.9239 
v -20.3199 7.00002 66.9239 
v -19.3199 7.00002 66.9239 

vn 1 0 0 
vn 1 0 0 
vn 1 0 0 
vn 1 0 0 
vn 0 1 0 
vn 0 1 0 
vn 0 1 0 
vn 0 1 0 
vn 0 0 1 
vn 0 0 1 
vn 0 0 1 
vn 0 0 1 
vn -1 0 0 
vn -1 0 0 
vn -1 0 0 
vn -1 0 0 
vn 0 -1 0 
vn 0 -1 0 
vn 0 -1 0 
vn 0 -1 0 
vn 0 0 -1 
vn 0 0 -1 
vn 0 0 -1 
vn 0 0 -1 

vt 1.25 -4 
vt 0.75 -4 
vt 1.25 -4.125 
vt 0.75 -4.125 
vt 0.875 -4 
vt 0.75 -4 
vt 0.875 -4.5 
vt 0.75 -4.5 
vt 0.875 -4 
vt 0.75 -4 
vt 0.875 -4.125 
vt 0.75 -4.125 
vt 1.25 -4 
vt 0.75 -4 
vt 1.25 -4.125 
vt 0.75 -4.125 
vt 0.875 -4 
vt 0.75 -4 
vt 0.875 -4.5 
vt 0.75 -4.5 
vt 0.875 -4 
vt 0.75 -4 
vt 0.875 -4.125 
vt 0.75 -4.125 

usemtl ClimbPart1Mtl

f 385/385/385 386/386/386 387/387/387 
f 387/387/387 386/386/386 388/388/388 
f 389/389/389 390/390/390 391/391/391 
f 391/391/391 390/390/390 392/392/392 
f 393/393/393 394/394/394 395/395/395 
f 395/395/395 394/394/394 396/396/396 
f 397/397/397 398/398/398 399/399/399 
f 399/399/399 398/398/398 400/400/400 
f 401/401/401 402/402/402 403/403/403 
f 403/403/403 402/402/402 404/404/404 
f 405/405/405 406/406/406 407/407/407 
f 407/407/407 406/406/406 408/408/408 

g ClimbPart23

v -20.3199 8.02002 70.9239 
v -19.3199 8.02002 70.9239 
v -20.3199 8.02002 66.9239 
v -19.3199 8.02002 66.9239 

vn 0 1 0 
vn 0 1 0 
vn 0 1 0 
vn 0 1 0 

vt 0.5 1 
vt 0 1 
vt 0.5 0 
vt 0 0 

usemtl Baseplate2Mtl

f 409/409/409 410/410/410 411/411/411 
f 411/411/411 410/410/410 412/412/412 

g ClimbPart24

v -19.3199 6.98002 70.9239 
v -20.3199 6.98002 70.9239 
v -19.3199 6.98002 66.9239 
v -20.3199 6.98002 66.9239 

vn 0 -1 0 
vn 0 -1 0 
vn 0 -1 0 
vn 0 -1 0 

vt 0.5 1 
vt 0 1 
vt 0.5 0 
vt 0 0 

usemtl Baseplate3Mtl

f 413/413/413 414/414/414 415/415/415 
f 415/415/415 414/414/414 416/416/416 

g ClimbPart25

v -19.3199 4.00002 66.9239 
v -19.3199 4.00002 70.9239 
v -19.3199 3.00002 66.9239 
v -19.3199 3.00002 70.9239 
v -20.3199 4.00002 70.9239 
v -19.3199 4.00002 70.9239 
v -20.3199 4.00002 66.9239 
v -19.3199 4.00002 66.9239 
v -19.3199 4.00002 70.9239 
v -20.3199 4.00002 70.9239 
v -19.3199 3.00002 70.9239 
v -20.3199 3.00002 70.9239 
v -20.3199 4.00002 70.9239 
v -20.3199 4.00002 66.9239 
v -20.3199 3.00002 70.9239 
v -20.3199 3.00002 66.9239 
v -20.3199 3.00002 66.9239 
v -19.3199 3.00002 66.9239 
v -20.3199 3.00002 70.9239 
v -19.3199 3.00002 70.9239 
v -20.3199 4.00002 66.9239 
v -19.3199 4.00002 66.9239 
v -20.3199 3.00002 66.9239 
v -19.3199 3.00002 66.9239 

vn 1 0 0 
vn 1 0 0 
vn 1 0 0 
vn 1 0 0 
vn 0 1 0 
vn 0 1 0 
vn 0 1 0 
vn 0 1 0 
vn 0 0 1 
vn 0 0 1 
vn 0 0 1 
vn 0 0 1 
vn -1 0 0 
vn -1 0 0 
vn -1 0 0 
vn -1 0 0 
vn 0 -1 0 
vn 0 -1 0 
vn 0 -1 0 
vn 0 -1 0 
vn 0 0 -1 
vn 0 0 -1 
vn 0 0 -1 
vn 0 0 -1 

vt 3.5 -3.5 
vt 3 -3.5 
vt 3.5 -3.625 
vt 3 -3.625 
vt 3.125 -3.5 
vt 3 -3.5 
vt 3.125 -4 
vt 3 -4 
vt 3.125 -3.5 
vt 3 -3.5 
vt 3.125 -3.625 
vt 3 -3.625 
vt 3.5 -3.5 
vt 3 -3.5 
vt 3.5 -3.625 
vt 3 -3.625 
vt 3.125 -3.5 
vt 3 -3.5 
vt 3.125 -4 
vt 3 -4 
vt 3.125 -3.5 
vt 3 -3.5 
vt 3.125 -3.625 
vt 3 -3.625 

usemtl ClimbPart1Mtl

f 417/417/417 418/418/418 419/419/419 
f 419/419/419 418/418/418 420/420/420 
f 421/421/421 422/422/422 423/423/423 
f 423/423/423 422/422/422 424/424/424 
f 425/425/425 426/426/426 427/427/427 
f 427/427/427 426/426/426 428/428/428 
f 429/429/429 430/430/430 431/431/431 
f 431/431/431 430/430/430 432/432/432 
f 433/433/433 434/434/434 435/435/435 
f 435/435/435 434/434/434 436/436/436 
f 437/437/437 438/438/438 439/439/439 
f 439/439/439 438/438/438 440/440/440 

g ClimbPart26

v -20.3199 4.02002 70.9239 
v -19.3199 4.02002 70.9239 
v -20.3199 4.02002 66.9239 
v -19.3199 4.02002 66.9239 

vn 0 1 0 
vn 0 1 0 
vn 0 1 0 
vn 0 1 0 

vt 0.5 1 
vt 0 1 
vt 0.5 0 
vt 0 0 

usemtl Baseplate2Mtl

f 441/441/441 442/442/442 443/443/443 
f 443/443/443 442/442/442 444/444/444 

g ClimbPart27

v -19.3199 2.98002 70.9239 
v -20.3199 2.98002 70.9239 
v -19.3199 2.98002 66.9239 
v -20.3199 2.98002 66.9239 

vn 0 -1 0 
vn 0 -1 0 
vn 0 -1 0 
vn 0 -1 0 

vt 0.5 1 
vt 0 1 
vt 0.5 0 
vt 0 0 

usemtl Baseplate3Mtl

f 445/445/445 446/446/446 447/447/447 
f 447/447/447 446/446/446 448/448/448 

g ClimbPart28

v -19.3199 6.00002 66.9239 
v -19.3199 6.00002 70.9239 
v -19.3199 5.00002 66.9239 
v -19.3199 5.00002 70.9239 
v -20.3199 6.00002 70.9239 
v -19.3199 6.00002 70.9239 
v -20.3199 6.00002 66.9239 
v -19.3199 6.00002 66.9239 
v -19.3199 6.00002 70.9239 
v -20.3199 6.00002 70.9239 
v -19.3199 5.00002 70.9239 
v -20.3199 5.00002 70.9239 
v -20.3199 6.00002 70.9239 
v -20.3199 6.00002 66.9239 
v -20.3199 5.00002 70.9239 
v -20.3199 5.00002 66.9239 
v -20.3199 5.00002 66.9239 
v -19.3199 5.00002 66.9239 
v -20.3199 5.00002 70.9239 
v -19.3199 5.00002 70.9239 
v -20.3199 6.00002 66.9239 
v -19.3199 6.00002 66.9239 
v -20.3199 5.00002 66.9239 
v -19.3199 5.00002 66.9239 

vn 1 0 0 
vn 1 0 0 
vn 1 0 0 
vn 1 0 0 
vn 0 1 0 
vn 0 1 0 
vn 0 1 0 
vn 0 1 0 
vn 0 0 1 
vn 0 0 1 
vn 0 0 1 
vn 0 0 1 
vn -1 0 0 
vn -1 0 0 
vn -1 0 0 
vn -1 0 0 
vn 0 -1 0 
vn 0 -1 0 
vn 0 -1 0 
vn 0 -1 0 
vn 0 0 -1 
vn 0 0 -1 
vn 0 0 -1 
vn 0 0 -1 

vt 4.5 -2 
vt 4 -2 
vt 4.5 -2.125 
vt 4 -2.125 
vt 4.125 -2 
vt 4 -2 
vt 4.125 -2.5 
vt 4 -2.5 
vt 4.125 -2 
vt 4 -2 
vt 4.125 -2.125 
vt 4 -2.125 
vt 4.5 -2 
vt 4 -2 
vt 4.5 -2.125 
vt 4 -2.125 
vt 4.125 -2 
vt 4 -2 
vt 4.125 -2.5 
vt 4 -2.5 
vt 4.125 -2 
vt 4 -2 
vt 4.125 -2.125 
vt 4 -2.125 

usemtl ClimbPart1Mtl

f 449/449/449 450/450/450 451/451/451 
f 451/451/451 450/450/450 452/452/452 
f 453/453/453 454/454/454 455/455/455 
f 455/455/455 454/454/454 456/456/456 
f 457/457/457 458/458/458 459/459/459 
f 459/459/459 458/458/458 460/460/460 
f 461/461/461 462/462/462 463/463/463 
f 463/463/463 462/462/462 464/464/464 
f 465/465/465 466/466/466 467/467/467 
f 467/467/467 466/466/466 468/468/468 
f 469/469/469 470/470/470 471/471/471 
f 471/471/471 470/470/470 472/472/472 

g ClimbPart29

v -20.3199 6.02002 70.9239 
v -19.3199 6.02002 70.9239 
v -20.3199 6.02002 66.9239 
v -19.3199 6.02002 66.9239 

vn 0 1 0 
vn 0 1 0 
vn 0 1 0 
vn 0 1 0 

vt 0.5 1 
vt 0 1 
vt 0.5 0 
vt 0 0 

usemtl Baseplate2Mtl

f 473/473/473 474/474/474 475/475/475 
f 475/475/475 474/474/474 476/476/476 

g ClimbPart30

v -19.3199 4.98002 70.9239 
v -20.3199 4.98002 70.9239 
v -19.3199 4.98002 66.9239 
v -20.3199 4.98002 66.9239 

vn 0 -1 0 
vn 0 -1 0 
vn 0 -1 0 
vn 0 -1 0 

vt 0.5 1 
vt 0 1 
vt 0.5 0 
vt 0 0 

usemtl Baseplate3Mtl

f 477/477/477 478/478/478 479/479/479 
f 479/479/479 478/478/478 480/480/480 

