# This file is brought to you by Roblox Corporation
# Generated by Roblox Studio

mtllib 222.mtl

g LuckyCat1

v -1.35345 1.54692 -2.06336 
v -0.782457 2.09901 -2.07071 
v -0.780411 1.54856 -2.0612 
v -1.3555 2.09737 -2.07287 
v 0.194248 0.47371 0.674918 
v 0.205332 0.845253 0.674918 
v 0.201054 0.717205 0.836554 
v 0.194248 0.513482 0.836554 
v 0.184319 0.21631 0.295678 
v 0.194248 0.47371 0.674918 
v 0.184319 0.21631 0.674918 
v 0.20345 0.788925 0.297408 
v 0.205332 0.845253 0.674918 
v -1.08283 0.10499 -1.01797 
v -1.91366 0.849839 -1.01797 
v -1.08284 1.55095 -1.01811 
v -1.94014 1.56983 -1.01807 
v -1.94013 0.128073 -1.01797 
v -0.251727 0.849839 -1.01797 
v -0.225529 0.128073 -1.01797 
v -0.225537 1.56871 -1.01814 
v -0.229374 0.0536466 0.674918 
v 0.184319 0.21631 0.295678 
v 0.184319 0.21631 0.674918 
v -0.265093 0.00582546 0.295678 
v -1.58679 -0.214422 -0.25854 
v -1.11538 -0.214422 -0.633677 
v -1.15152 -0.214422 -0.22047 
v -1.55065 -0.214422 -0.671747 
v -0.999705 -0.214422 -0.222149 
v -0.613093 -0.214422 -0.684194 
v -0.565643 -0.214422 -0.272132 
v -1.04715 -0.214422 -0.63421 
v -1.20031 -0.214422 0.36833 
v -1.59471 -0.214422 -0.0870864 
v -1.15986 -0.214422 -0.0444774 
v -1.63516 -0.214422 0.325721 
v -1.97328 0.828224 0.696637 
v -1.9323 0.00421667 0.204597 
v -1.94013 0.0425799 0.696637 
v -1.9248 0.778207 -0.266223 
v -1.9248 -0.00736177 -0.266215 
v -1.9329 0.0312324 -0.685835 
v -1.92507 1.52485 -0.26532 
v -1.93923 1.64329 0.692257 
v -1.91366 0.849839 -1.01797 
v -1.94013 0.128073 -1.01797 
v -1.94014 1.56983 -1.01807 
v -1.93923 1.64329 0.692257 
v -1.08258 1.64909 0.695399 
v -1.08269 1.52792 -0.0603939 
v -1.92507 1.52485 -0.26532 
v -0.239532 1.53258 0.158337 
v -0.225927 1.60105 0.698542 
v -0.225537 1.56871 -1.01814 
v -1.08284 1.55095 -1.01811 
v -1.94014 1.56983 -1.01807 
v 0.201054 0.717205 0.836554 
v -0.183032 0.731508 0.836554 
v -0.189838 0.527785 0.836554 
v 0.194248 0.513482 0.836554 
v -0.233029 0.00475293 0.422531 
v -0.199317 0.828224 0.696637 
v -0.225529 0.0425799 0.696637 
v -0.240199 0.779332 0.160252 
v -0.240199 -0.00631094 0.160252 
v -0.232759 0.0312324 -0.537459 
v -0.239532 1.53258 0.158337 
v -0.225927 1.60105 0.698542 
v -0.251727 0.849839 -1.01797 
v -0.225529 0.128073 -1.01797 
v -0.225537 1.56871 -1.01814 
v -1.08283 0.00225472 0.310523 
v -0.233029 0.00475293 0.422531 
v -1.08283 0.01534 0.696637 
v -0.225529 0.0425799 0.696637 
v -1.94013 0.0425799 0.696637 
v -0.240199 -0.00631094 0.160252 
v -1.9323 0.00421667 0.204597 
v -1.08283 -0.0112003 -0.0589322 
v -0.232759 0.0312324 -0.537459 
v -1.9248 -0.00736177 -0.266215 
v -1.08283 0.0312324 -0.611647 
v -0.225529 0.128073 -1.01797 
v -1.9329 0.0312324 -0.685835 
v -1.08283 0.10499 -1.01797 
v -1.94013 0.128073 -1.01797 
v -1.94013 0.0425799 0.696637 
v -1.08283 0.01534 0.696637 
v -1.97328 0.828224 0.696637 
v -1.08258 1.64909 0.695399 
v -1.93923 1.64329 0.692257 
v -0.199317 0.828224 0.696637 
v -0.225927 1.60105 0.698542 
v -0.225529 0.0425799 0.696637 
v -0.249342 1.78858 0.692092 
v -0.50832 1.58841 0.691904 
v -0.230569 1.57423 0.691904 
v -0.309252 1.99557 0.692092 
v -0.475667 2.21182 0.692092 
v -0.50832 1.58841 0.691904 
v -0.744793 1.81387 0.692092 
v -0.786051 1.60323 0.691904 
v -0.663671 2.01365 0.692092 
v -0.475667 2.21182 0.692092 
v -1.40683 1.83283 0.687614 
v -1.65252 1.61655 0.687434 
v -1.37439 1.61893 0.687434 
v -1.47982 2.03557 0.687614 
v -1.65969 2.24077 0.687614 
v -1.65252 1.61655 0.687434 
v -1.90289 1.82647 0.687614 
v -1.93063 1.61362 0.687434 
v -1.83468 2.03102 0.687614 
v -1.65969 2.24077 0.687614 
v -0.213533 0.488012 0.674918 
v 0.184319 0.21631 0.674918 
v 0.194248 0.47371 0.674918 
v -0.229374 0.0536466 0.674918 
v -0.613093 -0.214422 -0.684194 
v -1.04715 -0.214422 -0.63421 
v -1.00949 -0.0668615 -0.605885 
v -0.643338 -0.0668615 -0.648047 
v -1.00127 0.0989417 -0.599707 
v -0.649934 0.0989417 -0.640164 
v -1.55065 -0.214422 -0.671747 
v -1.15226 -0.0668615 -0.60433 
v -1.11538 -0.214422 -0.633677 
v -1.51943 -0.0668615 -0.636443 
v -1.16031 0.0989417 -0.59793 
v -1.51262 0.0989417 -0.628744 
v -0.183032 0.731508 0.836554 
v 0.201054 0.717205 0.836554 
v 0.205332 0.845253 0.674918 
v -0.202448 0.859556 0.674918 
v -1.58679 -0.214422 -0.25854 
v -1.51943 -0.0668615 -0.636443 
v -1.55065 -0.214422 -0.671747 
v -1.54991 -0.0668615 -0.287887 
v -1.51262 0.0989417 -0.628744 
v -1.54187 0.0989417 -0.294287 
v -1.56386 -0.0668615 -0.0514592 
v -1.63516 -0.214422 0.325721 
v -1.59798 -0.0668615 0.29676 
v -1.59471 -0.214422 -0.0870864 
v -1.55713 0.0989417 -0.0436892 
v -1.58987 0.0989417 0.290444 
v -0.189838 0.527785 0.836554 
v 0.194248 0.47371 0.674918 
v 0.194248 0.513482 0.836554 
v -0.213533 0.488012 0.674918 
v -0.643338 -0.0668615 -0.648047 
v -0.603312 -0.0668615 -0.300458 
v -0.565643 -0.214422 -0.272132 
v -0.613093 -0.214422 -0.684194 
v -0.649934 0.0989417 -0.640164 
v -0.611527 0.0989417 -0.306635 
v -0.859812 1.91066 -1.51501 
v -1.3555 2.09737 -2.07287 
v -1.28634 1.90934 -1.51619 
v -0.782457 2.09901 -2.07071 
v -0.916893 1.52958 -0.994568 
v -1.23752 1.52853 -0.995206 
v -1.23047 0.00172526 0.534748 
v -1.28935 0.131005 0.899295 
v -1.23047 0.209271 0.729951 
v -1.08834 0.137656 0.598158 
v -1.28935 -0.162508 0.623235 
v -1.23047 -0.240775 0.792579 
v -1.23047 -0.0332286 0.987783 
v -1.08834 -0.16916 0.924373 
v -0.887324 -0.162508 0.623236 
v -1.28935 -0.162508 0.623235 
v -1.23047 0.00172526 0.534748 
v -1.23047 -0.240775 0.792579 
v -0.946199 0.00172526 0.534748 
v -1.08834 0.137656 0.598158 
v -0.946199 -0.240775 0.79258 
v -1.08834 -0.16916 0.924373 
v -1.59798 -0.0668615 0.29676 
v -1.20031 -0.214422 0.36833 
v -1.23117 -0.0668615 0.332703 
v -1.63516 -0.214422 0.325721 
v -1.58987 0.0989417 0.290444 
v -1.23789 0.0989417 0.324933 
v -1.37439 1.61893 0.687434 
v -1.49903 1.82032 0.478851 
v -1.40683 1.83283 0.687614 
v -1.47714 1.58313 0.408442 
v -1.54564 2.00668 0.540077 
v -1.47982 2.03557 0.687614 
v -1.65969 2.24077 0.687614 
v -1.65537 1.9837 0.429616 
v -1.6526 1.80702 0.320261 
v -1.649 1.55749 0.211064 
v -1.82412 1.58005 0.408442 
v -1.80846 1.81636 0.478851 
v -1.93063 1.61362 0.687434 
v -1.90289 1.82647 0.687614 
v -1.767 2.00384 0.540077 
v -1.83468 2.03102 0.687614 
v -0.230569 1.57423 0.691904 
v -0.342145 1.78198 0.483325 
v -0.249342 1.78858 0.692092 
v -0.335427 1.54396 0.412916 
v -0.376781 1.97093 0.544552 
v -0.309252 1.99557 0.692092 
v -0.475667 2.21182 0.692092 
v -0.487754 1.955 0.43409 
v -0.496251 1.7785 0.324736 
v -0.508612 1.52779 0.215539 
v -0.68193 1.56173 0.412916 
v -0.651201 1.79776 0.483325 
v -0.786051 1.60323 0.691904 
v -0.744793 1.81387 0.692092 
v -0.597863 1.98222 0.544552 
v -0.663671 2.01365 0.692092 
v -1.3555 2.09737 -2.07287 
v -1.28494 1.5513 -1.65263 
v -1.28634 1.90934 -1.51619 
v -1.35345 1.54692 -2.06336 
v -1.23752 1.52853 -0.995206 
v -1.23815 1.14802 -0.996646 
v -1.28935 0.131005 0.899295 
v -0.887324 0.131005 0.899295 
v -0.946199 0.209271 0.729951 
v -1.23047 0.209271 0.729951 
v -1.08834 0.137656 0.598158 
v -1.23047 -0.0332286 0.987783 
v -0.946199 -0.0332294 0.987783 
v -1.08834 -0.16916 0.924373 
v -0.946199 0.00172526 0.534748 
v -0.946199 0.209271 0.729951 
v -0.887324 0.131005 0.899295 
v -1.08834 0.137656 0.598158 
v -0.887324 -0.162508 0.623236 
v -0.946199 -0.0332294 0.987783 
v -0.946199 -0.240775 0.79258 
v -1.08834 -0.16916 0.924373 
v 0.205332 0.845253 0.674918 
v 0.20345 0.788925 0.297408 
v -0.202448 0.859556 0.674918 
v -0.24005 0.803228 0.297408 
v -1.59471 -0.214422 -0.0870864 
v -1.19705 -0.0668615 -0.0155162 
v -1.15986 -0.214422 -0.0444774 
v -1.56386 -0.0668615 -0.0514592 
v -1.20515 0.0989417 -0.00920039 
v -1.55713 0.0989417 -0.0436892 
v -0.858418 1.55262 -1.65144 
v -0.782457 2.09901 -2.07071 
v -0.859812 1.91066 -1.51501 
v -0.780411 1.54856 -2.0612 
v -0.916893 1.52958 -0.994568 
v -0.917523 1.14907 -0.996008 
v -0.858418 1.55262 -1.65144 
v -1.28494 1.5513 -1.65263 
v -1.35345 1.54692 -2.06336 
v -0.780411 1.54856 -2.0612 
v -0.917523 1.14907 -0.996008 
v -1.23815 1.14802 -0.996646 
v -0.969459 -0.0668615 -0.258294 
v -1.04715 -0.214422 -0.63421 
v -0.999705 -0.214422 -0.222149 
v -1.00949 -0.0668615 -0.605885 
v -0.962864 0.0989417 -0.266177 
v -1.00127 0.0989417 -0.599707 
v 0.184319 0.21631 0.295678 
v -0.265093 0.00582546 0.295678 
v -0.24005 0.803228 0.297408 
v 0.20345 0.788925 0.297408 
v -1.20031 -0.214422 0.36833 
v -1.15986 -0.214422 -0.0444774 
v -1.23117 -0.0668615 0.332703 
v -1.19705 -0.0668615 -0.0155162 
v -1.23789 0.0989417 0.324933 
v -1.20515 0.0989417 -0.00920039 
v -1.18275 -0.0668615 -0.255774 
v -1.11538 -0.214422 -0.633677 
v -1.15226 -0.0668615 -0.60433 
v -1.15152 -0.214422 -0.22047 
v -1.18956 0.0989417 -0.263473 
v -1.16031 0.0989417 -0.59793 
v -1.54991 -0.0668615 -0.287887 
v -1.15152 -0.214422 -0.22047 
v -1.18275 -0.0668615 -0.255774 
v -1.58679 -0.214422 -0.25854 
v -1.54187 0.0989417 -0.294287 
v -1.18956 0.0989417 -0.263473 
v -0.603312 -0.0668615 -0.300458 
v -0.969459 -0.0668615 -0.258294 
v -0.999705 -0.214422 -0.222149 
v -0.565643 -0.214422 -0.272132 
v -0.611527 0.0989417 -0.306635 
v -0.962864 0.0989417 -0.266177 
v -0.213533 0.488012 0.674918 
v -0.183032 0.731508 0.836554 
v -0.202448 0.859556 0.674918 
v -0.189838 0.527785 0.836554 

vn 0 -0.015748 -1 
vn 0 -0.015748 -1 
vn 0 -0.015748 -1 
vn 0 -0.015748 -1 
vn 1 -0.0314961 0.00787402 
vn 1 -0.0314961 0.00787402 
vn 1 -0.0314961 0.00787402 
vn 1 -0.0314961 0.00787402 
vn 1 -0.0314961 0 
vn 1 -0.0314961 0 
vn 1 -0.0314961 0 
vn 1 -0.0314961 0 
vn 1 -0.0314961 0 
vn 0 0 -1 
vn 0 0 -1 
vn 0 0 -1 
vn 0 0 -1 
vn 0 0 -1 
vn 0 0 -1 
vn 0 0 -1 
vn 0 0 -1 
vn 0.393701 -0.913386 0.0393701 
vn 0.393701 -0.913386 0.0393701 
vn 0.393701 -0.913386 0.0393701 
vn 0.393701 -0.913386 0.0393701 
vn 0 -1 0 
vn 0 -1 0 
vn 0 -1 0 
vn 0 -1 0 
vn 0 -1 0 
vn 0 -1 0 
vn 0 -1 0 
vn 0 -1 0 
vn 0 -1 0 
vn 0 -1 0 
vn 0 -1 0 
vn 0 -1 0 
vn -1 0 -0.0393701 
vn -1 -0.015748 -0.023622 
vn -1 -0.0314961 -0.0393701 
vn -1 0 -0.015748 
vn -1 0 0 
vn -1 0.00787402 0.00787402 
vn -1 0.00787402 -0.023622 
vn -1 0.023622 -0.0314961 
vn -1 0 0 
vn -1 0.023622 0 
vn -1 -0.015748 0 
vn 0.00787402 0.992126 -0.141732 
vn 0.023622 0.992126 -0.141732 
vn 0.00787402 1 -0.0472441 
vn 0.00787402 1 -0.0393701 
vn 0.00787402 1 -0.0551181 
vn 0.0472441 0.992126 -0.141732 
vn -0.015748 1 0.0314961 
vn -0.00787402 1 0.0314961 
vn 0.00787402 1 0.0393701 
vn 0 0 1 
vn 0 0 1 
vn 0 0 1 
vn 0 0 1 
vn 1 -0.00787402 -0.0393701 
vn 1 0 -0.0551181 
vn 1 -0.023622 -0.0551181 
vn 1 0 -0.00787402 
vn 1 0 0 
vn 1 0.00787402 0.00787402 
vn 1 -0.00787402 -0.015748 
vn 1 0.015748 -0.0551181 
vn 1 0 0 
vn 1 0.023622 0 
vn 1 -0.015748 0 
vn -0.00787402 -1 0.0472441 
vn 0.00787402 -1 0.0629921 
vn -0.00787402 -1 0.0629921 
vn 0.015748 -1 0.0787402 
vn -0.023622 -1 0.0551181 
vn 0.00787402 -1 -0.023622 
vn -0.015748 -1 0.0472441 
vn 0.00787402 -1 -0.0314961 
vn 0.015748 -0.992126 -0.110236 
vn 0 -1 -0.0393701 
vn 0.015748 -0.992126 -0.125984 
vn 0.023622 -0.984252 -0.188976 
vn 0.00787402 -0.992126 -0.149606 
vn 0.00787402 -0.976378 -0.204724 
vn 0 -0.976378 -0.228346 
vn 0 0 1 
vn 0 0 1 
vn 0 0 1 
vn 0 0 1 
vn 0 0 1 
vn 0 0 1 
vn 0 0 1 
vn 0 0 1 
vn 0 0 1 
vn 0 0 1 
vn 0 0 1 
vn 0 0 1 
vn 0 0 1 
vn 0 0 1 
vn 0 0 1 
vn 0 0 1 
vn 0 0 1 
vn 0 0 1 
vn 0 0 1 
vn 0 0 1 
vn 0 0 1 
vn 0 0 1 
vn 0 0 1 
vn 0 0 1 
vn 0 0 1 
vn 0 0 1 
vn 0 0 1 
vn 0 0 1 
vn 0 0 1 
vn 0 0 1 
vn 0 0 1 
vn 0 0 1 
vn -0.110236 0.212598 -0.968504 
vn -0.110236 0.212598 -0.968504 
vn -0.110236 0.133858 -0.984252 
vn -0.110236 0.133858 -0.984252 
vn -0.11811 0.0393701 -0.992126 
vn -0.11811 0.0393701 -0.992126 
vn 0.0866142 0.212598 -0.976378 
vn 0.0866142 0.133858 -0.984252 
vn 0.0866142 0.212598 -0.976378 
vn 0.0866142 0.133858 -0.984252 
vn 0.0866142 0.0393701 -0.992126 
vn 0.0866142 0.0393701 -0.992126 
vn 0.0314961 0.787402 0.622047 
vn 0.0314961 0.787402 0.622047 
vn 0.0314961 0.787402 0.622047 
vn 0.0314961 0.787402 0.622047 
vn -0.968504 0.228346 -0.0866142 
vn -0.984252 0.141732 -0.0866142 
vn -0.968504 0.228346 -0.0866142 
vn -0.984252 0.141732 -0.0866142 
vn -0.992126 0.0472441 -0.0866142 
vn -0.992126 0.0472441 -0.0866142 
vn -0.984252 0.141732 -0.0944882 
vn -0.968504 0.228346 -0.0944882 
vn -0.984252 0.141732 -0.0944882 
vn -0.968504 0.228346 -0.0944882 
vn -0.992126 0.0472441 -0.0944882 
vn -0.992126 0.0472441 -0.0944882 
vn -0.0314961 -0.968504 0.244094 
vn -0.0314961 -0.968504 0.244094 
vn -0.0314961 -0.968504 0.244094 
vn -0.0314961 -0.968504 0.244094 
vn 0.984252 0.141732 -0.110236 
vn 0.984252 0.141732 -0.110236 
vn 0.968504 0.228346 -0.110236 
vn 0.968504 0.228346 -0.110236 
vn 0.992126 0.0472441 -0.11811 
vn 0.992126 0.0472441 -0.11811 
vn -0.00787402 0.897638 0.440945 
vn 0 0.944882 0.322835 
vn -0.00787402 0.897638 0.440945 
vn 0 0.944882 0.322835 
vn -0.00787402 0.80315 0.590551 
vn -0.00787402 0.80315 0.590551 
vn -0.708661 0.488189 -0.511811 
vn -1 0 0 
vn -0.708661 0.488189 -0.511811 
vn -0.314961 0.653543 -0.692913 
vn -1 0 0 
vn -0.708661 -0.488189 0.511811 
vn -0.708661 -0.488189 0.511811 
vn -0.314961 -0.653543 0.692913 
vn 0 -0.732283 -0.685039 
vn 0 -0.732283 -0.685039 
vn 0 -0.0314961 -1 
vn 0 -1 0.0314961 
vn 0 -0.0314961 -1 
vn 0 0.425197 -0.905512 
vn 0 -1 0.0314961 
vn 0 -0.88189 0.480315 
vn -0.0944882 0.133858 0.984252 
vn -0.0944882 0.212598 0.968504 
vn -0.0944882 0.133858 0.984252 
vn -0.0944882 0.212598 0.968504 
vn -0.0944882 0.0393701 0.992126 
vn -0.0944882 0.0393701 0.992126 
vn 0.905512 0.165354 -0.377953 
vn 0.787402 0.299213 -0.543307 
vn 0.88189 0.251969 -0.401575 
vn 0.818898 0.228346 -0.535433 
vn 0.677165 0.496063 -0.543307 
vn 0.779528 0.464567 -0.425197 
vn -0.00787402 0.755906 -0.653543 
vn -0.00787402 0.614173 -0.787402 
vn 0 0.440945 -0.897638 
vn 0 0.377953 -0.929134 
vn -0.818898 0.212598 -0.535433 
vn -0.787402 0.283465 -0.551181 
vn -0.913386 0.149606 -0.385827 
vn -0.88189 0.228346 -0.409449 
vn -0.685039 0.480315 -0.543307 
vn -0.787402 0.448819 -0.425197 
vn 0.92126 0.110236 -0.377953 
vn 0.80315 0.251969 -0.543307 
vn 0.897638 0.188976 -0.401575 
vn 0.826772 0.173228 -0.535433 
vn 0.708661 0.456693 -0.543307 
vn 0.80315 0.417323 -0.425197 
vn 0.0393701 0.755906 -0.653543 
vn 0.0314961 0.614173 -0.787402 
vn 0.023622 0.440945 -0.897638 
vn 0.023622 0.377953 -0.929134 
vn -0.80315 0.259843 -0.535433 
vn -0.771654 0.330709 -0.551181 
vn -0.897638 0.204724 -0.385827 
vn -0.866142 0.283465 -0.409449 
vn -0.653543 0.519685 -0.543307 
vn -0.755906 0.496063 -0.425197 
vn -0.992126 -0.023622 0.133858 
vn -0.992126 -0.015748 0.102362 
vn -0.992126 -0.015748 0.102362 
vn -0.992126 -0.023622 0.133858 
vn -1 -0.015748 0.0708661 
vn -1 -0.015748 0.0708661 
vn 0 0.732283 0.685039 
vn 0 0.732283 0.685039 
vn 0 1 -0.0314961 
vn 0 1 -0.0314961 
vn 0 0.88189 -0.480315 
vn 0 0.0314961 1 
vn 0 0.0314961 1 
vn 0 -0.425197 0.905512 
vn 0.708661 0.488189 -0.511811 
vn 0.708661 0.488189 -0.511811 
vn 1 0 0 
vn 0.314961 0.653543 -0.692913 
vn 1 0 0 
vn 0.708661 -0.488189 0.511811 
vn 0.708661 -0.488189 0.511811 
vn 0.314961 -0.653543 0.692913 
vn 0.0314961 0.992126 -0.149606 
vn 0.0314961 0.992126 -0.149606 
vn 0.0314961 0.992126 -0.149606 
vn 0.0314961 0.992126 -0.149606 
vn 0.0944882 0.212598 -0.968504 
vn 0.0944882 0.133858 -0.984252 
vn 0.0944882 0.212598 -0.968504 
vn 0.0944882 0.133858 -0.984252 
vn 0.0944882 0.0393701 -0.992126 
vn 0.0944882 0.0393701 -0.992126 
vn 0.992126 -0.015748 0.125984 
vn 0.984252 -0.015748 0.15748 
vn 0.992126 -0.015748 0.125984 
vn 0.984252 -0.015748 0.15748 
vn 0.992126 -0.015748 0.0866142 
vn 0.992126 -0.015748 0.0866142 
vn 0 -0.952756 -0.291339 
vn 0 -0.952756 -0.291339 
vn 0 -1 0.00787402 
vn 0 -1 0.00787402 
vn 0.00787402 -0.850394 -0.527559 
vn 0.00787402 -0.850394 -0.527559 
vn -0.984252 0.141732 0.110236 
vn -0.968504 0.228346 0.110236 
vn -0.968504 0.228346 0.110236 
vn -0.984252 0.141732 0.110236 
vn -0.992126 0.0472441 0.11811 
vn -0.992126 0.0472441 0.11811 
vn 0 0 -1 
vn 0 0 -1 
vn 0 0 -1 
vn 0 0 -1 
vn 0.968504 0.228346 0.0944882 
vn 0.968504 0.228346 0.0944882 
vn 0.984252 0.141732 0.0944882 
vn 0.984252 0.141732 0.0944882 
vn 0.992126 0.0472441 0.0944882 
vn 0.992126 0.0472441 0.0944882 
vn 0.984252 0.141732 0.0866142 
vn 0.968504 0.228346 0.0866142 
vn 0.984252 0.141732 0.0866142 
vn 0.968504 0.228346 0.0866142 
vn 0.992126 0.0472441 0.0866142 
vn 0.992126 0.0472441 0.0866142 
vn -0.0866142 0.133858 0.984252 
vn -0.0866142 0.212598 0.976378 
vn -0.0866142 0.133858 0.984252 
vn -0.0866142 0.212598 0.976378 
vn -0.0866142 0.0393701 0.992126 
vn -0.0866142 0.0393701 0.992126 
vn 0.110236 0.133858 0.984252 
vn 0.110236 0.133858 0.984252 
vn 0.110236 0.212598 0.968504 
vn 0.110236 0.212598 0.968504 
vn 0.11811 0.0393701 0.992126 
vn 0.11811 0.0393701 0.992126 
vn -0.992126 0.0314961 0.141732 
vn -0.992126 0.0314961 0.141732 
vn -0.992126 0.0314961 0.141732 
vn -0.992126 0.0314961 0.141732 

vt 0.719214 0.732601 
vt 0.818301 0.637872 
vt 0.81871 0.732208 
vt 0.718506 0.638443 
vt 0.516757 0.549548 
vt 0.517016 0.49583 
vt 0.540286 0.514458 
vt 0.540145 0.543916 
vt 0.461771 0.586509 
vt 0.516757 0.549548 
vt 0.516577 0.586774 
vt 0.462421 0.503712 
vt 0.517016 0.49583 
vt 0.707272 0.182523 
vt 0.851696 0.019612 
vt 0.989469 0.182357 
vt 0.992848 0.014168 
vt 0.709917 0.015226 
vt 0.851785 0.345268 
vt 0.710056 0.349963 
vt 0.992703 0.350493 
vt 0.516266 0.651015 
vt 0.461771 0.586509 
vt 0.516577 0.586774 
vt 0.461255 0.658226 
vt 0.837132 0.822773 
vt 0.764999 0.906469 
vt 0.75606 0.830442 
vt 0.843706 0.899021 
vt 0.75606 0.830442 
vt 0.843706 0.899021 
vt 0.837132 0.822773 
vt 0.764999 0.906469 
vt 0.764999 0.906469 
vt 0.837132 0.822773 
vt 0.75606 0.830442 
vt 0.843706 0.899021 
vt 0.355903 0.171636 
vt 0.254673 0.012641 
vt 0.351848 0.017046 
vt 0.165985 0.169129 
vt 0.162319 0.013066 
vt 0.080291 0.022033 
vt 0.169237 0.320271 
vt 0.362213 0.330025 
vt 0.018462 0.183941 
vt 0.014968 0.042101 
vt 0.017859 0.323063 
vt 0.362213 0.330025 
vt 0.356964 0.496741 
vt 0.205935 0.491441 
vt 0.169237 0.320271 
vt 0.245218 0.659681 
vt 0.352497 0.665405 
vt 0.013892 0.658002 
vt 0.017666 0.48936 
vt 0.017859 0.323063 
vt 0.463042 0.418745 
vt 0.407497 0.418424 
vt 0.40778 0.388967 
vt 0.463325 0.389288 
vt 0.399182 0.672452 
vt 0.347865 0.831212 
vt 0.346049 0.680053 
vt 0.450833 0.822082 
vt 0.449993 0.670323 
vt 0.585023 0.677583 
vt 0.449837 0.967866 
vt 0.34442 0.979749 
vt 0.677959 0.835995 
vt 0.677831 0.696274 
vt 0.677702 0.975151 
vt 0.446358 0.183287 
vt 0.425227 0.34988 
vt 0.37072 0.183478 
vt 0.371095 0.351656 
vt 0.370517 0.015319 
vt 0.47667 0.348276 
vt 0.467107 0.016848 
vt 0.518679 0.183061 
vt 0.613751 0.349159 
vt 0.559311 0.018068 
vt 0.626817 0.182752 
vt 0.710056 0.349963 
vt 0.64196 0.016368 
vt 0.707272 0.182523 
vt 0.709917 0.015226 
vt 0.014233 0.677588 
vt 0.179778 0.673126 
vt 0.006941 0.829242 
vt 0.17801 0.988948 
vt 0.012408 0.986674 
vt 0.347865 0.831212 
vt 0.34442 0.979749 
vt 0.346049 0.680053 
vt 0.937933 0.889833 
vt 0.978384 0.841331 
vt 0.979091 0.895087 
vt 0.897526 0.876395 
vt 0.857726 0.843032 
vt 0.978384 0.841331 
vt 0.935742 0.794132 
vt 0.977784 0.78757 
vt 0.896719 0.808695 
vt 0.857726 0.843032 
vt 0.935742 0.794132 
vt 0.978384 0.841331 
vt 0.977784 0.78757 
vt 0.896719 0.808695 
vt 0.857726 0.843032 
vt 0.978384 0.841331 
vt 0.937933 0.889833 
vt 0.979091 0.895087 
vt 0.897526 0.876395 
vt 0.857726 0.843032 
vt 0.575723 0.550039 
vt 0.516577 0.586774 
vt 0.516757 0.549548 
vt 0.575287 0.612853 
vt 0.843706 0.899021 
vt 0.764999 0.906469 
vt 0.772056 0.934006 
vt 0.842368 0.927162 
vt 0.778235 0.964213 
vt 0.841945 0.957647 
vt 0.843706 0.899021 
vt 0.772056 0.934006 
vt 0.764999 0.906469 
vt 0.842368 0.927162 
vt 0.778235 0.964213 
vt 0.841945 0.957647 
vt 0.407497 0.418424 
vt 0.463042 0.418745 
vt 0.462799 0.448551 
vt 0.403833 0.448132 
vt 0.915509 0.909539 
vt 0.842368 0.927162 
vt 0.843706 0.899021 
vt 0.907472 0.936469 
vt 0.841945 0.957647 
vt 0.899863 0.966171 
vt 0.907472 0.936469 
vt 0.843706 0.899021 
vt 0.842368 0.927162 
vt 0.915509 0.909539 
vt 0.899863 0.966171 
vt 0.841945 0.957647 
vt 0.40778 0.388967 
vt 0.463677 0.365234 
vt 0.463325 0.389288 
vt 0.404711 0.364863 
vt 0.842368 0.927162 
vt 0.907472 0.936469 
vt 0.915509 0.909539 
vt 0.843706 0.899021 
vt 0.841945 0.957647 
vt 0.899863 0.966171 
vt 0.806892 0.537314 
vt 0.718506 0.638443 
vt 0.733581 0.539209 
vt 0.818301 0.637872 
vt 0.792943 0.429606 
vt 0.735974 0.430222 
vt 0.559683 0.396338 
vt 0.59111 0.421134 
vt 0.559683 0.427765 
vt 0.528257 0.412052 
vt 0.59111 0.391452 
vt 0.622536 0.396338 
vt 0.622536 0.427765 
vt 0.653963 0.412052 
vt 0.59111 0.364912 
vt 0.59111 0.391452 
vt 0.559683 0.396338 
vt 0.622536 0.396338 
vt 0.559683 0.364912 
vt 0.528257 0.380625 
vt 0.622536 0.364912 
vt 0.653963 0.380625 
vt 0.842368 0.927162 
vt 0.764999 0.906469 
vt 0.772056 0.934006 
vt 0.843706 0.899021 
vt 0.841945 0.957647 
vt 0.778235 0.964213 
vt 0.941349 0.61945 
vt 0.920733 0.674785 
vt 0.960399 0.656201 
vt 0.885272 0.64247 
vt 0.945987 0.70485 
vt 0.975835 0.696776 
vt 0.978076 0.752453 
vt 0.919385 0.718626 
vt 0.88552 0.699102 
vt 0.841831 0.67393 
vt 0.836604 0.727711 
vt 0.882136 0.742036 
vt 0.844573 0.787802 
vt 0.886008 0.785834 
vt 0.920818 0.748708 
vt 0.92884 0.778671 
vt 0.693678 0.834982 
vt 0.71462 0.809466 
vt 0.716779 0.833885 
vt 0.689235 0.80148 
vt 0.736187 0.813186 
vt 0.740659 0.829891 
vt 0.76811 0.815274 
vt 0.735388 0.796414 
vt 0.716507 0.785529 
vt 0.692149 0.771495 
vt 0.716369 0.753955 
vt 0.736139 0.771972 
vt 0.747633 0.741121 
vt 0.758254 0.761611 
vt 0.750219 0.788734 
vt 0.767 0.784226 
vt 0.718506 0.638443 
vt 0.669648 0.525928 
vt 0.733581 0.539209 
vt 0.634725 0.589777 
vt 0.735974 0.430222 
vt 0.682118 0.392269 
vt 0.59111 0.421134 
vt 0.59111 0.451862 
vt 0.559683 0.454654 
vt 0.559683 0.427765 
vt 0.528257 0.443478 
vt 0.622536 0.427765 
vt 0.622536 0.459192 
vt 0.653963 0.443478 
vt 0.559683 0.490618 
vt 0.559683 0.454654 
vt 0.59111 0.451862 
vt 0.528257 0.474905 
vt 0.59111 0.490618 
vt 0.622536 0.459192 
vt 0.622536 0.490618 
vt 0.653963 0.474905 
vt 0.462799 0.448551 
vt 0.462421 0.503712 
vt 0.403833 0.448132 
vt 0.398295 0.503283 
vt 0.915509 0.909539 
vt 0.972189 0.96415 
vt 0.989224 0.941098 
vt 0.907472 0.936469 
vt 0.959917 0.991913 
vt 0.899863 0.966171 
vt 0.870668 0.522118 
vt 0.818301 0.637872 
vt 0.806892 0.537314 
vt 0.899519 0.590496 
vt 0.792943 0.429606 
vt 0.839791 0.385722 
vt 0.870668 0.522118 
vt 0.939122 0.491857 
vt 0.983826 0.547695 
vt 0.899519 0.590496 
vt 0.839791 0.385722 
vt 0.892055 0.368017 
vt 0.709824 0.955603 
vt 0.764999 0.906469 
vt 0.694376 0.931835 
vt 0.772056 0.934006 
vt 0.720616 0.984291 
vt 0.778235 0.964213 
vt 0.461771 0.586509 
vt 0.397621 0.618577 
vt 0.398295 0.503283 
vt 0.462421 0.503712 
vt 0.764999 0.906469 
vt 0.694376 0.931835 
vt 0.772056 0.934006 
vt 0.709824 0.955603 
vt 0.778235 0.964213 
vt 0.720616 0.984291 
vt 0.709824 0.955603 
vt 0.764999 0.906469 
vt 0.772056 0.934006 
vt 0.694376 0.931835 
vt 0.720616 0.984291 
vt 0.778235 0.964213 
vt 0.907472 0.936469 
vt 0.989224 0.941098 
vt 0.972189 0.96415 
vt 0.915509 0.909539 
vt 0.899863 0.966171 
vt 0.959917 0.991913 
vt 0.907472 0.936469 
vt 0.972189 0.96415 
vt 0.989224 0.941098 
vt 0.915509 0.909539 
vt 0.899863 0.966171 
vt 0.959917 0.991913 
vt 0.384255 0.382882 
vt 0.407497 0.418424 
vt 0.383713 0.436598 
vt 0.40778 0.388967 

usemtl LuckyCat1Mtl

f 1/1/1 2/2/2 3/3/3 
f 2/2/2 1/1/1 4/4/4 
f 5/5/5 6/6/6 7/7/7 
f 5/5/5 7/7/7 8/8/8 
f 9/9/9 10/10/10 11/11/11 
f 10/10/10 9/9/9 12/12/12 
f 10/10/10 12/12/12 13/13/13 
f 14/14/14 15/15/15 16/16/16 
f 15/15/15 17/17/17 16/16/16 
f 15/15/15 14/14/14 18/18/18 
f 19/19/19 14/14/14 16/16/16 
f 14/14/14 19/19/19 20/20/20 
f 19/19/19 16/16/16 21/21/21 
f 22/22/22 23/23/23 24/24/24 
f 23/23/23 22/22/22 25/25/25 
f 26/26/26 27/27/27 28/28/28 
f 27/27/27 26/26/26 29/29/29 
f 30/30/30 31/31/31 32/32/32 
f 31/31/31 30/30/30 33/33/33 
f 34/34/34 35/35/35 36/36/36 
f 35/35/35 34/34/34 37/37/37 
f 38/38/38 39/39/39 40/40/40 
f 39/39/39 38/38/38 41/41/41 
f 39/39/39 41/41/41 42/42/42 
f 43/43/43 42/42/42 41/41/41 
f 38/38/38 44/44/44 41/41/41 
f 38/38/38 45/45/45 44/44/44 
f 43/43/43 41/41/41 46/46/46 
f 44/44/44 46/46/46 41/41/41 
f 43/43/43 46/46/46 47/47/47 
f 46/46/46 44/44/44 48/48/48 
f 49/49/49 50/50/50 51/51/51 
f 49/49/49 51/51/51 52/52/52 
f 50/50/50 53/53/53 51/51/51 
f 50/50/50 54/54/54 53/53/53 
f 53/53/53 55/55/55 51/51/51 
f 51/51/51 55/55/55 56/56/56 
f 51/51/51 56/56/56 52/52/52 
f 52/52/52 56/56/56 57/57/57 
f 58/58/58 59/59/59 60/60/60 
f 58/58/58 60/60/60 61/61/61 
f 62/62/62 63/63/63 64/64/64 
f 63/63/63 62/62/62 65/65/65 
f 62/62/62 66/66/66 65/65/65 
f 67/67/67 65/65/65 66/66/66 
f 68/68/68 63/63/63 65/65/65 
f 63/63/63 68/68/68 69/69/69 
f 65/65/65 67/67/67 70/70/70 
f 65/65/65 70/70/70 68/68/68 
f 67/67/67 71/71/71 70/70/70 
f 68/68/68 70/70/70 72/72/72 
f 73/73/73 74/74/74 75/75/75 
f 76/76/76 75/75/75 74/74/74 
f 75/75/75 77/77/77 73/73/73 
f 74/74/74 73/73/73 78/78/78 
f 79/79/79 73/73/73 77/77/77 
f 80/80/80 78/78/78 73/73/73 
f 73/73/73 79/79/79 80/80/80 
f 78/78/78 80/80/80 81/81/81 
f 82/82/82 80/80/80 79/79/79 
f 80/80/80 83/83/83 81/81/81 
f 80/80/80 82/82/82 83/83/83 
f 81/81/81 83/83/83 84/84/84 
f 85/85/85 83/83/83 82/82/82 
f 86/86/86 84/84/84 83/83/83 
f 83/83/83 85/85/85 86/86/86 
f 87/87/87 86/86/86 85/85/85 
f 88/88/88 89/89/89 90/90/90 
f 91/91/91 90/90/90 89/89/89 
f 90/90/90 91/91/91 92/92/92 
f 93/93/93 91/91/91 89/89/89 
f 91/91/91 93/93/93 94/94/94 
f 89/89/89 95/95/95 93/93/93 
f 96/96/96 97/97/97 98/98/98 
f 99/99/99 97/97/97 96/96/96 
f 100/100/100 97/97/97 99/99/99 
f 101/101/101 102/102/102 103/103/103 
f 101/101/101 104/104/104 102/102/102 
f 101/101/101 105/105/105 104/104/104 
f 106/106/106 107/107/107 108/108/108 
f 109/109/109 107/107/107 106/106/106 
f 110/110/110 107/107/107 109/109/109 
f 111/111/111 112/112/112 113/113/113 
f 111/111/111 114/114/114 112/112/112 
f 111/111/111 115/115/115 114/114/114 
f 116/116/116 117/117/117 118/118/118 
f 117/117/117 116/116/116 119/119/119 
f 120/120/120 121/121/121 122/122/122 
f 120/120/120 122/122/122 123/123/123 
f 123/123/123 122/122/122 124/124/124 
f 123/123/123 124/124/124 125/125/125 
f 126/126/126 127/127/127 128/128/128 
f 127/127/127 126/126/126 129/129/129 
f 129/129/129 130/130/130 127/127/127 
f 130/130/130 129/129/129 131/131/131 
f 132/132/132 133/133/133 134/134/134 
f 132/132/132 134/134/134 135/135/135 
f 136/136/136 137/137/137 138/138/138 
f 137/137/137 136/136/136 139/139/139 
f 139/139/139 140/140/140 137/137/137 
f 140/140/140 139/139/139 141/141/141 
f 142/142/142 143/143/143 144/144/144 
f 143/143/143 142/142/142 145/145/145 
f 144/144/144 146/146/146 142/142/142 
f 146/146/146 144/144/144 147/147/147 
f 148/148/148 149/149/149 150/150/150 
f 149/149/149 148/148/148 151/151/151 
f 152/152/152 153/153/153 154/154/154 
f 154/154/154 155/155/155 152/152/152 
f 153/153/153 152/152/152 156/156/156 
f 156/156/156 157/157/157 153/153/153 
f 158/158/158 159/159/159 160/160/160 
f 159/159/159 158/158/158 161/161/161 
f 160/160/160 162/162/162 158/158/158 
f 162/162/162 160/160/160 163/163/163 
f 164/164/164 165/165/165 166/166/166 
f 164/164/164 166/166/166 167/167/167 
f 165/165/165 164/164/164 168/168/168 
f 169/169/169 165/165/165 168/168/168 
f 165/165/165 169/169/169 170/170/170 
f 170/170/170 169/169/169 171/171/171 
f 172/172/172 173/173/173 174/174/174 
f 172/172/172 175/175/175 173/173/173 
f 172/172/172 174/174/174 176/176/176 
f 176/176/176 174/174/174 177/177/177 
f 175/175/175 172/172/172 178/178/178 
f 175/175/175 178/178/178 179/179/179 
f 180/180/180 181/181/181 182/182/182 
f 181/181/181 180/180/180 183/183/183 
f 182/182/182 184/184/184 180/180/180 
f 184/184/184 182/182/182 185/185/185 
f 186/186/186 187/187/187 188/188/188 
f 187/187/187 186/186/186 189/189/189 
f 188/188/188 187/187/187 190/190/190 
f 191/191/191 188/188/188 190/190/190 
f 190/190/190 192/192/192 191/191/191 
f 187/187/187 193/193/193 190/190/190 
f 192/192/192 190/190/190 193/193/193 
f 189/189/189 194/194/194 187/187/187 
f 187/187/187 194/194/194 193/193/193 
f 194/194/194 189/189/189 195/195/195 
f 196/196/196 194/194/194 195/195/195 
f 196/196/196 197/197/197 194/194/194 
f 194/194/194 197/197/197 193/193/193 
f 198/198/198 197/197/197 196/196/196 
f 198/198/198 199/199/199 197/197/197 
f 197/197/197 200/200/200 193/193/193 
f 199/199/199 200/200/200 197/197/197 
f 200/200/200 192/192/192 193/193/193 
f 199/199/199 201/201/201 200/200/200 
f 192/192/192 200/200/200 201/201/201 
f 202/202/202 203/203/203 204/204/204 
f 203/203/203 202/202/202 205/205/205 
f 204/204/204 203/203/203 206/206/206 
f 207/207/207 204/204/204 206/206/206 
f 206/206/206 208/208/208 207/207/207 
f 203/203/203 209/209/209 206/206/206 
f 208/208/208 206/206/206 209/209/209 
f 205/205/205 210/210/210 203/203/203 
f 203/203/203 210/210/210 209/209/209 
f 210/210/210 205/205/205 211/211/211 
f 212/212/212 210/210/210 211/211/211 
f 212/212/212 213/213/213 210/210/210 
f 210/210/210 213/213/213 209/209/209 
f 213/213/213 212/212/212 214/214/214 
f 214/214/214 215/215/215 213/213/213 
f 213/213/213 216/216/216 209/209/209 
f 215/215/215 216/216/216 213/213/213 
f 216/216/216 208/208/208 209/209/209 
f 215/215/215 217/217/217 216/216/216 
f 208/208/208 216/216/216 217/217/217 
f 218/218/218 219/219/219 220/220/220 
f 219/219/219 218/218/218 221/221/221 
f 219/219/219 222/222/222 220/220/220 
f 222/222/222 219/219/219 223/223/223 
f 224/224/224 225/225/225 226/226/226 
f 224/224/224 226/226/226 227/227/227 
f 227/227/227 226/226/226 228/228/228 
f 225/225/225 224/224/224 229/229/229 
f 225/225/225 229/229/229 230/230/230 
f 230/230/230 229/229/229 231/231/231 
f 232/232/232 233/233/233 234/234/234 
f 233/233/233 232/232/232 235/235/235 
f 232/232/232 234/234/234 236/236/236 
f 236/236/236 234/234/234 237/237/237 
f 236/236/236 237/237/237 238/238/238 
f 238/238/238 237/237/237 239/239/239 
f 240/240/240 241/241/241 242/242/242 
f 242/242/242 241/241/241 243/243/243 
f 244/244/244 245/245/245 246/246/246 
f 245/245/245 244/244/244 247/247/247 
f 247/247/247 248/248/248 245/245/245 
f 248/248/248 247/247/247 249/249/249 
f 250/250/250 251/251/251 252/252/252 
f 251/251/251 250/250/250 253/253/253 
f 252/252/252 254/254/254 250/250/250 
f 255/255/255 250/250/250 254/254/254 
f 256/256/256 257/257/257 258/258/258 
f 258/258/258 259/259/259 256/256/256 
f 260/260/260 257/257/257 256/256/256 
f 261/261/261 257/257/257 260/260/260 
f 262/262/262 263/263/263 264/264/264 
f 263/263/263 262/262/262 265/265/265 
f 266/266/266 265/265/265 262/262/262 
f 265/265/265 266/266/266 267/267/267 
f 268/268/268 269/269/269 270/270/270 
f 268/268/268 270/270/270 271/271/271 
f 272/272/272 273/273/273 274/274/274 
f 274/274/274 273/273/273 275/275/275 
f 274/274/274 275/275/275 276/276/276 
f 276/276/276 275/275/275 277/277/277 
f 278/278/278 279/279/279 280/280/280 
f 279/279/279 278/278/278 281/281/281 
f 280/280/280 282/282/282 278/278/278 
f 282/282/282 280/280/280 283/283/283 
f 284/284/284 285/285/285 286/286/286 
f 285/285/285 284/284/284 287/287/287 
f 286/286/286 288/288/288 284/284/284 
f 288/288/288 286/286/286 289/289/289 
f 290/290/290 291/291/291 292/292/292 
f 292/292/292 293/293/293 290/290/290 
f 294/294/294 291/291/291 290/290/290 
f 294/294/294 295/295/295 291/291/291 
f 296/296/296 297/297/297 298/298/298 
f 297/297/297 296/296/296 299/299/299 

