# This file is brought to you by Roblox Corporation
# Generated by Roblox Studio

mtllib 2.mtl

g Handle1

v -0.864648 0.585037 -0.593198 
v -0.864648 0.585037 -0.550154 
v -0.907692 0.585037 -0.550154 
v -0.907692 0.585037 -0.593198 
v -0.288346 2.7515 -0.523574 
v -0.24945 2.7238 -0.534957 
v -0.288346 2.7515 -0.534957 
v -0.24945 2.7238 -0.523574 
v -1.39673 2.7515 -0.523574 
v -1.43563 2.7238 -0.534957 
v -1.43563 2.7238 -0.523574 
v -1.39673 2.7515 -0.534957 
v -0.542242 2.88389 -0.523574 
v -0.497599 2.86694 -0.534957 
v -0.542242 2.88389 -0.534957 
v -0.497599 2.86694 -0.523574 
v -1.14283 2.88389 -0.523574 
v -1.18748 2.86694 -0.534957 
v -1.18748 2.86694 -0.523574 
v -1.14283 2.88389 -0.534957 
v -0.866978 2.91577 -0.523574 
v -0.819225 2.91577 -0.523574 
v -0.866978 2.91577 -0.534957 
v -0.819225 2.91577 -0.534957 
v -0.819155 2.67143 -0.5395 
v -0.819155 2.67143 -0.519031 
v -0.796789 2.66812 -0.519031 
v -0.84174 2.67254 -0.5395 
v -0.84174 2.67254 -0.519031 
v -0.864324 2.67143 -0.5395 
v -0.864324 2.67143 -0.519031 
v -0.88669 2.66812 -0.5395 
v -0.88669 2.66812 -0.519031 
v -0.908624 2.66262 -0.5395 
v -0.908624 2.66262 -0.519031 
v -0.929914 2.655 -0.519031 
v -0.929914 2.655 -0.5395 
v -0.950354 2.64534 -0.5395 
v -0.950354 2.64534 -0.519031 
v -0.969748 2.63371 -0.519031 
v -0.969748 2.63371 -0.5395 
v -0.98791 2.62024 -0.5395 
v -0.98791 2.62024 -0.519031 
v -1.00466 2.60506 -0.519031 
v -1.00466 2.60506 -0.5395 
v -1.01985 2.5883 -0.5395 
v -1.01985 2.5883 -0.519031 
v -1.03332 2.57014 -0.519031 
v -1.03332 2.57014 -0.5395 
v -1.04494 2.55075 -0.5395 
v -1.04494 2.55075 -0.519031 
v -1.05461 2.53031 -0.519031 
v -1.05461 2.53031 -0.5395 
v -1.06223 2.50902 -0.519031 
v -1.06223 2.50902 -0.5395 
v -1.06772 2.48708 -0.519031 
v -1.06772 2.48708 -0.5395 
v -1.07104 2.46472 -0.519031 
v -1.07104 2.46472 -0.5395 
v -1.07215 2.44213 -0.519031 
v -1.07215 2.44213 -0.5395 
v -0.61133 2.44213 -0.5395 
v -0.612439 2.41955 -0.519031 
v -0.612439 2.41955 -0.5395 
v -0.61133 2.44213 -0.519031 
v -0.612439 2.46472 -0.5395 
v -0.612439 2.46472 -0.519031 
v -0.615757 2.48708 -0.5395 
v -0.615757 2.48708 -0.519031 
v -0.621251 2.50902 -0.5395 
v -0.621251 2.50902 -0.519031 
v -0.628869 2.53031 -0.5395 
v -0.628869 2.53031 -0.519031 
v -0.638536 2.55075 -0.5395 
v -0.638536 2.55075 -0.519031 
v -0.650161 2.57014 -0.5395 
v -0.650161 2.57014 -0.519031 
v -0.66363 2.5883 -0.5395 
v -0.66363 2.5883 -0.519031 
v -0.678815 2.60506 -0.5395 
v -0.678815 2.60506 -0.519031 
v -0.695569 2.62024 -0.5395 
v -0.695569 2.62024 -0.519031 
v -0.713731 2.63371 -0.5395 
v -0.713731 2.63371 -0.519031 
v -0.733125 2.64534 -0.5395 
v -0.733125 2.64534 -0.519031 
v -0.753565 2.655 -0.5395 
v -0.753565 2.655 -0.519031 
v -0.774855 2.66262 -0.5395 
v -0.774855 2.66262 -0.519031 
v -0.796789 2.66812 -0.5395 
v -0.24945 2.7238 -0.523574 
v -0.349503 2.58331 -0.523574 
v -0.24945 2.7238 -0.534957 
v -0.349503 2.58331 -0.534957 
v -1.43563 2.7238 -0.534957 
v -1.33557 2.58331 -0.523574 
v -1.43563 2.7238 -0.523574 
v -1.33557 2.58331 -0.534957 
v -0.497599 2.86694 -0.523574 
v -0.558824 2.7057 -0.523574 
v -0.497599 2.86694 -0.534957 
v -0.558824 2.7057 -0.534957 
v -1.18748 2.86694 -0.534957 
v -1.12625 2.7057 -0.523574 
v -1.18748 2.86694 -0.523574 
v -1.12625 2.7057 -0.534957 
v -1.07215 2.44213 -0.5395 
v -1.07104 2.41955 -0.519031 
v -1.07215 2.44213 -0.519031 
v -1.07104 2.41955 -0.5395 
v -1.06772 2.39718 -0.519031 
v -1.06772 2.39718 -0.5395 
v -1.06223 2.37525 -0.519031 
v -1.06223 2.37525 -0.5395 
v -1.05461 2.35396 -0.519031 
v -1.05461 2.35396 -0.5395 
v -1.04494 2.33352 -0.519031 
v -1.04494 2.33352 -0.5395 
v -1.03332 2.31412 -0.5395 
v -1.03332 2.31412 -0.519031 
v -1.01985 2.29596 -0.519031 
v -1.01985 2.29596 -0.5395 
v -1.00466 2.27921 -0.5395 
v -1.00466 2.27921 -0.519031 
v -0.98791 2.26402 -0.519031 
v -0.98791 2.26402 -0.5395 
v -0.969748 2.25055 -0.5395 
v -0.969748 2.25055 -0.519031 
v -0.950354 2.23893 -0.519031 
v -0.950354 2.23893 -0.5395 
v -0.929914 2.22926 -0.519031 
v -0.929914 2.22926 -0.5395 
v -0.908624 2.22164 -0.5395 
v -0.908624 2.22164 -0.519031 
v -0.88669 2.21615 -0.5395 
v -0.88669 2.21615 -0.519031 
v -0.864324 2.21283 -0.5395 
v -0.864324 2.21283 -0.519031 
v -0.841739 2.21172 -0.5395 
v -0.841739 2.21172 -0.519031 
v -0.819155 2.21283 -0.5395 
v -0.819155 2.21283 -0.519031 
v -0.796789 2.21615 -0.5395 
v -0.796789 2.21615 -0.519031 
v -0.774855 2.22164 -0.5395 
v -0.774855 2.22164 -0.519031 
v -0.753565 2.22926 -0.5395 
v -0.753565 2.22926 -0.519031 
v -0.733125 2.23893 -0.5395 
v -0.733125 2.23893 -0.519031 
v -0.713731 2.25055 -0.5395 
v -0.713731 2.25055 -0.519031 
v -0.695569 2.26402 -0.5395 
v -0.695569 2.26402 -0.519031 
v -0.678815 2.27921 -0.5395 
v -0.678815 2.27921 -0.519031 
v -0.66363 2.29596 -0.5395 
v -0.66363 2.29596 -0.519031 
v -0.650161 2.31412 -0.5395 
v -0.650161 2.31412 -0.519031 
v -0.638536 2.33352 -0.5395 
v -0.638536 2.33352 -0.519031 
v -0.628869 2.35396 -0.5395 
v -0.628869 2.35396 -0.519031 
v -0.621251 2.37525 -0.5395 
v -0.621251 2.37525 -0.519031 
v -0.615757 2.39718 -0.5395 
v -0.615757 2.39718 -0.519031 
v -0.159319 0.837812 -0.462013 
v 0.161584 0.523695 -0.466342 
v -0.0614802 0.850456 -0.462447 
v 0.139957 0.396832 -0.467324 
v -1.60866 0.837812 -0.462013 
v -1.92956 0.523695 -0.466342 
v -1.90793 0.396832 -0.467324 
v -1.70649 0.850455 -0.462447 
v 0.343953 0.515319 -0.483487 
v 0.188823 0.967238 -0.479232 
v 0.0635542 0.912172 -0.478721 
v 0.573058 0.549014 -0.485013 
v -2.11193 0.515318 -0.483487 
v -1.83153 0.912172 -0.478721 
v -1.9568 0.967237 -0.479232 
v -2.34103 0.549013 -0.485013 
v 3.45422 1.83606 -0.634007 
v 3.64759 1.82314 -0.635643 
v 3.45422 1.7776 -0.634009 
v 3.64759 1.83606 -0.635643 
v -5.22219 1.83606 -0.634007 
v -5.41557 1.82314 -0.635643 
v -5.41557 1.83606 -0.635643 
v -5.22219 1.77759 -0.634009 
v -0.201871 1.83606 -0.59603 
v -0.703157 1.56623 -0.594626 
v -0.878542 1.83606 -0.594296 
v -0.20187 1.56623 -0.596294 
v -1.5661 1.83606 -0.59603 
v -1.06482 1.56623 -0.594626 
v -1.5661 1.56623 -0.596294 
v -0.889433 1.83606 -0.594296 
v -2.42803 0.649406 -0.499424 
v -2.07102 1.05528 -0.493899 
v -2.15157 1.10569 -0.494302 
v -2.66903 0.690482 -0.501407 
v 0.660052 0.649406 -0.499424 
v 0.383594 1.10569 -0.494302 
v 0.303046 1.05528 -0.493899 
v 0.90106 0.690483 -0.501407 
v -2.81068 0.76281 -0.51288 
v -2.24753 1.20316 -0.505146 
v -2.30659 1.23865 -0.505543 
v -3.08214 0.837869 -0.515373 
v 1.04271 0.762811 -0.51288 
v 0.538611 1.23865 -0.505543 
v 0.479555 1.20316 -0.505146 
v 1.31417 0.837869 -0.515373 
v -0.907692 0.585037 -0.593198 
v -0.876779 1.75758 -0.581068 
v -0.864648 0.585037 -0.593198 
v -0.895562 1.75758 -0.581068 
v -0.907692 0.585037 -0.550154 
v -0.895562 1.75758 -0.581068 
v -0.907692 0.585037 -0.593198 
v -0.895562 1.75758 -0.562284 
v -3.19761 0.914624 -0.524748 
v -2.37062 1.30386 -0.514364 
v -2.41386 1.33535 -0.51468 
v -3.48493 1.02923 -0.527588 
v 0.602646 1.30386 -0.514364 
v 1.42963 0.914625 -0.524748 
v 0.645888 1.33535 -0.51468 
v 1.71695 1.02923 -0.527588 
v -2.47255 1.42347 -0.523839 
v -3.96377 1.27067 -0.54156 
v -3.48954 1.14232 -0.536254 
v -2.47053 1.41901 -0.5243 
v 0.70255 1.41901 -0.5243 
v 1.72156 1.14232 -0.536254 
v 0.704571 1.42347 -0.523839 
v 2.19579 1.27067 -0.54156 
v -0.819225 2.91577 -0.523574 
v -0.819225 2.7433 -0.534957 
v -0.819225 2.91577 -0.534957 
v -0.819225 2.7433 -0.523574 
v 3.12926 1.63028 -0.600343 
v 2.3535 1.40807 -0.591971 
v 2.52515 1.60705 -0.593753 
v 3.1412 1.64516 -0.600456 
v -4.12148 1.40807 -0.591971 
v -4.89724 1.63028 -0.600343 
v -4.29312 1.60705 -0.593753 
v -4.90918 1.64516 -0.600456 
v -0.866978 2.91577 -0.534957 
v -0.866978 2.7433 -0.523574 
v -0.866978 2.91577 -0.523574 
v -0.866978 2.7433 -0.534957 
v -0.308842 2.45391 -0.516928 
v -0.338641 2.45083 -0.516928 
v -0.338641 2.44087 -0.516928 
v -0.308842 2.43779 -0.516928 
v -0.341083 2.39055 -0.516928 
v -0.370222 2.39447 -0.516928 
v -0.392841 2.34383 -0.516928 
v -0.462703 2.2982 -0.516928 
v -0.42031 2.34927 -0.516928 
v -1.35355 2.45083 -0.516928 
v -1.38335 2.45391 -0.516928 
v -1.38335 2.43779 -0.516928 
v -1.35111 2.50115 -0.516928 
v -1.32197 2.49723 -0.516928 
v -1.29935 2.54787 -0.516928 
v -1.27188 2.54243 -0.516928 
v -1.22949 2.5935 -0.516928 
v -1.20406 2.58673 -0.516928 
v -1.14457 2.63557 -0.516928 
v -1.12183 2.62748 -0.516928 
v -1.0488 2.67051 -0.516928 
v -1.03025 2.66094 -0.516928 
v -0.947634 2.69408 -0.516928 
v -0.936378 2.68292 -0.516928 
v -0.846096 2.70257 -0.516928 
v -0.846096 2.69058 -0.516928 
v -0.755814 2.68292 -0.516928 
v -1.35355 2.45083 -0.516928 
v -1.38335 2.43779 -0.516928 
v -1.35355 2.44087 -0.516928 
v -1.35111 2.39055 -0.516928 
v -1.35355 2.44087 -0.516928 
v -1.32197 2.39447 -0.516928 
v -1.29935 2.34383 -0.516928 
v -1.27188 2.34927 -0.516928 
v -1.22949 2.2982 -0.516928 
v -1.20406 2.30498 -0.516928 
v -1.14457 2.25613 -0.516928 
v -1.0488 2.22119 -0.516928 
v -1.12183 2.26423 -0.516928 
v -1.03025 2.23077 -0.516928 
v -0.947634 2.19763 -0.516928 
v -0.936378 2.20878 -0.516928 
v -0.846096 2.18914 -0.516928 
v -0.846096 2.20112 -0.516928 
v -0.755814 2.20878 -0.516928 
v -1.20406 2.30498 -0.516928 
v -1.14457 2.25613 -0.516928 
v -1.12183 2.26423 -0.516928 
v -0.846096 2.18914 -0.516928 
v -0.744558 2.19763 -0.516928 
v -0.755814 2.20878 -0.516928 
v -0.661946 2.23077 -0.516928 
v -0.643394 2.22119 -0.516928 
v -0.570363 2.26423 -0.516928 
v -0.547624 2.25613 -0.516928 
v -0.488134 2.30498 -0.516928 
v -0.462703 2.2982 -0.516928 
v -0.42031 2.34927 -0.516928 
v -0.392841 2.34383 -0.516928 
v -0.370222 2.39447 -0.516928 
v -0.341083 2.39055 -0.516928 
v -0.308842 2.43779 -0.516928 
v -0.338641 2.44087 -0.516928 
v -0.846096 2.70257 -0.516928 
v -0.755814 2.68292 -0.516928 
v -0.744558 2.69408 -0.516928 
v -0.661946 2.66094 -0.516928 
v -0.744558 2.69408 -0.516928 
v -0.661946 2.66094 -0.516928 
v -0.643394 2.67051 -0.516928 
v -0.570363 2.62748 -0.516928 
v -0.547624 2.63557 -0.516928 
v -0.488134 2.58673 -0.516928 
v -0.547624 2.63557 -0.516928 
v -0.488134 2.58673 -0.516928 
v -0.462703 2.5935 -0.516928 
v -0.42031 2.54243 -0.516928 
v -0.462703 2.5935 -0.516928 
v -0.42031 2.54243 -0.516928 
v -0.392841 2.54787 -0.516928 
v -0.370222 2.49723 -0.516928 
v -0.392841 2.54787 -0.516928 
v -0.370222 2.49723 -0.516928 
v -0.341083 2.50115 -0.516928 
v -0.338641 2.45083 -0.516928 
v -0.308842 2.45391 -0.516928 
v -0.85557 2.3726 -0.519031 
v -0.868869 2.50763 -0.519031 
v -0.881126 2.38319 -0.519031 
v -0.868869 2.37664 -0.519031 
v -0.875159 2.37961 -0.519031 
v -0.862319 2.37429 -0.519031 
v -0.85557 2.51166 -0.519031 
v -0.862319 2.50997 -0.519031 
v -0.848688 2.51269 -0.519031 
v -0.834791 2.51269 -0.519031 
v -0.84174 2.51303 -0.519031 
v -0.904262 2.40871 -0.519031 
v -0.886714 2.38733 -0.519031 
v -0.896541 2.39716 -0.519031 
v -0.891869 2.392 -0.519031 
v -0.900685 2.40275 -0.519031 
v -0.81461 2.50763 -0.519031 
v -0.827909 2.51166 -0.519031 
v -0.82116 2.50997 -0.519031 
v -0.904262 2.47555 -0.519031 
v -0.896541 2.48711 -0.519031 
v -0.900685 2.48152 -0.519031 
v -0.891869 2.49226 -0.519031 
v -0.881126 2.50108 -0.519031 
v -0.886714 2.49693 -0.519031 
v -0.875158 2.50466 -0.519031 
v -0.911271 2.4283 -0.519031 
v -0.907237 2.415 -0.519031 
v -0.90958 2.42155 -0.519031 
v -0.90958 2.46271 -0.519031 
v -0.907237 2.46926 -0.519031 
v -0.911271 2.45596 -0.519031 
v -0.912292 2.43518 -0.519031 
v -0.912292 2.44908 -0.519031 
v -0.912633 2.44213 -0.519031 
v -0.808321 2.37961 -0.519031 
v -0.827909 2.3726 -0.519031 
v -0.834791 2.37158 -0.519031 
v -0.848688 2.37158 -0.519031 
v -0.84174 2.37124 -0.519031 
v -0.81461 2.37664 -0.519031 
v -0.82116 2.37429 -0.519031 
v -0.772208 2.4283 -0.519031 
v -0.802353 2.50108 -0.519031 
v -0.808321 2.50466 -0.519031 
v -0.779217 2.47555 -0.519031 
v -0.79161 2.49226 -0.519031 
v -0.796765 2.49693 -0.519031 
v -0.782794 2.48152 -0.519031 
v -0.786938 2.48711 -0.519031 
v -0.773899 2.46271 -0.519031 
v -0.776242 2.46926 -0.519031 
v -0.772208 2.45596 -0.519031 
v -0.770846 2.44213 -0.519031 
v -0.771187 2.44908 -0.519031 
v -0.771187 2.43518 -0.519031 
v -0.776242 2.415 -0.519031 
v -0.773899 2.42155 -0.519031 
v -0.779217 2.40871 -0.519031 
v -0.786938 2.39716 -0.519031 
v -0.782794 2.40275 -0.519031 
v -0.79161 2.392 -0.519031 
v -0.802353 2.38319 -0.519031 
v -0.796765 2.38733 -0.519031 
v -1.07215 2.44213 -0.519031 
v -1.01597 2.42497 -0.519031 
v -1.01681 2.44213 -0.519031 
v -1.07104 2.41955 -0.519031 
v -1.07104 2.46472 -0.519031 
v -1.06772 2.39718 -0.519031 
v -1.01597 2.45929 -0.519031 
v -1.01345 2.40798 -0.519031 
v -1.06772 2.48708 -0.519031 
v -1.00927 2.39131 -0.519031 
v -1.01345 2.47629 -0.519031 
v -1.06223 2.37525 -0.519031 
v -1.06223 2.50902 -0.519031 
v -1.05461 2.35396 -0.519031 
v -1.00927 2.49295 -0.519031 
v -1.00348 2.37514 -0.519031 
v -1.00348 2.50913 -0.519031 
v -0.996139 2.3596 -0.519031 
v -1.05461 2.53031 -0.519031 
v -1.04494 2.33352 -0.519031 
v -0.996139 2.52466 -0.519031 
v -0.987306 2.34487 -0.519031 
v -1.04494 2.55075 -0.519031 
v -1.03332 2.31412 -0.519031 
v -0.987306 2.5394 -0.519031 
v -0.977071 2.33107 -0.519031 
v -1.03332 2.57014 -0.519031 
v -1.01985 2.29596 -0.519031 
v -1.01985 2.5883 -0.519031 
v -1.00466 2.27921 -0.519031 
v -0.977071 2.5532 -0.519031 
v -0.965534 2.31834 -0.519031 
v -0.965534 2.56593 -0.519031 
v -0.952804 2.3068 -0.519031 
v -1.00466 2.60506 -0.519031 
v -0.98791 2.26402 -0.519031 
v -0.952804 2.57747 -0.519031 
v -0.939004 2.29657 -0.519031 
v -0.98791 2.62024 -0.519031 
v -0.969748 2.25055 -0.519031 
v -0.969748 2.63371 -0.519031 
v -0.950354 2.23893 -0.519031 
v -0.939004 2.5877 -0.519031 
v -0.924268 2.28773 -0.519031 
v -0.924268 2.59653 -0.519031 
v -0.908736 2.28039 -0.519031 
v -0.950354 2.64534 -0.519031 
v -0.929914 2.22926 -0.519031 
v -0.929914 2.655 -0.519031 
v -0.89256 2.2746 -0.519031 
v -0.908736 2.60388 -0.519031 
v -0.908624 2.22164 -0.519031 
v -0.908624 2.66262 -0.519031 
v -0.88669 2.21615 -0.519031 
v -0.89256 2.60967 -0.519031 
v -0.875894 2.27043 -0.519031 
v -0.875894 2.61384 -0.519031 
v -0.858899 2.2679 -0.519031 
v -0.88669 2.66812 -0.519031 
v -0.864324 2.21283 -0.519031 
v -0.8589 2.61636 -0.519031 
v -0.841739 2.21172 -0.519031 
v -0.864324 2.67143 -0.519031 
v -0.841739 2.26706 -0.519031 
v -0.84174 2.67254 -0.519031 
v -0.82458 2.2679 -0.519031 
v -0.84174 2.6172 -0.519031 
v -0.819155 2.21283 -0.519031 
v -0.82458 2.61636 -0.519031 
v -0.796789 2.21615 -0.519031 
v -0.819155 2.67143 -0.519031 
v -0.807585 2.27043 -0.519031 
v -0.796789 2.66812 -0.519031 
v -0.790919 2.2746 -0.519031 
v -0.807585 2.61384 -0.519031 
v -0.774855 2.22164 -0.519031 
v -0.774855 2.66262 -0.519031 
v -0.774743 2.28039 -0.519031 
v -0.790919 2.60967 -0.519031 
v -0.753565 2.22926 -0.519031 
v -0.774743 2.60388 -0.519031 
v -0.733125 2.23893 -0.519031 
v -0.753565 2.655 -0.519031 
v -0.759211 2.28773 -0.519031 
v -0.759212 2.59653 -0.519031 
v -0.744475 2.29657 -0.519031 
v -0.733125 2.64534 -0.519031 
v -0.713731 2.25055 -0.519031 
v -0.713731 2.63371 -0.519031 
v -0.730675 2.3068 -0.519031 
v -0.744475 2.5877 -0.519031 
v -0.695569 2.26402 -0.519031 
v -0.695569 2.62024 -0.519031 
v -0.678815 2.27921 -0.519031 
v -0.730676 2.57747 -0.519031 
v -0.717945 2.31834 -0.519031 
v -0.717945 2.56593 -0.519031 
v -0.706408 2.33107 -0.519031 
v -0.678815 2.60506 -0.519031 
v -0.66363 2.29596 -0.519031 
v -0.706408 2.5532 -0.519031 
v -0.696173 2.34487 -0.519031 
v -0.66363 2.5883 -0.519031 
v -0.650161 2.31412 -0.519031 
v -0.696173 2.5394 -0.519031 
v -0.68734 2.3596 -0.519031 
v -0.650161 2.57014 -0.519031 
v -0.638536 2.33352 -0.519031 
v -0.68734 2.52466 -0.519031 
v -0.628869 2.35396 -0.519031 
v -0.638536 2.55075 -0.519031 
v -0.679995 2.37514 -0.519031 
v -0.628869 2.53031 -0.519031 
v -0.674207 2.39131 -0.519031 
v -0.679995 2.50913 -0.519031 
v -0.621251 2.37525 -0.519031 
v -0.674207 2.49295 -0.519031 
v -0.615757 2.39718 -0.519031 
v -0.621251 2.50902 -0.519031 
v -0.670032 2.40798 -0.519031 
v -0.670032 2.47629 -0.519031 
v -0.667511 2.42497 -0.519031 
v -0.615757 2.48708 -0.519031 
v -0.612439 2.41955 -0.519031 
v -0.667511 2.45929 -0.519031 
v -0.61133 2.44213 -0.519031 
v -0.612439 2.46472 -0.519031 
v -0.666668 2.44213 -0.519031 
v 0.791526 1.49889 -0.543894 
v 2.35204 1.42108 -0.56152 
v 0.792177 1.50367 -0.543255 
v 2.52592 1.59416 -0.563356 
v -2.56015 1.50367 -0.543255 
v -4.2939 1.59416 -0.563356 
v -4.12001 1.42108 -0.56152 
v -2.5595 1.49889 -0.543894 
v -0.866978 2.91577 -0.523574 
v -0.819225 2.7433 -0.523574 
v -0.819225 2.91577 -0.523574 
v -0.866978 2.7433 -0.523574 
v -1.43563 2.7238 -0.523574 
v -1.33557 2.58331 -0.523574 
v -1.29668 2.61101 -0.523574 
v -1.39673 2.7515 -0.523574 
v -1.18748 2.86694 -0.523574 
v -1.12625 2.7057 -0.523574 
v -1.08161 2.72265 -0.523574 
v -1.14283 2.88389 -0.523574 
v -0.24945 2.7238 -0.523574 
v -0.3884 2.61101 -0.523574 
v -0.349503 2.58331 -0.523574 
v -0.288346 2.7515 -0.523574 
v -0.497599 2.86694 -0.523574 
v -0.603467 2.72265 -0.523574 
v -0.558824 2.7057 -0.523574 
v -0.542242 2.88389 -0.523574 
v -1.38335 2.45391 -0.541602 
v -1.35355 2.45083 -0.541602 
v -1.35355 2.44087 -0.541602 
v -1.38335 2.45391 -0.541602 
v -1.35355 2.44087 -0.541602 
v -1.38335 2.43779 -0.541602 
v -1.35111 2.39055 -0.541602 
v -1.32197 2.39447 -0.541602 
v -1.29935 2.34383 -0.541602 
v -1.35111 2.50115 -0.541602 
v -1.35355 2.45083 -0.541602 
v -1.32197 2.49723 -0.541602 
v -1.29935 2.54787 -0.541602 
v -1.27188 2.54243 -0.541602 
v -1.29935 2.34383 -0.541602 
v -1.32197 2.39447 -0.541602 
v -1.27188 2.34927 -0.541602 
v -1.22949 2.2982 -0.541602 
v -1.20406 2.30498 -0.541602 
v -1.20406 2.30498 -0.541602 
v -1.12183 2.26423 -0.541602 
v -1.14457 2.25613 -0.541602 
v -1.22949 2.2982 -0.541602 
v -1.0488 2.22119 -0.541602 
v -1.03025 2.23077 -0.541602 
v -0.947634 2.19763 -0.541602 
v -0.936378 2.20878 -0.541602 
v -0.846096 2.18914 -0.541602 
v -0.846096 2.20112 -0.541602 
v -0.755814 2.20878 -0.541602 
v -0.744558 2.19763 -0.541602 
v -0.661946 2.23077 -0.541602 
v -0.643394 2.22119 -0.541602 
v -0.570363 2.26423 -0.541602 
v -0.643394 2.22119 -0.541602 
v -0.661946 2.23077 -0.541602 
v -0.547624 2.25613 -0.541602 
v -0.488134 2.30498 -0.541602 
v -0.462703 2.2982 -0.541602 
v -0.462703 2.2982 -0.541602 
v -0.42031 2.34927 -0.541602 
v -0.392841 2.34383 -0.541602 
v -0.488134 2.30498 -0.541602 
v -0.370222 2.39447 -0.541602 
v -0.341083 2.39055 -0.541602 
v -0.338641 2.44087 -0.541602 
v -0.338641 2.45083 -0.541602 
v -0.308842 2.43779 -0.541602 
v -0.308842 2.45391 -0.541602 
v -0.341083 2.50115 -0.541602 
v -0.370222 2.49723 -0.541602 
v -0.392841 2.54787 -0.541602 
v -0.42031 2.54243 -0.541602 
v -0.462703 2.5935 -0.541602 
v -0.488134 2.58673 -0.541602 
v -0.341083 2.39055 -0.541602 
v -0.338641 2.44087 -0.541602 
v -0.308842 2.43779 -0.541602 
v -1.27188 2.54243 -0.541602 
v -1.22949 2.5935 -0.541602 
v -1.20406 2.58673 -0.541602 
v -1.14457 2.63557 -0.541602 
v -1.29935 2.54787 -0.541602 
v -1.20406 2.58673 -0.541602 
v -1.14457 2.63557 -0.541602 
v -1.12183 2.62748 -0.541602 
v -1.0488 2.67051 -0.541602 
v -1.03025 2.66094 -0.541602 
v -0.947634 2.69408 -0.541602 
v -0.936378 2.68292 -0.541602 
v -0.846096 2.70257 -0.541602 
v -0.846096 2.69058 -0.541602 
v -0.755814 2.68292 -0.541602 
v -0.744558 2.69408 -0.541602 
v -0.661946 2.66094 -0.541602 
v -0.744558 2.69408 -0.541602 
v -0.643394 2.67051 -0.541602 
v -0.755814 2.68292 -0.541602 
v -0.547624 2.63557 -0.541602 
v -0.570363 2.62748 -0.541602 
v -0.488134 2.58673 -0.541602 
v -0.462703 2.5935 -0.541602 
v -0.570363 2.62748 -0.541602 
v -0.661946 2.66094 -0.541602 
v -0.643394 2.67051 -0.541602 
v -0.904262 2.40871 -0.5395 
v -0.868869 2.50763 -0.5395 
v -0.881126 2.38319 -0.5395 
v -0.868869 2.37664 -0.5395 
v -0.875159 2.37961 -0.5395 
v -0.862319 2.37429 -0.5395 
v -0.85557 2.3726 -0.5395 
v -0.886714 2.38733 -0.5395 
v -0.896541 2.39716 -0.5395 
v -0.891869 2.392 -0.5395 
v -0.900685 2.40275 -0.5395 
v -0.85557 2.51166 -0.5395 
v -0.862319 2.50997 -0.5395 
v -0.848688 2.51269 -0.5395 
v -0.834791 2.51269 -0.5395 
v -0.84174 2.51303 -0.5395 
v -0.81461 2.50763 -0.5395 
v -0.827909 2.51166 -0.5395 
v -0.82116 2.50997 -0.5395 
v -0.904262 2.47555 -0.5395 
v -0.896541 2.48711 -0.5395 
v -0.900685 2.48152 -0.5395 
v -0.891869 2.49226 -0.5395 
v -0.881126 2.50108 -0.5395 
v -0.886714 2.49693 -0.5395 
v -0.875158 2.50466 -0.5395 
v -0.911271 2.4283 -0.5395 
v -0.907237 2.415 -0.5395 
v -0.90958 2.42155 -0.5395 
v -0.90958 2.46271 -0.5395 
v -0.907237 2.46926 -0.5395 
v -0.911271 2.45596 -0.5395 
v -0.912292 2.43518 -0.5395 
v -0.912292 2.44908 -0.5395 
v -0.912633 2.44213 -0.5395 
v -0.808321 2.37961 -0.5395 
v -0.827909 2.3726 -0.5395 
v -0.834791 2.37158 -0.5395 
v -0.848688 2.37158 -0.5395 
v -0.84174 2.37124 -0.5395 
v -0.81461 2.37664 -0.5395 
v -0.82116 2.37429 -0.5395 
v -0.772208 2.4283 -0.5395 
v -0.802353 2.50108 -0.5395 
v -0.808321 2.50466 -0.5395 
v -0.779217 2.47555 -0.5395 
v -0.79161 2.49226 -0.5395 
v -0.796765 2.49693 -0.5395 
v -0.782794 2.48152 -0.5395 
v -0.786938 2.48711 -0.5395 
v -0.773899 2.46271 -0.5395 
v -0.776242 2.46926 -0.5395 
v -0.772208 2.45596 -0.5395 
v -0.770846 2.44213 -0.5395 
v -0.771187 2.44908 -0.5395 
v -0.771187 2.43518 -0.5395 
v -0.776242 2.415 -0.5395 
v -0.773899 2.42155 -0.5395 
v -0.779217 2.40871 -0.5395 
v -0.786938 2.39716 -0.5395 
v -0.782794 2.40275 -0.5395 
v -0.79161 2.392 -0.5395 
v -0.802353 2.38319 -0.5395 
v -0.796765 2.38733 -0.5395 
v -1.01597 2.42497 -0.5395 
v -1.07215 2.44213 -0.5395 
v -1.01681 2.44213 -0.5395 
v -1.07104 2.46472 -0.5395 
v -1.07104 2.41955 -0.5395 
v -1.01597 2.45929 -0.5395 
v -1.06772 2.39718 -0.5395 
v -1.06772 2.48708 -0.5395 
v -1.01345 2.40798 -0.5395 
v -1.01345 2.47629 -0.5395 
v -1.00927 2.39131 -0.5395 
v -1.06223 2.50902 -0.5395 
v -1.06223 2.37525 -0.5395 
v -1.00927 2.49295 -0.5395 
v -1.05461 2.35396 -0.5395 
v -1.00348 2.50913 -0.5395 
v -1.00348 2.37514 -0.5395 
v -1.05461 2.53031 -0.5395 
v -0.996139 2.3596 -0.5395 
v -0.996139 2.52466 -0.5395 
v -1.04494 2.33352 -0.5395 
v -1.04494 2.55075 -0.5395 
v -0.987306 2.34487 -0.5395 
v -0.987306 2.5394 -0.5395 
v -1.03332 2.31412 -0.5395 
v -1.03332 2.57014 -0.5395 
v -0.977071 2.33107 -0.5395 
v -1.01985 2.5883 -0.5395 
v -1.01985 2.29596 -0.5395 
v -0.977071 2.5532 -0.5395 
v -1.00466 2.27921 -0.5395 
v -0.965534 2.56593 -0.5395 
v -0.965534 2.31834 -0.5395 
v -1.00466 2.60506 -0.5395 
v -0.952804 2.3068 -0.5395 
v -0.952804 2.57747 -0.5395 
v -0.98791 2.26402 -0.5395 
v -0.98791 2.62024 -0.5395 
v -0.939004 2.29657 -0.5395 
v -0.969748 2.63371 -0.5395 
v -0.969748 2.25055 -0.5395 
v -0.939004 2.5877 -0.5395 
v -0.950354 2.23893 -0.5395 
v -0.924268 2.59653 -0.5395 
v -0.924268 2.28773 -0.5395 
v -0.950354 2.64534 -0.5395 
v -0.908736 2.28039 -0.5395 
v -0.929914 2.655 -0.5395 
v -0.929914 2.22926 -0.5395 
v -0.908736 2.60388 -0.5395 
v -0.89256 2.2746 -0.5395 
v -0.908624 2.66262 -0.5395 
v -0.908624 2.22164 -0.5395 
v -0.89256 2.60967 -0.5395 
v -0.88669 2.21615 -0.5395 
v -0.875894 2.61384 -0.5395 
v -0.875894 2.27043 -0.5395 
v -0.88669 2.66812 -0.5395 
v -0.858899 2.2679 -0.5395 
v -0.8589 2.61636 -0.5395 
v -0.864324 2.21283 -0.5395 
v -0.864324 2.67143 -0.5395 
v -0.841739 2.21172 -0.5395 
v -0.84174 2.67254 -0.5395 
v -0.841739 2.26706 -0.5395 
v -0.84174 2.6172 -0.5395 
v -0.82458 2.2679 -0.5395 
v -0.82458 2.61636 -0.5395 
v -0.819155 2.21283 -0.5395 
v -0.819155 2.67143 -0.5395 
v -0.796789 2.21615 -0.5395 
v -0.796789 2.66812 -0.5395 
v -0.807585 2.27043 -0.5395 
v -0.807585 2.61384 -0.5395 
v -0.790919 2.2746 -0.5395 
v -0.774855 2.66262 -0.5395 
v -0.774855 2.22164 -0.5395 
v -0.790919 2.60967 -0.5395 
v -0.774743 2.28039 -0.5395 
v -0.774743 2.60388 -0.5395 
v -0.753565 2.22926 -0.5395 
v -0.753565 2.655 -0.5395 
v -0.733125 2.23893 -0.5395 
v -0.759212 2.59653 -0.5395 
v -0.759211 2.28773 -0.5395 
v -0.733125 2.64534 -0.5395 
v -0.744475 2.29657 -0.5395 
v -0.713731 2.63371 -0.5395 
v -0.713731 2.25055 -0.5395 
v -0.744475 2.5877 -0.5395 
v -0.730675 2.3068 -0.5395 
v -0.695569 2.62024 -0.5395 
v -0.695569 2.26402 -0.5395 
v -0.730676 2.57747 -0.5395 
v -0.678815 2.27921 -0.5395 
v -0.717945 2.56593 -0.5395 
v -0.717945 2.31834 -0.5395 
v -0.678815 2.60506 -0.5395 
v -0.706408 2.33107 -0.5395 
v -0.706408 2.5532 -0.5395 
v -0.66363 2.29596 -0.5395 
v -0.66363 2.5883 -0.5395 
v -0.696173 2.34487 -0.5395 
v -0.696173 2.5394 -0.5395 
v -0.650161 2.31412 -0.5395 
v -0.650161 2.57014 -0.5395 
v -0.68734 2.3596 -0.5395 
v -0.68734 2.52466 -0.5395 
v -0.638536 2.33352 -0.5395 
v -0.638536 2.55075 -0.5395 
v -0.628869 2.35396 -0.5395 
v -0.628869 2.53031 -0.5395 
v -0.679995 2.37514 -0.5395 
v -0.679995 2.50913 -0.5395 
v -0.674207 2.39131 -0.5395 
v -0.674207 2.49295 -0.5395 
v -0.621251 2.37525 -0.5395 
v -0.621251 2.50902 -0.5395 
v -0.615757 2.39718 -0.5395 
v -0.670032 2.47629 -0.5395 
v -0.670032 2.40798 -0.5395 
v -0.615757 2.48708 -0.5395 
v -0.667511 2.42497 -0.5395 
v -0.667511 2.45929 -0.5395 
v -0.612439 2.41955 -0.5395 
v -0.612439 2.46472 -0.5395 
v -0.61133 2.44213 -0.5395 
v -0.666668 2.44213 -0.5395 
v -0.819225 2.91577 -0.534957 
v -0.866978 2.7433 -0.534957 
v -0.866978 2.91577 -0.534957 
v -0.819225 2.7433 -0.534957 
v -1.43563 2.7238 -0.534957 
v -1.29668 2.61101 -0.534957 
v -1.33557 2.58331 -0.534957 
v -1.39673 2.7515 -0.534957 
v -1.18748 2.86694 -0.534957 
v -1.08161 2.72265 -0.534957 
v -1.12625 2.7057 -0.534957 
v -1.14283 2.88389 -0.534957 
v -0.3884 2.61101 -0.534957 
v -0.24945 2.7238 -0.534957 
v -0.349503 2.58331 -0.534957 
v -0.288346 2.7515 -0.534957 
v -0.603467 2.72265 -0.534957 
v -0.497599 2.86694 -0.534957 
v -0.558824 2.7057 -0.534957 
v -0.542242 2.88389 -0.534957 
v 2.28371 1.1125 -0.573426 
v 1.71962 1.12946 -0.566758 
v 2.20356 1.2829 -0.572087 
v 2.29565 1.12739 -0.573525 
v -3.97153 1.2829 -0.572087 
v -3.48759 1.12946 -0.566758 
v -4.05169 1.1125 -0.573426 
v -4.06363 1.12739 -0.573525 
v 1.76931 0.896747 -0.559153 
v 1.42666 0.901755 -0.555247 
v 1.72633 1.03998 -0.558114 
v 1.78405 0.908863 -0.559274 
v -3.4943 1.03998 -0.558114 
v -3.19463 0.901754 -0.555247 
v -3.53729 0.896746 -0.559153 
v -3.55203 0.908862 -0.559274 
v 1.32469 0.701839 -0.546681 
v 1.03732 0.750628 -0.543402 
v 1.32618 0.846194 -0.545946 
v 1.34244 0.708833 -0.546833 
v -3.09416 0.846193 -0.545946 
v -2.8053 0.750627 -0.543401 
v -3.09266 0.701838 -0.546681 
v -3.11042 0.708832 -0.546833 
v -0.201871 1.80322 -0.561997 
v -0.818027 1.80322 -0.560267 
v -0.681902 1.59379 -0.560578 
v -0.693323 1.57249 -0.560549 
v -0.857067 1.8244 -0.560142 
v -0.201871 1.8244 -0.561983 
v 3.42138 1.80322 -0.599793 
v 3.44256 1.8244 -0.599992 
v 3.44256 1.7886 -0.599993 
v -0.211369 1.59858 -0.562163 
v -0.210649 1.5774 -0.562184 
v -0.379069 1.06761 -0.563456 
v -0.366221 1.06761 -0.563504 
v 3.42138 1.80859 -0.599752 
v -0.949948 1.80322 -0.560267 
v -1.5661 1.80322 -0.561996 
v -1.08607 1.59379 -0.560578 
v -1.55661 1.59858 -0.562163 
v -1.5661 1.8244 -0.561983 
v -5.18935 1.80321 -0.599793 
v -5.21054 1.8244 -0.599992 
v -0.910909 1.8244 -0.560142 
v -1.07465 1.57249 -0.560549 
v -5.18935 1.80859 -0.599752 
v -5.21054 1.7886 -0.599993 
v -1.55733 1.5774 -0.562184 
v -1.38891 1.06761 -0.563456 
v -1.40175 1.06761 -0.563503 
v 0.934322 0.52473 -0.533305 
v 0.652378 0.638579 -0.529946 
v 0.912323 0.698 -0.531962 
v 0.961111 0.529916 -0.533525 
v -2.6803 0.697999 -0.531962 
v -2.42035 0.638579 -0.529946 
v -2.7023 0.524729 -0.533305 
v -2.72909 0.529915 -0.533525 
v -1.57824 1.02289 -0.577102 
v -1.70757 1.41003 -0.576003 
v -1.58196 1.02289 -0.577119 
v -1.87047 1.41003 -0.577274 
v -1.58568 1.02289 -0.577137 
v -2.03337 1.41003 -0.578545 
v -1.58941 1.02289 -0.577154 
v -2.19627 1.41003 -0.579816 
v -0.186011 1.02289 -0.577119 
v 0.102493 1.41003 -0.577274 
v -0.0604069 1.41003 -0.576003 
v -0.189731 1.02289 -0.577102 
v 0.265393 1.41003 -0.578545 
v -0.18229 1.02289 -0.577137 
v -0.17857 1.02289 -0.577154 
v 0.428292 1.41003 -0.579816 
v -0.864648 0.585037 -0.550154 
v -0.895562 1.75758 -0.562284 
v -0.907692 0.585037 -0.550154 
v -0.876779 1.75758 -0.562284 
v -0.864648 0.585037 -0.593198 
v -0.876779 1.75758 -0.562284 
v -0.864648 0.585037 -0.550154 
v -0.876779 1.75758 -0.581068 
v 0.553929 0.393232 -0.516491 
v 0.33524 0.505275 -0.513959 
v 0.586148 0.553852 -0.515524 
v 0.580718 0.398418 -0.516663 
v -2.35412 0.553852 -0.515524 
v -2.10322 0.505274 -0.513959 
v -2.3219 0.393232 -0.516491 
v -2.34869 0.398418 -0.516663 
v -1.14283 2.88389 -0.523574 
v -1.08161 2.72265 -0.534957 
v -1.14283 2.88389 -0.534957 
v -1.08161 2.72265 -0.523574 
v -0.542242 2.88389 -0.534957 
v -0.603467 2.72265 -0.534957 
v -0.542242 2.88389 -0.523574 
v -0.603467 2.72265 -0.523574 
v -1.39673 2.7515 -0.523574 
v -1.29668 2.61101 -0.534957 
v -1.39673 2.7515 -0.534957 
v -1.29668 2.61101 -0.523574 
v -0.288346 2.7515 -0.534957 
v -0.3884 2.61101 -0.523574 
v -0.288346 2.7515 -0.523574 
v -0.3884 2.61101 -0.534957 
v -0.819225 2.7433 -0.523574 
v -0.866978 2.7433 -0.523574 
v -0.819225 2.7433 -0.534957 
v -0.866978 2.7433 -0.534957 
v -1.08161 2.72265 -0.523574 
v -1.12625 2.7057 -0.523574 
v -1.08161 2.72265 -0.534957 
v -1.12625 2.7057 -0.534957 
v -0.603467 2.72265 -0.534957 
v -0.558824 2.7057 -0.534957 
v -0.558824 2.7057 -0.523574 
v -0.603467 2.72265 -0.523574 
v -1.29668 2.61101 -0.523574 
v -1.33557 2.58331 -0.523574 
v -1.29668 2.61101 -0.534957 
v -1.33557 2.58331 -0.534957 
v -0.3884 2.61101 -0.534957 
v -0.349503 2.58331 -0.534957 
v -0.349503 2.58331 -0.523574 
v -0.3884 2.61101 -0.523574 
v -0.895562 1.75758 -0.562284 
v -0.876779 1.75758 -0.562284 
v -0.895562 1.75758 -0.581068 
v -0.876779 1.75758 -0.581068 

vn 0 -1 0 
vn 0 -1 0 
vn 0 -1 0 
vn 0 -1 0 
vn 0.582677 0.811024 0 
vn 0.582677 0.811024 0 
vn 0.582677 0.811024 0 
vn 0.582677 0.811024 0 
vn -0.582677 0.811024 0 
vn -0.582677 0.811024 0 
vn -0.582677 0.811024 0 
vn -0.582677 0.811024 0 
vn 0.354331 0.937008 0 
vn 0.354331 0.937008 0 
vn 0.354331 0.937008 0 
vn 0.354331 0.937008 0 
vn -0.354331 0.937008 0 
vn -0.354331 0.937008 0 
vn -0.354331 0.937008 0 
vn -0.354331 0.937008 0 
vn 0 1 0 
vn 0 1 0 
vn 0 1 0 
vn 0 1 0 
vn 0.0944882 0.992126 0 
vn 0.0944882 0.992126 0 
vn 0.19685 0.984252 0 
vn 0 1 0 
vn 0 1 0 
vn -0.0944882 0.992126 0 
vn -0.0944882 0.992126 0 
vn -0.19685 0.984252 0 
vn -0.19685 0.984252 0 
vn -0.291339 0.96063 0 
vn -0.291339 0.96063 0 
vn -0.385827 0.92126 0 
vn -0.385827 0.92126 0 
vn -0.472441 0.88189 0 
vn -0.472441 0.88189 0 
vn -0.559055 0.834646 0 
vn -0.559055 0.834646 0 
vn -0.637795 0.771654 0 
vn -0.637795 0.771654 0 
vn -0.708661 0.708661 0 
vn -0.708661 0.708661 0 
vn -0.771654 0.637795 0 
vn -0.771654 0.637795 0 
vn -0.834646 0.559055 0 
vn -0.834646 0.559055 0 
vn -0.88189 0.472441 0 
vn -0.88189 0.472441 0 
vn -0.92126 0.385827 0 
vn -0.92126 0.385827 0 
vn -0.96063 0.291339 0 
vn -0.96063 0.291339 0 
vn -0.984252 0.19685 0 
vn -0.984252 0.19685 0 
vn -0.992126 0.0944882 0 
vn -0.992126 0.0944882 0 
vn -1 0 0 
vn -1 0 0 
vn 1 0 0 
vn 0.992126 -0.0944882 0 
vn 0.992126 -0.0944882 0 
vn 1 0 0 
vn 0.992126 0.0944882 0 
vn 0.992126 0.0944882 0 
vn 0.984252 0.19685 0 
vn 0.984252 0.19685 0 
vn 0.96063 0.291339 0 
vn 0.96063 0.291339 0 
vn 0.92126 0.385827 0 
vn 0.92126 0.385827 0 
vn 0.88189 0.472441 0 
vn 0.88189 0.472441 0 
vn 0.834646 0.559055 0 
vn 0.834646 0.559055 0 
vn 0.771654 0.637795 0 
vn 0.771654 0.637795 0 
vn 0.708661 0.708661 0 
vn 0.708661 0.708661 0 
vn 0.637795 0.771654 0 
vn 0.637795 0.771654 0 
vn 0.559055 0.834646 0 
vn 0.559055 0.834646 0 
vn 0.472441 0.88189 0 
vn 0.472441 0.88189 0 
vn 0.385827 0.92126 0 
vn 0.385827 0.92126 0 
vn 0.291339 0.96063 0 
vn 0.291339 0.96063 0 
vn 0.19685 0.984252 0 
vn 0.811024 -0.582677 0 
vn 0.811024 -0.582677 0 
vn 0.811024 -0.582677 0 
vn 0.811024 -0.582677 0 
vn -0.811024 -0.582677 0 
vn -0.811024 -0.582677 0 
vn -0.811024 -0.582677 0 
vn -0.811024 -0.582677 0 
vn 0.937008 -0.354331 0 
vn 0.937008 -0.354331 0 
vn 0.937008 -0.354331 0 
vn 0.937008 -0.354331 0 
vn -0.937008 -0.354331 0 
vn -0.937008 -0.354331 0 
vn -0.937008 -0.354331 0 
vn -0.937008 -0.354331 0 
vn -1 0 0 
vn -0.992126 -0.0944882 0 
vn -1 0 0 
vn -0.992126 -0.0944882 0 
vn -0.984252 -0.19685 0 
vn -0.984252 -0.19685 0 
vn -0.96063 -0.291339 0 
vn -0.96063 -0.291339 0 
vn -0.92126 -0.385827 0 
vn -0.92126 -0.385827 0 
vn -0.88189 -0.472441 0 
vn -0.88189 -0.472441 0 
vn -0.834646 -0.559055 0 
vn -0.834646 -0.559055 0 
vn -0.771654 -0.637795 0 
vn -0.771654 -0.637795 0 
vn -0.708661 -0.708661 0 
vn -0.708661 -0.708661 0 
vn -0.637795 -0.771654 0 
vn -0.637795 -0.771654 0 
vn -0.559055 -0.834646 0 
vn -0.559055 -0.834646 0 
vn -0.472441 -0.88189 0 
vn -0.472441 -0.88189 0 
vn -0.385827 -0.92126 0 
vn -0.385827 -0.92126 0 
vn -0.291339 -0.96063 0 
vn -0.291339 -0.96063 0 
vn -0.19685 -0.984252 0 
vn -0.19685 -0.984252 0 
vn -0.0944882 -0.992126 0 
vn -0.0944882 -0.992126 0 
vn 0 -1 0 
vn 0 -1 0 
vn 0.0944882 -0.992126 0 
vn 0.0944882 -0.992126 0 
vn 0.19685 -0.984252 0 
vn 0.19685 -0.984252 0 
vn 0.291339 -0.96063 0 
vn 0.291339 -0.96063 0 
vn 0.385827 -0.92126 0 
vn 0.385827 -0.92126 0 
vn 0.472441 -0.88189 0 
vn 0.472441 -0.88189 0 
vn 0.559055 -0.834646 0 
vn 0.559055 -0.834646 0 
vn 0.637795 -0.771654 0 
vn 0.637795 -0.771654 0 
vn 0.708661 -0.708661 0 
vn 0.708661 -0.708661 0 
vn 0.771654 -0.637795 0 
vn 0.771654 -0.637795 0 
vn 0.834646 -0.559055 0 
vn 0.834646 -0.559055 0 
vn 0.88189 -0.472441 0 
vn 0.88189 -0.472441 0 
vn 0.92126 -0.385827 0 
vn 0.92126 -0.385827 0 
vn 0.96063 -0.291339 0 
vn 0.96063 -0.291339 0 
vn 0.984252 -0.19685 0 
vn 0.984252 -0.19685 0 
vn 0.00787402 -0.00787402 1 
vn 0.00787402 -0.00787402 1 
vn 0.00787402 -0.00787402 1 
vn 0.00787402 -0.00787402 1 
vn -0.00787402 -0.00787402 1 
vn -0.00787402 -0.00787402 1 
vn -0.00787402 -0.00787402 1 
vn -0.00787402 -0.00787402 1 
vn 0.00787402 -0.00787402 1 
vn 0.00787402 -0.00787402 1 
vn 0.00787402 -0.00787402 1 
vn 0.00787402 -0.00787402 1 
vn -0.00787402 -0.00787402 1 
vn -0.00787402 -0.00787402 1 
vn -0.00787402 -0.00787402 1 
vn -0.00787402 -0.00787402 1 
vn -0.00787402 0 -1 
vn -0.00787402 0 -1 
vn -0.00787402 0 -1 
vn -0.00787402 0 -1 
vn 0.00787402 0 -1 
vn 0.00787402 0 -1 
vn 0.00787402 0 -1 
vn 0.00787402 0 -1 
vn 0 0 -1 
vn 0 0 -1 
vn 0 0 -1 
vn 0 0 -1 
vn 0 0 -1 
vn 0 0 -1 
vn 0 0 -1 
vn 0 0 -1 
vn -0.00787402 -0.00787402 1 
vn -0.00787402 -0.00787402 1 
vn -0.00787402 -0.00787402 1 
vn -0.00787402 -0.00787402 1 
vn 0.00787402 -0.00787402 1 
vn 0.00787402 -0.00787402 1 
vn 0.00787402 -0.00787402 1 
vn 0.00787402 -0.00787402 1 
vn -0.00787402 -0.00787402 1 
vn -0.00787402 -0.00787402 1 
vn -0.00787402 -0.00787402 1 
vn -0.00787402 -0.00787402 1 
vn 0.00787402 -0.00787402 1 
vn 0.00787402 -0.00787402 1 
vn 0.00787402 -0.00787402 1 
vn 0.00787402 -0.00787402 1 
vn 0 0.00787402 -1 
vn 0 0.00787402 -1 
vn 0 0.00787402 -1 
vn 0 0.00787402 -1 
vn -1 0.00787402 0 
vn -1 0.00787402 0 
vn -1 0.00787402 0 
vn -1 0.00787402 0 
vn -0.00787402 0 1 
vn -0.00787402 0 1 
vn -0.00787402 0 1 
vn -0.00787402 0 1 
vn 0.00787402 0 1 
vn 0.00787402 0 1 
vn 0.00787402 0 1 
vn 0.00787402 0 1 
vn -0.00787402 0 1 
vn -0.00787402 0 1 
vn -0.00787402 0 1 
vn -0.00787402 0 1 
vn 0.00787402 0 1 
vn 0.00787402 0 1 
vn 0.00787402 0 1 
vn 0.00787402 0 1 
vn 1 0 0 
vn 1 0 0 
vn 1 0 0 
vn 1 0 0 
vn -0.00787402 0 -1 
vn -0.00787402 0 -1 
vn -0.00787402 0 -1 
vn -0.00787402 0 -1 
vn 0.00787402 0 -1 
vn 0.00787402 0 -1 
vn 0.00787402 0 -1 
vn 0.00787402 0 -1 
vn -1 0 0 
vn -1 0 0 
vn -1 0 0 
vn -1 0 0 
vn 0 0 1 
vn 0 0 1 
vn 0 0 1 
vn 0 0 1 
vn 0 0 1 
vn 0 0 1 
vn 0 0 1 
vn 0 0 1 
vn 0 0 1 
vn 0 0 1 
vn 0 0 1 
vn 0 0 1 
vn 0 0 1 
vn 0 0 1 
vn 0 0 1 
vn 0 0 1 
vn 0 0 1 
vn 0 0 1 
vn 0 0 1 
vn 0 0 1 
vn 0 0 1 
vn 0 0 1 
vn 0 0 1 
vn 0 0 1 
vn 0 0 1 
vn 0 0 1 
vn 0 0 1 
vn 0 0 1 
vn 0 0 1 
vn 0 0 1 
vn 0 0 1 
vn 0 0 1 
vn 0 0 1 
vn 0 0 1 
vn 0 0 1 
vn 0 0 1 
vn 0 0 1 
vn 0 0 1 
vn 0 0 1 
vn 0 0 1 
vn 0 0 1 
vn 0 0 1 
vn 0 0 1 
vn 0 0 1 
vn 0 0 1 
vn 0 0 1 
vn 0 0 1 
vn 0 0 1 
vn 0 0 1 
vn 0 0 1 
vn 0 0 1 
vn 0 0 1 
vn 0 0 1 
vn 0 0 1 
vn 0 0 1 
vn 0 0 1 
vn 0 0 1 
vn 0 0 1 
vn 0 0 1 
vn 0 0 1 
vn 0 0 1 
vn 0 0 1 
vn 0 0 1 
vn 0 0 1 
vn 0 0 1 
vn 0 0 1 
vn 0 0 1 
vn 0 0 1 
vn 0 0 1 
vn 0 0 1 
vn 0 0 1 
vn 0 0 1 
vn 0 0 1 
vn 0 0 1 
vn 0 0 1 
vn 0 0 1 
vn 0 0 1 
vn 0 0 1 
vn 0 0 1 
vn 0 0 1 
vn 0 0 1 
vn 0 0 1 
vn 0 0 1 
vn 0 0 1 
vn 0 0 1 
vn 0 0 1 
vn 0 0 1 
vn 0 0 1 
vn 0 0 1 
vn 0 0 1 
vn 0 0 1 
vn 0 0 1 
vn 0 0 1 
vn 0 0 1 
vn 0 0 1 
vn 0 0 1 
vn 0 0 1 
vn 0 0 1 
vn 0 0 1 
vn 0 0 1 
vn 0 0 1 
vn 0 0 1 
vn 0 0 1 
vn 0 0 1 
vn 0 0 1 
vn 0 0 1 
vn 0 0 1 
vn 0 0 1 
vn 0 0 1 
vn 0 0 1 
vn 0 0 1 
vn 0 0 1 
vn 0 0 1 
vn 0 0 1 
vn 0 0 1 
vn 0 0 1 
vn 0 0 1 
vn 0 0 1 
vn 0 0 1 
vn 0 0 1 
vn 0 0 1 
vn 0 0 1 
vn 0 0 1 
vn 0 0 1 
vn 0 0 1 
vn 0 0 1 
vn 0 0 1 
vn 0 0 1 
vn 0 0 1 
vn 0 0 1 
vn 0 0 1 
vn 0 0 1 
vn 0 0 1 
vn 0 0 1 
vn 0 0 1 
vn 0 0 1 
vn 0 0 1 
vn 0 0 1 
vn 0 0 1 
vn 0 0 1 
vn 0 0 1 
vn 0 0 1 
vn 0 0 1 
vn 0 0 1 
vn 0 0 1 
vn 0 0 1 
vn 0 0 1 
vn 0 0 1 
vn 0 0 1 
vn 0 0 1 
vn 0 0 1 
vn 0 0 1 
vn 0 0 1 
vn 0 0 1 
vn 0 0 1 
vn 0 0 1 
vn 0 0 1 
vn 0 0 1 
vn 0 0 1 
vn 0 0 1 
vn 0 0 1 
vn 0 0 1 
vn 0 0 1 
vn 0 0 1 
vn 0 0 1 
vn 0 0 1 
vn 0 0 1 
vn 0 0 1 
vn 0 0 1 
vn 0 0 1 
vn 0 0 1 
vn 0 0 1 
vn 0 0 1 
vn 0 0 1 
vn 0 0 1 
vn 0 0 1 
vn 0 0 1 
vn 0 0 1 
vn 0 0 1 
vn 0 0 1 
vn 0 0 1 
vn 0 0 1 
vn 0 0 1 
vn 0 0 1 
vn 0 0 1 
vn 0 0 1 
vn 0 0 1 
vn 0 0 1 
vn 0 0 1 
vn 0 0 1 
vn 0 0 1 
vn 0 0 1 
vn 0 0 1 
vn 0 0 1 
vn 0 0 1 
vn 0 0 1 
vn 0 0 1 
vn 0 0 1 
vn 0 0 1 
vn 0 0 1 
vn 0 0 1 
vn 0 0 1 
vn 0 0 1 
vn 0 0 1 
vn 0 0 1 
vn 0 0 1 
vn 0 0 1 
vn 0 0 1 
vn 0 0 1 
vn 0 0 1 
vn 0 0 1 
vn 0 0 1 
vn 0 0 1 
vn 0 0 1 
vn 0 0 1 
vn 0 0 1 
vn 0 0 1 
vn 0 0 1 
vn 0 0 1 
vn 0 0 1 
vn 0 0 1 
vn 0 0 1 
vn 0 0 1 
vn 0 0 1 
vn 0 0 1 
vn 0 0 1 
vn 0 0 1 
vn 0 0 1 
vn 0 0 1 
vn 0 0 1 
vn 0 0 1 
vn 0 0 1 
vn 0 0 1 
vn 0 0 1 
vn 0 0 1 
vn 0 0 1 
vn 0 0 1 
vn 0 0 1 
vn 0 0 1 
vn 0 0 1 
vn 0 0 1 
vn 0 0 1 
vn 0 0 1 
vn 0 0 1 
vn 0 0 1 
vn 0 0 1 
vn 0 0 1 
vn 0 0 1 
vn 0 0 1 
vn 0 0 1 
vn 0 0 1 
vn 0 0 1 
vn 0 0 1 
vn 0 0 1 
vn 0 0 1 
vn 0 0 1 
vn 0 0 1 
vn 0 0 1 
vn 0 0 1 
vn 0 0 1 
vn 0 0 1 
vn 0 0 1 
vn 0 0 1 
vn 0 0 1 
vn 0 0 1 
vn 0 0 1 
vn 0 0 1 
vn 0 0 1 
vn 0 0 1 
vn 0 0 1 
vn 0 0 1 
vn 0 0 1 
vn 0 0 1 
vn 0 0 1 
vn 0 0 1 
vn 0 0 1 
vn 0 0 1 
vn 0 0 1 
vn 0 0 1 
vn 0.00787402 -0.00787402 1 
vn 0.00787402 -0.00787402 1 
vn 0.00787402 -0.00787402 1 
vn 0.00787402 -0.00787402 1 
vn -0.00787402 -0.00787402 1 
vn -0.00787402 -0.00787402 1 
vn -0.00787402 -0.00787402 1 
vn -0.00787402 -0.00787402 1 
vn 0 0 1 
vn 0 0 1 
vn 0 0 1 
vn 0 0 1 
vn 0 0 1 
vn 0 0 1 
vn 0 0 1 
vn 0 0 1 
vn 0 0 1 
vn 0 0 1 
vn 0 0 1 
vn 0 0 1 
vn 0 0 1 
vn 0 0 1 
vn 0 0 1 
vn 0 0 1 
vn 0 0 1 
vn 0 0 1 
vn 0 0 1 
vn 0 0 1 
vn 0 0 -1 
vn 0 0 -1 
vn 0 0 -1 
vn 0 0 -1 
vn 0 0 -1 
vn 0 0 -1 
vn 0 0 -1 
vn 0 0 -1 
vn 0 0 -1 
vn 0 0 -1 
vn 0 0 -1 
vn 0 0 -1 
vn 0 0 -1 
vn 0 0 -1 
vn 0 0 -1 
vn 0 0 -1 
vn 0 0 -1 
vn 0 0 -1 
vn 0 0 -1 
vn 0 0 -1 
vn 0 0 -1 
vn 0 0 -1 
vn 0 0 -1 
vn 0 0 -1 
vn 0 0 -1 
vn 0 0 -1 
vn 0 0 -1 
vn 0 0 -1 
vn 0 0 -1 
vn 0 0 -1 
vn 0 0 -1 
vn 0 0 -1 
vn 0 0 -1 
vn 0 0 -1 
vn 0 0 -1 
vn 0 0 -1 
vn 0 0 -1 
vn 0 0 -1 
vn 0 0 -1 
vn 0 0 -1 
vn 0 0 -1 
vn 0 0 -1 
vn 0 0 -1 
vn 0 0 -1 
vn 0 0 -1 
vn 0 0 -1 
vn 0 0 -1 
vn 0 0 -1 
vn 0 0 -1 
vn 0 0 -1 
vn 0 0 -1 
vn 0 0 -1 
vn 0 0 -1 
vn 0 0 -1 
vn 0 0 -1 
vn 0 0 -1 
vn 0 0 -1 
vn 0 0 -1 
vn 0 0 -1 
vn 0 0 -1 
vn 0 0 -1 
vn 0 0 -1 
vn 0 0 -1 
vn 0 0 -1 
vn 0 0 -1 
vn 0 0 -1 
vn 0 0 -1 
vn 0 0 -1 
vn 0 0 -1 
vn 0 0 -1 
vn 0 0 -1 
vn 0 0 -1 
vn 0 0 -1 
vn 0 0 -1 
vn 0 0 -1 
vn 0 0 -1 
vn 0 0 -1 
vn 0 0 -1 
vn 0 0 -1 
vn 0 0 -1 
vn 0 0 -1 
vn 0 0 -1 
vn 0 0 -1 
vn 0 0 -1 
vn 0 0 -1 
vn 0 0 -1 
vn 0 0 -1 
vn 0 0 -1 
vn 0 0 -1 
vn 0 0 -1 
vn 0 0 -1 
vn 0 0 -1 
vn 0 0 -1 
vn 0 0 -1 
vn 0 0 -1 
vn 0 0 -1 
vn 0 0 -1 
vn 0 0 -1 
vn 0 0 -1 
vn 0 0 -1 
vn 0 0 -1 
vn 0 0 -1 
vn 0 0 -1 
vn 0 0 -1 
vn 0 0 -1 
vn 0 0 -1 
vn 0 0 -1 
vn 0 0 -1 
vn 0 0 -1 
vn 0 0 -1 
vn 0 0 -1 
vn 0 0 -1 
vn 0 0 -1 
vn 0 0 -1 
vn 0 0 -1 
vn 0 0 -1 
vn 0 0 -1 
vn 0 0 -1 
vn 0 0 -1 
vn 0 0 -1 
vn 0 0 -1 
vn 0 0 -1 
vn 0 0 -1 
vn 0 0 -1 
vn 0 0 -1 
vn 0 0 -1 
vn 0 0 -1 
vn 0 0 -1 
vn 0 0 -1 
vn 0 0 -1 
vn 0 0 -1 
vn 0 0 -1 
vn 0 0 -1 
vn 0 0 -1 
vn 0 0 -1 
vn 0 0 -1 
vn 0 0 -1 
vn 0 0 -1 
vn 0 0 -1 
vn 0 0 -1 
vn 0 0 -1 
vn 0 0 -1 
vn 0 0 -1 
vn 0 0 -1 
vn 0 0 -1 
vn 0 0 -1 
vn 0 0 -1 
vn 0 0 -1 
vn 0 0 -1 
vn 0 0 -1 
vn 0 0 -1 
vn 0 0 -1 
vn 0 0 -1 
vn 0 0 -1 
vn 0 0 -1 
vn 0 0 -1 
vn 0 0 -1 
vn 0 0 -1 
vn 0 0 -1 
vn 0 0 -1 
vn 0 0 -1 
vn 0 0 -1 
vn 0 0 -1 
vn 0 0 -1 
vn 0 0 -1 
vn 0 0 -1 
vn 0 0 -1 
vn 0 0 -1 
vn 0 0 -1 
vn 0 0 -1 
vn 0 0 -1 
vn 0 0 -1 
vn 0 0 -1 
vn 0 0 -1 
vn 0 0 -1 
vn 0 0 -1 
vn 0 0 -1 
vn 0 0 -1 
vn 0 0 -1 
vn 0 0 -1 
vn 0 0 -1 
vn 0 0 -1 
vn 0 0 -1 
vn 0 0 -1 
vn 0 0 -1 
vn 0 0 -1 
vn 0 0 -1 
vn 0 0 -1 
vn 0 0 -1 
vn 0 0 -1 
vn 0 0 -1 
vn 0 0 -1 
vn 0 0 -1 
vn 0 0 -1 
vn 0 0 -1 
vn 0 0 -1 
vn 0 0 -1 
vn 0 0 -1 
vn 0 0 -1 
vn 0 0 -1 
vn 0 0 -1 
vn 0 0 -1 
vn 0 0 -1 
vn 0 0 -1 
vn 0 0 -1 
vn 0 0 -1 
vn 0 0 -1 
vn 0 0 -1 
vn 0 0 -1 
vn 0 0 -1 
vn 0 0 -1 
vn 0 0 -1 
vn 0 0 -1 
vn 0 0 -1 
vn 0 0 -1 
vn 0 0 -1 
vn 0 0 -1 
vn 0 0 -1 
vn 0 0 -1 
vn 0 0 -1 
vn 0 0 -1 
vn 0 0 -1 
vn 0 0 -1 
vn 0 0 -1 
vn 0 0 -1 
vn 0 0 -1 
vn 0 0 -1 
vn 0 0 -1 
vn 0 0 -1 
vn 0 0 -1 
vn 0 0 -1 
vn 0 0 -1 
vn 0 0 -1 
vn 0 0 -1 
vn 0 0 -1 
vn 0 0 -1 
vn 0 0 -1 
vn 0 0 -1 
vn 0 0 -1 
vn 0 0 -1 
vn 0 0 -1 
vn 0 0 -1 
vn 0 0 -1 
vn 0 0 -1 
vn 0 0 -1 
vn 0 0 -1 
vn 0 0 -1 
vn 0 0 -1 
vn 0 0 -1 
vn 0 0 -1 
vn 0 0 -1 
vn 0 0 -1 
vn 0 0 -1 
vn 0 0 -1 
vn 0 0 -1 
vn 0 0 -1 
vn 0 0 -1 
vn 0 0 -1 
vn 0 0 -1 
vn 0 0 -1 
vn 0 0 -1 
vn 0 0 -1 
vn 0 0 -1 
vn 0 0 -1 
vn 0 0 -1 
vn 0 0 -1 
vn 0 0 -1 
vn 0 0 -1 
vn 0 0 -1 
vn 0 0 -1 
vn 0 0 -1 
vn 0 0 -1 
vn 0 0 -1 
vn 0 0 -1 
vn 0 0 -1 
vn 0 0 -1 
vn 0 0 -1 
vn 0 0 -1 
vn 0 0 -1 
vn 0 0 -1 
vn 0 0 -1 
vn 0 0 -1 
vn 0 0 -1 
vn 0 0 -1 
vn 0 0 -1 
vn 0 0 -1 
vn 0 0 -1 
vn 0 0 -1 
vn 0 0 -1 
vn 0 0 -1 
vn 0 0 -1 
vn 0 0 -1 
vn 0 0 -1 
vn 0 0 -1 
vn 0 0 -1 
vn 0 0 -1 
vn 0 0 -1 
vn -0.00787402 0 -1 
vn -0.00787402 0 -1 
vn -0.00787402 0 -1 
vn -0.00787402 0 -1 
vn 0.00787402 0 -1 
vn 0.00787402 0 -1 
vn 0.00787402 0 -1 
vn 0.00787402 0 -1 
vn -0.00787402 0 -1 
vn -0.00787402 0 -1 
vn -0.00787402 0 -1 
vn -0.00787402 0 -1 
vn 0.00787402 0 -1 
vn 0.00787402 0 -1 
vn 0.00787402 0 -1 
vn 0.00787402 0 -1 
vn -0.00787402 0.00787402 -1 
vn -0.00787402 0.00787402 -1 
vn -0.00787402 0.00787402 -1 
vn -0.00787402 0.00787402 -1 
vn 0.00787402 0.00787402 -1 
vn 0.00787402 0.00787402 -1 
vn 0.00787402 0.00787402 -1 
vn 0.00787402 0.00787402 -1 
vn 0.00787402 0 1 
vn 0 0 1 
vn 0 0 1 
vn 0 0 1 
vn 0 0 1 
vn 0.00787402 0 1 
vn 0.00787402 0 1 
vn 0.00787402 0 1 
vn 0.00787402 0 1 
vn 0.00787402 0 1 
vn 0.00787402 0 1 
vn 0 0 1 
vn 0 0 1 
vn 0.00787402 0 1 
vn 0 0 1 
vn -0.00787402 0 1 
vn 0 0 1 
vn -0.00787402 0 1 
vn -0.00787402 0 1 
vn -0.00787402 0 1 
vn -0.00787402 0 1 
vn 0 0 1 
vn 0 0 1 
vn -0.00787402 0 1 
vn -0.00787402 0 1 
vn -0.00787402 0 1 
vn 0 0 1 
vn 0 0 1 
vn -0.00787402 0.00787402 -1 
vn -0.00787402 0.00787402 -1 
vn -0.00787402 0.00787402 -1 
vn -0.00787402 0.00787402 -1 
vn 0.00787402 0.00787402 -1 
vn 0.00787402 0.00787402 -1 
vn 0.00787402 0.00787402 -1 
vn 0.00787402 0.00787402 -1 
vn -0.00787402 -0.00787402 1 
vn -0.00787402 -0.00787402 1 
vn -0.00787402 -0.00787402 1 
vn -0.00787402 -0.00787402 1 
vn -0.00787402 -0.00787402 1 
vn -0.00787402 -0.00787402 1 
vn -0.00787402 -0.00787402 1 
vn -0.00787402 -0.00787402 1 
vn 0.00787402 -0.00787402 1 
vn 0.00787402 -0.00787402 1 
vn 0.00787402 -0.00787402 1 
vn 0.00787402 -0.00787402 1 
vn 0.00787402 -0.00787402 1 
vn 0.00787402 -0.00787402 1 
vn 0.00787402 -0.00787402 1 
vn 0.00787402 -0.00787402 1 
vn 0 0.00787402 1 
vn 0 0.00787402 1 
vn 0 0.00787402 1 
vn 0 0.00787402 1 
vn 1 0.00787402 0 
vn 1 0.00787402 0 
vn 1 0.00787402 0 
vn 1 0.00787402 0 
vn -0.00787402 0.00787402 -1 
vn -0.00787402 0.00787402 -1 
vn -0.00787402 0.00787402 -1 
vn -0.00787402 0.00787402 -1 
vn 0.00787402 0.00787402 -1 
vn 0.00787402 0.00787402 -1 
vn 0.00787402 0.00787402 -1 
vn 0.00787402 0.00787402 -1 
vn 0.937008 0.354331 0 
vn 0.937008 0.354331 0 
vn 0.937008 0.354331 0 
vn 0.937008 0.354331 0 
vn -0.937008 0.354331 0 
vn -0.937008 0.354331 0 
vn -0.937008 0.354331 0 
vn -0.937008 0.354331 0 
vn 0.811024 0.582677 0 
vn 0.811024 0.582677 0 
vn 0.811024 0.582677 0 
vn 0.811024 0.582677 0 
vn -0.811024 0.582677 0 
vn -0.811024 0.582677 0 
vn -0.811024 0.582677 0 
vn -0.811024 0.582677 0 
vn 0 -1 0 
vn 0 -1 0 
vn 0 -1 0 
vn 0 -1 0 
vn 0.354331 -0.937008 0 
vn 0.354331 -0.937008 0 
vn 0.354331 -0.937008 0 
vn 0.354331 -0.937008 0 
vn -0.354331 -0.937008 0 
vn -0.354331 -0.937008 0 
vn -0.354331 -0.937008 0 
vn -0.354331 -0.937008 0 
vn 0.582677 -0.811024 0 
vn 0.582677 -0.811024 0 
vn 0.582677 -0.811024 0 
vn 0.582677 -0.811024 0 
vn -0.582677 -0.811024 0 
vn -0.582677 -0.811024 0 
vn -0.582677 -0.811024 0 
vn -0.582677 -0.811024 0 
vn 0 1 0 
vn 0 1 0 
vn 0 1 0 
vn 0 1 0 

vt 0.375 0.75 
vt 0.125 0.75 
vt 0.125 0.5 
vt 0.375 0.5 
vt 0.875 0.75 
vt 0.625 0.5 
vt 0.625 0.75 
vt 0.875 0.5 
vt 0.875 0.75 
vt 0.625 0.5 
vt 0.875 0.5 
vt 0.625 0.75 
vt 0.875 0.75 
vt 0.625 0.5 
vt 0.625 0.75 
vt 0.875 0.5 
vt 0.875 0.75 
vt 0.625 0.5 
vt 0.875 0.5 
vt 0.625 0.75 
vt 0.875 0.5 
vt 0.875 0.75 
vt 0.625 0.5 
vt 0.625 0.75 
vt 0.265625 1 
vt 0.265625 0.5 
vt 0.28125 0.5 
vt 0.25 1 
vt 0.25 0.5 
vt 0.234375 1 
vt 0.234375 0.5 
vt 0.21875 1 
vt 0.21875 0.5 
vt 0.203125 1 
vt 0.203125 0.5 
vt 0.1875 0.5 
vt 0.1875 1 
vt 0.171875 1 
vt 0.171875 0.5 
vt 0.15625 0.5 
vt 0.15625 1 
vt 0.140625 1 
vt 0.140625 0.5 
vt 0.125 0.5 
vt 0.125 1 
vt 0.109375 1 
vt 0.109375 0.5 
vt 0.09375 0.5 
vt 0.09375 1 
vt 0.078125 1 
vt 0.078125 0.5 
vt 0.0625 0.5 
vt 0.0625 1 
vt 0.046875 0.5 
vt 0.046875 1 
vt 0.03125 0.5 
vt 0.03125 1 
vt 0.015625 0.5 
vt 0.015625 1 
vt 0 0.5 
vt 0 1 
vt 0.5 1 
vt 0.515625 0.5 
vt 0.515625 1 
vt 0.5 0.5 
vt 0.484375 1 
vt 0.484375 0.5 
vt 0.46875 1 
vt 0.46875 0.5 
vt 0.453125 1 
vt 0.453125 0.5 
vt 0.4375 1 
vt 0.4375 0.5 
vt 0.421875 1 
vt 0.421875 0.5 
vt 0.40625 1 
vt 0.40625 0.5 
vt 0.390625 1 
vt 0.390625 0.5 
vt 0.375 1 
vt 0.375 0.5 
vt 0.359375 1 
vt 0.359375 0.5 
vt 0.34375 1 
vt 0.34375 0.5 
vt 0.328125 1 
vt 0.328125 0.5 
vt 0.3125 1 
vt 0.3125 0.5 
vt 0.296875 1 
vt 0.296875 0.5 
vt 0.28125 1 
vt 0.625 0.25 
vt 0.375 0.25 
vt 0.625 0.5 
vt 0.375 0.5 
vt 0.625 0.5 
vt 0.375 0.25 
vt 0.625 0.25 
vt 0.375 0.5 
vt 0.625 0.25 
vt 0.375 0.25 
vt 0.625 0.5 
vt 0.375 0.5 
vt 0.625 0.5 
vt 0.375 0.25 
vt 0.625 0.25 
vt 0.375 0.5 
vt 1 1 
vt 0.984375 0.5 
vt 1 0.5 
vt 0.984375 1 
vt 0.96875 0.5 
vt 0.96875 1 
vt 0.953125 0.5 
vt 0.953125 1 
vt 0.9375 0.5 
vt 0.9375 1 
vt 0.921875 0.5 
vt 0.921875 1 
vt 0.90625 1 
vt 0.90625 0.5 
vt 0.890625 0.5 
vt 0.890625 1 
vt 0.875 1 
vt 0.875 0.5 
vt 0.859375 0.5 
vt 0.859375 1 
vt 0.84375 1 
vt 0.84375 0.5 
vt 0.828125 0.5 
vt 0.828125 1 
vt 0.8125 0.5 
vt 0.8125 1 
vt 0.796875 1 
vt 0.796875 0.5 
vt 0.78125 1 
vt 0.78125 0.5 
vt 0.765625 1 
vt 0.765625 0.5 
vt 0.75 1 
vt 0.75 0.5 
vt 0.734375 1 
vt 0.734375 0.5 
vt 0.71875 1 
vt 0.71875 0.5 
vt 0.703125 1 
vt 0.703125 0.5 
vt 0.6875 1 
vt 0.6875 0.5 
vt 0.671875 1 
vt 0.671875 0.5 
vt 0.65625 1 
vt 0.65625 0.5 
vt 0.640625 1 
vt 0.640625 0.5 
vt 0.625 1 
vt 0.625 0.5 
vt 0.609375 1 
vt 0.609375 0.5 
vt 0.59375 1 
vt 0.59375 0.5 
vt 0.578125 1 
vt 0.578125 0.5 
vt 0.5625 1 
vt 0.5625 0.5 
vt 0.546875 1 
vt 0.546875 0.5 
vt 0.53125 1 
vt 0.53125 0.5 
vt 0.546463 0.511621 
vt 0.576649 0.482074 
vt 0.555666 0.512811 
vt 0.574614 0.470141 
vt 0.410132 0.511621 
vt 0.379946 0.482074 
vt 0.38198 0.470141 
vt 0.400928 0.512811 
vt 0.593803 0.481286 
vt 0.579211 0.523796 
vt 0.567427 0.518616 
vt 0.615354 0.484456 
vt 0.362792 0.481286 
vt 0.389167 0.518616 
vt 0.377384 0.523796 
vt 0.341241 0.484456 
vt 0.886369 0.605521 
vt 0.904558 0.604306 
vt 0.886369 0.600022 
vt 0.904558 0.605521 
vt 0.0702258 0.605521 
vt 0.0520363 0.604306 
vt 0.0520363 0.605521 
vt 0.0702258 0.600022 
vt 0.54246 0.605521 
vt 0.495307 0.58014 
vt 0.47881 0.605521 
vt 0.54246 0.58014 
vt 0.414134 0.605521 
vt 0.461287 0.58014 
vt 0.414134 0.58014 
vt 0.477785 0.605521 
vt 0.333058 0.493899 
vt 0.36664 0.532077 
vt 0.359063 0.536819 
vt 0.310388 0.497763 
vt 0.623537 0.493899 
vt 0.597532 0.536819 
vt 0.589955 0.532077 
vt 0.646207 0.497763 
vt 0.297064 0.504566 
vt 0.350036 0.545987 
vt 0.344481 0.549326 
vt 0.271529 0.511627 
vt 0.659531 0.504566 
vt 0.612113 0.549326 
vt 0.606558 0.545987 
vt 0.685066 0.511627 
vt 0.375 0.5 
vt 0.625 0.75 
vt 0.375 0.75 
vt 0.625 0.5 
vt 0.375 0.25 
vt 0.625 0.5 
vt 0.375 0.5 
vt 0.625 0.25 
vt 0.260668 0.518847 
vt 0.338458 0.55546 
vt 0.33439 0.558422 
vt 0.233641 0.529627 
vt 0.618137 0.55546 
vt 0.695927 0.518847 
vt 0.622204 0.558422 
vt 0.722953 0.529627 
vt 0.32887 0.566711 
vt 0.188599 0.552338 
vt 0.233208 0.540264 
vt 0.32906 0.566291 
vt 0.627534 0.566291 
vt 0.723387 0.540264 
vt 0.627724 0.566711 
vt 0.767996 0.552338 
vt 0.625 1 
vt 0.375 0.75 
vt 0.625 0.75 
vt 0.375 1 
vt 0.855802 0.586164 
vt 0.78283 0.565262 
vt 0.798976 0.583979 
vt 0.856925 0.587564 
vt 0.173764 0.565262 
vt 0.100792 0.586164 
vt 0.157618 0.583979 
vt 0.0996695 0.587564 
vt 0.625 0.5 
vt 0.375 0.25 
vt 0.625 0.25 
vt 0.375 0.5 
vt 0.46875 0.5 
vt 0.46875 0.5 
vt 0.46875 1 
vt 0.46875 1 
vt 0.4375 1 
vt 0.4375 1 
vt 0.40625 1 
vt 0.375 1 
vt 0.40625 1 
vt 0.03125 0.5 
vt 0.03125 0.5 
vt 0.03125 1 
vt 0.0625 0.5 
vt 0.0625 0.5 
vt 0.09375 0.5 
vt 0.09375 0.5 
vt 0.125 0.5 
vt 0.125 0.5 
vt 0.15625 0.5 
vt 0.15625 0.5 
vt 0.1875 0.5 
vt 0.1875 0.5 
vt 0.21875 0.5 
vt 0.21875 0.5 
vt 0.25 0.5 
vt 0.25 0.5 
vt 0.28125 0.5 
vt 0.03125 0.5 
vt 0.03125 1 
vt 0.03125 1 
vt 0.0625 1 
vt 0.03125 1 
vt 0.0625 1 
vt 0.09375 1 
vt 0.09375 1 
vt 0.125 1 
vt 0.125 1 
vt 0.15625 1 
vt 0.1875 1 
vt 0.15625 1 
vt 0.1875 1 
vt 0.21875 1 
vt 0.21875 1 
vt 0.25 1 
vt 0.25 1 
vt 0.28125 1 
vt 0.125 1 
vt 0.15625 1 
vt 0.15625 1 
vt 0.25 1 
vt 0.28125 1 
vt 0.28125 1 
vt 0.3125 1 
vt 0.3125 1 
vt 0.34375 1 
vt 0.34375 1 
vt 0.375 1 
vt 0.375 1 
vt 0.40625 1 
vt 0.40625 1 
vt 0.4375 1 
vt 0.4375 1 
vt 0.46875 1 
vt 0.46875 1 
vt 0.25 0.5 
vt 0.28125 0.5 
vt 0.28125 0.5 
vt 0.3125 0.5 
vt 0.28125 0.5 
vt 0.3125 0.5 
vt 0.3125 0.5 
vt 0.34375 0.5 
vt 0.34375 0.5 
vt 0.375 0.5 
vt 0.34375 0.5 
vt 0.375 0.5 
vt 0.375 0.5 
vt 0.40625 0.5 
vt 0.375 0.5 
vt 0.40625 0.5 
vt 0.40625 0.5 
vt 0.4375 0.5 
vt 0.40625 0.5 
vt 0.4375 0.5 
vt 0.4375 0.5 
vt 0.46875 0.5 
vt 0.46875 0.5 
vt 0.822425 0.264406 
vt 0.681777 0.278259 
vt 0.811399 0.291026 
vt 0.818223 0.278259 
vt 0.815125 0.28481 
vt 0.820664 0.271436 
vt 0.677575 0.264406 
vt 0.679335 0.271436 
vt 0.676511 0.257238 
vt 0.676511 0.242762 
vt 0.676156 0.25 
vt 0.78481 0.315125 
vt 0.807082 0.296846 
vt 0.796846 0.307082 
vt 0.802216 0.302216 
vt 0.791025 0.311399 
vt 0.681777 0.221741 
vt 0.677575 0.235594 
vt 0.679335 0.228564 
vt 0.71519 0.315125 
vt 0.703154 0.307082 
vt 0.708974 0.311399 
vt 0.697784 0.302216 
vt 0.688601 0.291026 
vt 0.692918 0.296846 
vt 0.684875 0.28481 
vt 0.764406 0.322425 
vt 0.778259 0.318223 
vt 0.771436 0.320664 
vt 0.728564 0.320664 
vt 0.721741 0.318223 
vt 0.735594 0.322425 
vt 0.757238 0.323489 
vt 0.742762 0.323489 
vt 0.75 0.323844 
vt 0.815125 0.21519 
vt 0.822425 0.235594 
vt 0.823489 0.242762 
vt 0.823488 0.257238 
vt 0.823844 0.25 
vt 0.818223 0.221741 
vt 0.820664 0.228564 
vt 0.764406 0.177575 
vt 0.688601 0.208974 
vt 0.684875 0.21519 
vt 0.71519 0.184875 
vt 0.697784 0.197784 
vt 0.692918 0.203154 
vt 0.708974 0.188601 
vt 0.703154 0.192918 
vt 0.728564 0.179335 
vt 0.721741 0.181777 
vt 0.735594 0.177575 
vt 0.75 0.176156 
vt 0.742762 0.176511 
vt 0.757238 0.176511 
vt 0.778259 0.181777 
vt 0.771436 0.179335 
vt 0.78481 0.184875 
vt 0.796846 0.192918 
vt 0.791026 0.188601 
vt 0.802216 0.197784 
vt 0.811399 0.208974 
vt 0.807082 0.203154 
vt 0.75 0.49 
vt 0.767874 0.43148 
vt 0.75 0.432358 
vt 0.773524 0.488844 
vt 0.726476 0.488844 
vt 0.796822 0.485388 
vt 0.732126 0.43148 
vt 0.785576 0.428854 
vt 0.703178 0.485388 
vt 0.802936 0.424506 
vt 0.714424 0.428854 
vt 0.819668 0.479666 
vt 0.680332 0.479666 
vt 0.841844 0.471731 
vt 0.697064 0.424506 
vt 0.819785 0.418477 
vt 0.680215 0.418477 
vt 0.835963 0.410825 
vt 0.658156 0.471731 
vt 0.863135 0.461661 
vt 0.664037 0.410825 
vt 0.851313 0.401625 
vt 0.636865 0.461661 
vt 0.883337 0.449553 
vt 0.648687 0.401625 
vt 0.865687 0.390965 
vt 0.616663 0.449553 
vt 0.902254 0.435522 
vt 0.597746 0.435522 
vt 0.919706 0.419706 
vt 0.634313 0.390965 
vt 0.878947 0.378946 
vt 0.621053 0.378947 
vt 0.890965 0.365687 
vt 0.580294 0.419706 
vt 0.935522 0.402254 
vt 0.609035 0.365687 
vt 0.901625 0.351313 
vt 0.564478 0.402254 
vt 0.949553 0.383337 
vt 0.550447 0.383337 
vt 0.961661 0.363135 
vt 0.598375 0.351313 
vt 0.910826 0.335963 
vt 0.589174 0.335963 
vt 0.918477 0.319785 
vt 0.538339 0.363135 
vt 0.971731 0.341844 
vt 0.528269 0.341844 
vt 0.924505 0.302936 
vt 0.581523 0.319785 
vt 0.979666 0.319668 
vt 0.520334 0.319668 
vt 0.985388 0.296822 
vt 0.575494 0.302936 
vt 0.928854 0.285576 
vt 0.571146 0.285576 
vt 0.93148 0.267874 
vt 0.514612 0.296822 
vt 0.988844 0.273524 
vt 0.56852 0.267874 
vt 0.99 0.25 
vt 0.511156 0.273524 
vt 0.932358 0.25 
vt 0.51 0.25 
vt 0.93148 0.232126 
vt 0.567642 0.25 
vt 0.988844 0.226476 
vt 0.56852 0.232126 
vt 0.985388 0.203178 
vt 0.511156 0.226476 
vt 0.928854 0.214424 
vt 0.514612 0.203178 
vt 0.924505 0.197064 
vt 0.571146 0.214424 
vt 0.979666 0.180332 
vt 0.520334 0.180332 
vt 0.918477 0.180215 
vt 0.575494 0.197064 
vt 0.971731 0.158156 
vt 0.581523 0.180215 
vt 0.961661 0.136865 
vt 0.528269 0.158156 
vt 0.910825 0.164037 
vt 0.589175 0.164037 
vt 0.901625 0.148687 
vt 0.538339 0.136865 
vt 0.949553 0.116663 
vt 0.550447 0.116663 
vt 0.890964 0.134313 
vt 0.598375 0.148687 
vt 0.935522 0.0977456 
vt 0.564478 0.0977456 
vt 0.919706 0.0802944 
vt 0.609035 0.134313 
vt 0.878946 0.121053 
vt 0.621054 0.121053 
vt 0.865687 0.109035 
vt 0.580294 0.0802944 
vt 0.902254 0.0644775 
vt 0.634313 0.109035 
vt 0.851313 0.0983748 
vt 0.597746 0.0644775 
vt 0.883337 0.0504473 
vt 0.648687 0.0983748 
vt 0.835963 0.0891746 
vt 0.616663 0.0504473 
vt 0.863135 0.0383389 
vt 0.664037 0.0891746 
vt 0.841844 0.0282689 
vt 0.636865 0.0383389 
vt 0.819785 0.0815232 
vt 0.658156 0.0282689 
vt 0.802936 0.0754942 
vt 0.680215 0.0815231 
vt 0.819668 0.0203343 
vt 0.697064 0.0754942 
vt 0.796822 0.0146115 
vt 0.680332 0.0203343 
vt 0.785576 0.071146 
vt 0.714424 0.071146 
vt 0.767874 0.0685201 
vt 0.703178 0.0146115 
vt 0.773524 0.0111557 
vt 0.732126 0.0685201 
vt 0.75 0.00999999 
vt 0.726476 0.0111557 
vt 0.75 0.067642 
vt 0.635904 0.573805 
vt 0.782692 0.566486 
vt 0.635965 0.574255 
vt 0.799049 0.582767 
vt 0.32063 0.574255 
vt 0.157546 0.582767 
vt 0.173902 0.566486 
vt 0.320691 0.573805 
vt 0.625 0.25 
vt 0.375 0 
vt 0.625 0 
vt 0.375 0.25 
vt 0.625 0.25 
vt 0.375 0.25 
vt 0.375 0 
vt 0.625 0 
vt 0.625 0.25 
vt 0.375 0.25 
vt 0.375 0 
vt 0.625 0 
vt 0.625 0.25 
vt 0.375 0 
vt 0.375 0.25 
vt 0.625 0 
vt 0.625 0.25 
vt 0.375 0 
vt 0.375 0.25 
vt 0.625 0 
vt 0.03125 1 
vt 0.03125 1 
vt 0.03125 0.5 
vt 0.03125 1 
vt 0.03125 0.5 
vt 0.03125 0.5 
vt 0.0625 0.5 
vt 0.0625 0.5 
vt 0.09375 0.5 
vt 0.0625 1 
vt 0.03125 1 
vt 0.0625 1 
vt 0.09375 1 
vt 0.09375 1 
vt 0.09375 0.5 
vt 0.0625 0.5 
vt 0.09375 0.5 
vt 0.125 0.5 
vt 0.125 0.5 
vt 0.125 0.5 
vt 0.15625 0.5 
vt 0.15625 0.5 
vt 0.125 0.5 
vt 0.1875 0.5 
vt 0.1875 0.5 
vt 0.21875 0.5 
vt 0.21875 0.5 
vt 0.25 0.5 
vt 0.25 0.5 
vt 0.28125 0.5 
vt 0.28125 0.5 
vt 0.3125 0.5 
vt 0.3125 0.5 
vt 0.34375 0.5 
vt 0.3125 0.5 
vt 0.3125 0.5 
vt 0.34375 0.5 
vt 0.375 0.5 
vt 0.375 0.5 
vt 0.375 0.5 
vt 0.40625 0.5 
vt 0.40625 0.5 
vt 0.375 0.5 
vt 0.4375 0.5 
vt 0.4375 0.5 
vt 0.46875 0.5 
vt 0.46875 1 
vt 0.46875 0.5 
vt 0.46875 1 
vt 0.4375 1 
vt 0.4375 1 
vt 0.40625 1 
vt 0.40625 1 
vt 0.375 1 
vt 0.375 1 
vt 0.4375 0.5 
vt 0.46875 0.5 
vt 0.46875 0.5 
vt 0.09375 1 
vt 0.125 1 
vt 0.125 1 
vt 0.15625 1 
vt 0.09375 1 
vt 0.125 1 
vt 0.15625 1 
vt 0.15625 1 
vt 0.1875 1 
vt 0.1875 1 
vt 0.21875 1 
vt 0.21875 1 
vt 0.25 1 
vt 0.25 1 
vt 0.28125 1 
vt 0.28125 1 
vt 0.3125 1 
vt 0.28125 1 
vt 0.3125 1 
vt 0.28125 1 
vt 0.34375 1 
vt 0.34375 1 
vt 0.375 1 
vt 0.375 1 
vt 0.34375 1 
vt 0.3125 1 
vt 0.3125 1 
vt 0.28481 0.315125 
vt 0.181777 0.278259 
vt 0.311399 0.291026 
vt 0.318223 0.278259 
vt 0.315125 0.28481 
vt 0.320664 0.271436 
vt 0.322425 0.264406 
vt 0.307082 0.296846 
vt 0.296846 0.307082 
vt 0.302216 0.302216 
vt 0.291026 0.311399 
vt 0.177575 0.264406 
vt 0.179336 0.271436 
vt 0.176511 0.257238 
vt 0.176511 0.242762 
vt 0.176156 0.25 
vt 0.181777 0.221741 
vt 0.177575 0.235594 
vt 0.179336 0.228564 
vt 0.21519 0.315125 
vt 0.203154 0.307082 
vt 0.208974 0.311399 
vt 0.197784 0.302216 
vt 0.188601 0.291026 
vt 0.192918 0.296846 
vt 0.184875 0.28481 
vt 0.264406 0.322425 
vt 0.278259 0.318223 
vt 0.271436 0.320664 
vt 0.228564 0.320664 
vt 0.221741 0.318223 
vt 0.235594 0.322425 
vt 0.257238 0.323489 
vt 0.242762 0.323489 
vt 0.25 0.323844 
vt 0.315125 0.21519 
vt 0.322425 0.235594 
vt 0.323489 0.242762 
vt 0.323489 0.257238 
vt 0.323844 0.25 
vt 0.318223 0.221741 
vt 0.320664 0.228564 
vt 0.264406 0.177575 
vt 0.188601 0.208974 
vt 0.184875 0.21519 
vt 0.21519 0.184875 
vt 0.197784 0.197784 
vt 0.192918 0.203154 
vt 0.208974 0.188601 
vt 0.203154 0.192918 
vt 0.228564 0.179335 
vt 0.221741 0.181777 
vt 0.235594 0.177575 
vt 0.25 0.176156 
vt 0.242762 0.176511 
vt 0.257238 0.176511 
vt 0.278259 0.181777 
vt 0.271436 0.179335 
vt 0.28481 0.184875 
vt 0.296846 0.192918 
vt 0.291026 0.188601 
vt 0.302216 0.197784 
vt 0.311399 0.208974 
vt 0.307082 0.203154 
vt 0.267874 0.43148 
vt 0.25 0.49 
vt 0.25 0.432358 
vt 0.226476 0.488844 
vt 0.273524 0.488844 
vt 0.232126 0.43148 
vt 0.296822 0.485388 
vt 0.203178 0.485388 
vt 0.285576 0.428854 
vt 0.214424 0.428854 
vt 0.302936 0.424506 
vt 0.180332 0.479666 
vt 0.319668 0.479666 
vt 0.197064 0.424506 
vt 0.341844 0.471731 
vt 0.180215 0.418477 
vt 0.319785 0.418477 
vt 0.158156 0.471731 
vt 0.335963 0.410825 
vt 0.164037 0.410825 
vt 0.363135 0.461661 
vt 0.136865 0.461661 
vt 0.351313 0.401625 
vt 0.148687 0.401625 
vt 0.383337 0.449553 
vt 0.116663 0.449553 
vt 0.365687 0.390965 
vt 0.0977456 0.435522 
vt 0.402254 0.435522 
vt 0.134313 0.390965 
vt 0.419706 0.419706 
vt 0.121053 0.378946 
vt 0.378947 0.378947 
vt 0.0802944 0.419706 
vt 0.390965 0.365687 
vt 0.109035 0.365687 
vt 0.435522 0.402254 
vt 0.0644775 0.402254 
vt 0.401625 0.351313 
vt 0.0504473 0.383337 
vt 0.449553 0.383337 
vt 0.0983748 0.351313 
vt 0.461661 0.363135 
vt 0.0891746 0.335963 
vt 0.410825 0.335963 
vt 0.0383389 0.363135 
vt 0.418477 0.319785 
vt 0.0282689 0.341844 
vt 0.471731 0.341844 
vt 0.0815231 0.319785 
vt 0.424506 0.302936 
vt 0.0203343 0.319668 
vt 0.479666 0.319668 
vt 0.0754942 0.302936 
vt 0.485388 0.296822 
vt 0.0711459 0.285576 
vt 0.428854 0.285576 
vt 0.0146115 0.296822 
vt 0.43148 0.267874 
vt 0.06852 0.267874 
vt 0.488844 0.273524 
vt 0.0111557 0.273524 
vt 0.49 0.25 
vt 0.01 0.25 
vt 0.432358 0.25 
vt 0.067642 0.25 
vt 0.43148 0.232126 
vt 0.0685201 0.232126 
vt 0.488844 0.226476 
vt 0.0111557 0.226476 
vt 0.485388 0.203178 
vt 0.0146115 0.203178 
vt 0.428854 0.214424 
vt 0.0711459 0.214424 
vt 0.424506 0.197064 
vt 0.0203343 0.180332 
vt 0.479666 0.180332 
vt 0.0754942 0.197064 
vt 0.418477 0.180215 
vt 0.0815232 0.180215 
vt 0.471731 0.158156 
vt 0.0282689 0.158156 
vt 0.461661 0.136865 
vt 0.0891746 0.164037 
vt 0.410825 0.164037 
vt 0.0383389 0.136865 
vt 0.401625 0.148687 
vt 0.0504473 0.116663 
vt 0.449553 0.116663 
vt 0.0983748 0.148687 
vt 0.390965 0.134313 
vt 0.0644775 0.0977456 
vt 0.435522 0.0977456 
vt 0.109035 0.134313 
vt 0.419706 0.0802944 
vt 0.121053 0.121053 
vt 0.378947 0.121053 
vt 0.0802944 0.0802944 
vt 0.365687 0.109035 
vt 0.134313 0.109035 
vt 0.402254 0.0644775 
vt 0.0977456 0.0644775 
vt 0.351313 0.0983748 
vt 0.148687 0.0983748 
vt 0.383337 0.0504473 
vt 0.116663 0.0504473 
vt 0.335963 0.0891746 
vt 0.164037 0.0891746 
vt 0.363135 0.0383389 
vt 0.136865 0.0383389 
vt 0.341844 0.0282689 
vt 0.158156 0.0282689 
vt 0.319785 0.0815232 
vt 0.180215 0.0815231 
vt 0.302936 0.0754942 
vt 0.197064 0.0754942 
vt 0.319668 0.0203343 
vt 0.180332 0.0203343 
vt 0.296822 0.0146115 
vt 0.214424 0.071146 
vt 0.285576 0.071146 
vt 0.203178 0.0146115 
vt 0.267874 0.0685201 
vt 0.232126 0.0685201 
vt 0.273524 0.0111557 
vt 0.226476 0.0111557 
vt 0.25 0.00999999 
vt 0.25 0.067642 
vt 0.625 0.75 
vt 0.375 0.5 
vt 0.625 0.5 
vt 0.375 0.75 
vt 0.625 0.5 
vt 0.375 0.75 
vt 0.375 0.5 
vt 0.625 0.75 
vt 0.625 0.5 
vt 0.375 0.75 
vt 0.375 0.5 
vt 0.625 0.75 
vt 0.375 0.75 
vt 0.625 0.5 
vt 0.375 0.5 
vt 0.625 0.75 
vt 0.375 0.75 
vt 0.625 0.5 
vt 0.375 0.5 
vt 0.625 0.75 
vt 0.776266 0.53746 
vt 0.723204 0.539055 
vt 0.768726 0.553488 
vt 0.777389 0.53886 
vt 0.187869 0.553488 
vt 0.23339 0.539055 
vt 0.180329 0.53746 
vt 0.179206 0.53886 
vt 0.727879 0.517165 
vt 0.695647 0.517636 
vt 0.723835 0.530638 
vt 0.729265 0.518305 
vt 0.232759 0.530638 
vt 0.260948 0.517636 
vt 0.228716 0.517165 
vt 0.227329 0.518305 
vt 0.686055 0.498831 
vt 0.659025 0.50342 
vt 0.686196 0.51241 
vt 0.687725 0.499489 
vt 0.270398 0.51241 
vt 0.29757 0.50342 
vt 0.270539 0.498831 
vt 0.268869 0.499489 
vt 0.54246 0.602432 
vt 0.484502 0.602432 
vt 0.497306 0.582732 
vt 0.496232 0.580729 
vt 0.48083 0.604424 
vt 0.54246 0.604424 
vt 0.88328 0.602432 
vt 0.885272 0.604424 
vt 0.885272 0.601056 
vt 0.541567 0.583183 
vt 0.541635 0.581191 
vt 0.525792 0.533237 
vt 0.527001 0.533237 
vt 0.88328 0.602937 
vt 0.472093 0.602432 
vt 0.414134 0.602432 
vt 0.459288 0.582732 
vt 0.415028 0.583183 
vt 0.414134 0.604424 
vt 0.0733149 0.602432 
vt 0.0713221 0.604424 
vt 0.475765 0.604424 
vt 0.460363 0.580729 
vt 0.0733148 0.602937 
vt 0.0713221 0.601056 
vt 0.41496 0.581191 
vt 0.430802 0.533237 
vt 0.429594 0.533237 
vt 0.649336 0.482171 
vt 0.622815 0.492881 
vt 0.647266 0.49847 
vt 0.651856 0.482659 
vt 0.309328 0.49847 
vt 0.33378 0.492881 
vt 0.307259 0.482171 
vt 0.304739 0.482659 
vt 0.417032 0.524907 
vt 0.402112 0.569571 
vt 0.416603 0.524907 
vt 0.383319 0.569571 
vt 0.416174 0.524907 
vt 0.364525 0.569571 
vt 0.415745 0.524907 
vt 0.345732 0.569571 
vt 0.539992 0.524907 
vt 0.573276 0.569571 
vt 0.554482 0.569571 
vt 0.539562 0.524907 
vt 0.592069 0.569571 
vt 0.540421 0.524907 
vt 0.54085 0.524907 
vt 0.610863 0.569571 
vt 0.375 0 
vt 0.625 0.25 
vt 0.375 0.25 
vt 0.625 0 
vt 0.375 0.75 
vt 0.625 1 
vt 0.375 1 
vt 0.625 0.75 
vt 0.613554 0.469802 
vt 0.592983 0.480341 
vt 0.616585 0.484911 
vt 0.616074 0.47029 
vt 0.34001 0.484911 
vt 0.363611 0.480341 
vt 0.34304 0.469802 
vt 0.34052 0.47029 
vt 0.625 1 
vt 0.375 0.75 
vt 0.625 0.75 
vt 0.375 1 
vt 0.625 0.75 
vt 0.375 0.75 
vt 0.625 1 
vt 0.375 1 
vt 0.625 1 
vt 0.375 0.75 
vt 0.625 0.75 
vt 0.375 1 
vt 0.625 0.75 
vt 0.375 1 
vt 0.625 1 
vt 0.375 0.75 
vt 0.125 0.75 
vt 0.125 0.5 
vt 0.375 0.75 
vt 0.375 0.5 
vt 0.125 0.75 
vt 0.125 0.5 
vt 0.375 0.75 
vt 0.375 0.5 
vt 0.375 0.75 
vt 0.375 0.5 
vt 0.125 0.5 
vt 0.125 0.75 
vt 0.125 0.75 
vt 0.125 0.5 
vt 0.375 0.75 
vt 0.375 0.5 
vt 0.375 0.75 
vt 0.375 0.5 
vt 0.125 0.5 
vt 0.125 0.75 
vt 0.875 0.5 
vt 0.875 0.75 
vt 0.625 0.5 
vt 0.625 0.75 

usemtl Handle1Mtl

f 1/1/1 2/2/2 3/3/3 
f 1/1/1 3/3/3 4/4/4 
f 5/5/5 6/6/6 7/7/7 
f 6/6/6 5/5/5 8/8/8 
f 9/9/9 10/10/10 11/11/11 
f 10/10/10 9/9/9 12/12/12 
f 13/13/13 14/14/14 15/15/15 
f 14/14/14 13/13/13 16/16/16 
f 17/17/17 18/18/18 19/19/19 
f 18/18/18 17/17/17 20/20/20 
f 21/21/21 22/22/22 23/23/23 
f 23/23/23 22/22/22 24/24/24 
f 25/25/25 26/26/26 27/27/27 
f 28/28/28 26/26/26 25/25/25 
f 28/28/28 29/29/29 26/26/26 
f 30/30/30 29/29/29 28/28/28 
f 30/30/30 31/31/31 29/29/29 
f 32/32/32 31/31/31 30/30/30 
f 32/32/32 33/33/33 31/31/31 
f 34/34/34 33/33/33 32/32/32 
f 34/34/34 35/35/35 33/33/33 
f 34/34/34 36/36/36 35/35/35 
f 36/36/36 34/34/34 37/37/37 
f 38/38/38 36/36/36 37/37/37 
f 38/38/38 39/39/39 36/36/36 
f 38/38/38 40/40/40 39/39/39 
f 40/40/40 38/38/38 41/41/41 
f 42/42/42 40/40/40 41/41/41 
f 42/42/42 43/43/43 40/40/40 
f 42/42/42 44/44/44 43/43/43 
f 44/44/44 42/42/42 45/45/45 
f 46/46/46 44/44/44 45/45/45 
f 44/44/44 46/46/46 47/47/47 
f 46/46/46 48/48/48 47/47/47 
f 48/48/48 46/46/46 49/49/49 
f 49/49/49 50/50/50 48/48/48 
f 48/48/48 50/50/50 51/51/51 
f 50/50/50 52/52/52 51/51/51 
f 52/52/52 50/50/50 53/53/53 
f 53/53/53 54/54/54 52/52/52 
f 54/54/54 53/53/53 55/55/55 
f 55/55/55 56/56/56 54/54/54 
f 56/56/56 55/55/55 57/57/57 
f 57/57/57 58/58/58 56/56/56 
f 58/58/58 57/57/57 59/59/59 
f 59/59/59 60/60/60 58/58/58 
f 60/60/60 59/59/59 61/61/61 
f 62/62/62 63/63/63 64/64/64 
f 62/62/62 65/65/65 63/63/63 
f 66/66/66 65/65/65 62/62/62 
f 66/66/66 67/67/67 65/65/65 
f 68/68/68 67/67/67 66/66/66 
f 68/68/68 69/69/69 67/67/67 
f 70/70/70 69/69/69 68/68/68 
f 70/70/70 71/71/71 69/69/69 
f 72/72/72 71/71/71 70/70/70 
f 72/72/72 73/73/73 71/71/71 
f 74/74/74 73/73/73 72/72/72 
f 74/74/74 75/75/75 73/73/73 
f 76/76/76 75/75/75 74/74/74 
f 76/76/76 77/77/77 75/75/75 
f 78/78/78 77/77/77 76/76/76 
f 78/78/78 79/79/79 77/77/77 
f 80/80/80 79/79/79 78/78/78 
f 80/80/80 81/81/81 79/79/79 
f 82/82/82 81/81/81 80/80/80 
f 82/82/82 83/83/83 81/81/81 
f 84/84/84 83/83/83 82/82/82 
f 84/84/84 85/85/85 83/83/83 
f 86/86/86 85/85/85 84/84/84 
f 86/86/86 87/87/87 85/85/85 
f 88/88/88 87/87/87 86/86/86 
f 88/88/88 89/89/89 87/87/87 
f 90/90/90 89/89/89 88/88/88 
f 90/90/90 91/91/91 89/89/89 
f 92/92/92 91/91/91 90/90/90 
f 92/92/92 27/27/27 91/91/91 
f 25/25/25 27/27/27 92/92/92 
f 93/93/93 94/94/94 95/95/95 
f 95/95/95 94/94/94 96/96/96 
f 97/97/97 98/98/98 99/99/99 
f 98/98/98 97/97/97 100/100/100 
f 101/101/101 102/102/102 103/103/103 
f 103/103/103 102/102/102 104/104/104 
f 105/105/105 106/106/106 107/107/107 
f 106/106/106 105/105/105 108/108/108 
f 109/109/109 110/110/110 111/111/111 
f 110/110/110 109/109/109 112/112/112 
f 112/112/112 113/113/113 110/110/110 
f 113/113/113 112/112/112 114/114/114 
f 114/114/114 115/115/115 113/113/113 
f 115/115/115 114/114/114 116/116/116 
f 116/116/116 117/117/117 115/115/115 
f 117/117/117 116/116/116 118/118/118 
f 118/118/118 119/119/119 117/117/117 
f 119/119/119 118/118/118 120/120/120 
f 120/120/120 121/121/121 119/119/119 
f 119/119/119 121/121/121 122/122/122 
f 121/121/121 123/123/123 122/122/122 
f 123/123/123 121/121/121 124/124/124 
f 125/125/125 123/123/123 124/124/124 
f 123/123/123 125/125/125 126/126/126 
f 125/125/125 127/127/127 126/126/126 
f 127/127/127 125/125/125 128/128/128 
f 129/129/129 127/127/127 128/128/128 
f 129/129/129 130/130/130 127/127/127 
f 129/129/129 131/131/131 130/130/130 
f 131/131/131 129/129/129 132/132/132 
f 132/132/132 133/133/133 131/131/131 
f 133/133/133 132/132/132 134/134/134 
f 135/135/135 133/133/133 134/134/134 
f 135/135/135 136/136/136 133/133/133 
f 137/137/137 136/136/136 135/135/135 
f 137/137/137 138/138/138 136/136/136 
f 139/139/139 138/138/138 137/137/137 
f 139/139/139 140/140/140 138/138/138 
f 141/141/141 140/140/140 139/139/139 
f 141/141/141 142/142/142 140/140/140 
f 143/143/143 142/142/142 141/141/141 
f 143/143/143 144/144/144 142/142/142 
f 145/145/145 144/144/144 143/143/143 
f 145/145/145 146/146/146 144/144/144 
f 147/147/147 146/146/146 145/145/145 
f 147/147/147 148/148/148 146/146/146 
f 149/149/149 148/148/148 147/147/147 
f 149/149/149 150/150/150 148/148/148 
f 151/151/151 150/150/150 149/149/149 
f 151/151/151 152/152/152 150/150/150 
f 153/153/153 152/152/152 151/151/151 
f 153/153/153 154/154/154 152/152/152 
f 155/155/155 154/154/154 153/153/153 
f 155/155/155 156/156/156 154/154/154 
f 157/157/157 156/156/156 155/155/155 
f 157/157/157 158/158/158 156/156/156 
f 159/159/159 158/158/158 157/157/157 
f 159/159/159 160/160/160 158/158/158 
f 161/161/161 160/160/160 159/159/159 
f 161/161/161 162/162/162 160/160/160 
f 163/163/163 162/162/162 161/161/161 
f 163/163/163 164/164/164 162/162/162 
f 165/165/165 164/164/164 163/163/163 
f 165/165/165 166/166/166 164/164/164 
f 167/167/167 166/166/166 165/165/165 
f 167/167/167 168/168/168 166/166/166 
f 169/169/169 168/168/168 167/167/167 
f 169/169/169 170/170/170 168/168/168 
f 64/64/64 170/170/170 169/169/169 
f 64/64/64 63/63/63 170/170/170 
f 171/171/171 172/172/172 173/173/173 
f 172/172/172 171/171/171 174/174/174 
f 175/175/175 176/176/176 177/177/177 
f 176/176/176 175/175/175 178/178/178 
f 179/179/179 180/180/180 181/181/181 
f 180/180/180 179/179/179 182/182/182 
f 183/183/183 184/184/184 185/185/185 
f 185/185/185 186/186/186 183/183/183 
f 187/187/187 188/188/188 189/189/189 
f 188/188/188 187/187/187 190/190/190 
f 191/191/191 192/192/192 193/193/193 
f 192/192/192 191/191/191 194/194/194 
f 195/195/195 196/196/196 197/197/197 
f 196/196/196 195/195/195 198/198/198 
f 199/199/199 200/200/200 201/201/201 
f 200/200/200 199/199/199 202/202/202 
f 203/203/203 204/204/204 205/205/205 
f 205/205/205 206/206/206 203/203/203 
f 207/207/207 208/208/208 209/209/209 
f 210/210/210 208/208/208 207/207/207 
f 211/211/211 212/212/212 213/213/213 
f 213/213/213 214/214/214 211/211/211 
f 215/215/215 216/216/216 217/217/217 
f 218/218/218 216/216/216 215/215/215 
f 219/219/219 220/220/220 221/221/221 
f 220/220/220 219/219/219 222/222/222 
f 223/223/223 224/224/224 225/225/225 
f 224/224/224 223/223/223 226/226/226 
f 227/227/227 228/228/228 229/229/229 
f 229/229/229 230/230/230 227/227/227 
f 231/231/231 232/232/232 233/233/233 
f 234/234/234 233/233/233 232/232/232 
f 235/235/235 236/236/236 237/237/237 
f 235/235/235 237/237/237 238/238/238 
f 239/239/239 240/240/240 241/241/241 
f 242/242/242 241/241/241 240/240/240 
f 243/243/243 244/244/244 245/245/245 
f 244/244/244 243/243/243 246/246/246 
f 247/247/247 248/248/248 249/249/249 
f 249/249/249 250/250/250 247/247/247 
f 251/251/251 252/252/252 253/253/253 
f 254/254/254 253/253/253 252/252/252 
f 255/255/255 256/256/256 257/257/257 
f 256/256/256 255/255/255 258/258/258 
f 259/259/259 260/260/260 261/261/261 
f 259/259/259 261/261/261 262/262/262 
f 263/263/263 261/261/261 264/264/264 
f 265/265/265 263/263/263 264/264/264 
f 266/266/266 265/265/265 267/267/267 
f 268/268/268 269/269/269 270/270/270 
f 271/271/271 269/269/269 268/268/268 
f 268/268/268 272/272/272 271/271/271 
f 273/273/273 271/271/271 272/272/272 
f 272/272/272 274/274/274 273/273/273 
f 275/275/275 273/273/273 274/274/274 
f 274/274/274 276/276/276 275/275/275 
f 277/277/277 275/275/275 276/276/276 
f 276/276/276 278/278/278 277/277/277 
f 279/279/279 277/277/277 278/278/278 
f 278/278/278 280/280/280 279/279/279 
f 280/280/280 281/281/281 279/279/279 
f 281/281/281 280/280/280 282/282/282 
f 282/282/282 283/283/283 281/281/281 
f 283/283/283 282/282/282 284/284/284 
f 285/285/285 283/283/283 284/284/284 
f 286/286/286 287/287/287 288/288/288 
f 289/289/289 290/290/290 270/270/270 
f 290/290/290 289/289/289 291/291/291 
f 292/292/292 291/291/291 289/289/289 
f 291/291/291 292/292/292 293/293/293 
f 294/294/294 293/293/293 292/292/292 
f 293/293/293 294/294/294 295/295/295 
f 296/296/296 295/295/295 294/294/294 
f 297/297/297 298/298/298 296/296/296 
f 298/298/298 297/297/297 299/299/299 
f 300/300/300 299/299/299 297/297/297 
f 299/299/299 300/300/300 301/301/301 
f 302/302/302 301/301/301 300/300/300 
f 301/301/301 302/302/302 303/303/303 
f 304/304/304 303/303/303 302/302/302 
f 305/305/305 306/306/306 307/307/307 
f 308/308/308 309/309/309 310/310/310 
f 311/311/311 310/310/310 309/309/309 
f 309/309/309 312/312/312 311/311/311 
f 313/313/313 311/311/311 312/312/312 
f 312/312/312 314/314/314 313/313/313 
f 315/315/315 313/313/313 314/314/314 
f 314/314/314 316/316/316 315/315/315 
f 317/317/317 315/315/315 316/316/316 
f 318/318/318 319/319/319 317/317/317 
f 320/320/320 321/321/321 322/322/322 
f 323/323/323 324/324/324 325/325/325 
f 326/326/326 325/325/325 324/324/324 
f 327/327/327 328/328/328 329/329/329 
f 330/330/330 329/329/329 328/328/328 
f 329/329/329 330/330/330 331/331/331 
f 332/332/332 331/331/331 330/330/330 
f 333/333/333 334/334/334 335/335/335 
f 336/336/336 335/335/335 334/334/334 
f 337/337/337 338/338/338 339/339/339 
f 340/340/340 339/339/339 338/338/338 
f 341/341/341 342/342/342 343/343/343 
f 344/344/344 343/343/343 342/342/342 
f 343/343/343 344/344/344 345/345/345 
f 346/346/346 347/347/347 348/348/348 
f 349/349/349 348/348/348 350/350/350 
f 351/351/351 348/348/348 349/349/349 
f 346/346/346 348/348/348 351/351/351 
f 347/347/347 352/352/352 353/353/353 
f 347/347/347 354/354/354 352/352/352 
f 354/354/354 355/355/355 356/356/356 
f 347/347/347 355/355/355 354/354/354 
f 348/348/348 347/347/347 357/357/357 
f 357/357/357 358/358/358 348/348/348 
f 358/358/358 359/359/359 360/360/360 
f 359/359/359 358/358/358 357/357/357 
f 359/359/359 357/357/357 361/361/361 
f 355/355/355 347/347/347 362/362/362 
f 355/355/355 362/362/362 363/363/363 
f 363/363/363 362/362/362 364/364/364 
f 365/365/365 357/357/357 347/347/347 
f 365/365/365 366/366/366 367/367/367 
f 365/365/365 368/368/368 366/366/366 
f 368/368/368 369/369/369 370/370/370 
f 368/368/368 371/371/371 369/369/369 
f 365/365/365 371/371/371 368/368/368 
f 371/371/371 365/365/365 347/347/347 
f 357/357/357 365/365/365 372/372/372 
f 372/372/372 373/373/373 357/357/357 
f 373/373/373 372/372/372 374/374/374 
f 375/375/375 372/372/372 365/365/365 
f 375/375/375 365/365/365 376/376/376 
f 377/377/377 372/372/372 375/375/375 
f 372/372/372 377/377/377 378/378/378 
f 379/379/379 378/378/378 377/377/377 
f 378/378/378 379/379/379 380/380/380 
f 347/347/347 346/346/346 381/381/381 
f 347/347/347 381/381/381 362/362/362 
f 381/381/381 346/346/346 382/382/382 
f 382/382/382 346/346/346 383/383/383 
f 383/383/383 346/346/346 384/384/384 
f 383/383/383 384/384/384 385/385/385 
f 381/381/381 382/382/382 386/386/386 
f 386/386/386 382/382/382 387/387/387 
f 388/388/388 362/362/362 381/381/381 
f 362/362/362 389/389/389 390/390/390 
f 362/362/362 391/391/391 389/389/389 
f 391/391/391 362/362/362 388/388/388 
f 389/389/389 392/392/392 393/393/393 
f 389/389/389 391/391/391 392/392/392 
f 392/392/392 391/391/391 394/394/394 
f 392/392/392 394/394/394 395/395/395 
f 391/391/391 396/396/396 397/397/397 
f 396/396/396 391/391/391 398/398/398 
f 391/391/391 388/388/388 398/398/398 
f 398/398/398 399/399/399 400/400/400 
f 399/399/399 398/398/398 388/388/388 
f 399/399/399 388/388/388 401/401/401 
f 388/388/388 402/402/402 403/403/403 
f 388/388/388 404/404/404 402/402/402 
f 404/404/404 405/405/405 406/406/406 
f 405/405/405 404/404/404 407/407/407 
f 407/407/407 404/404/404 388/388/388 
f 407/407/407 388/388/388 381/381/381 
f 407/407/407 381/381/381 408/408/408 
f 407/407/407 408/408/408 409/409/409 
f 410/410/410 411/411/411 412/412/412 
f 411/411/411 410/410/410 413/413/413 
f 412/412/412 414/414/414 410/410/410 
f 415/415/415 411/411/411 413/413/413 
f 414/414/414 412/412/412 416/416/416 
f 411/411/411 415/415/415 417/417/417 
f 416/416/416 418/418/418 414/414/414 
f 415/415/415 419/419/419 417/417/417 
f 418/418/418 416/416/416 420/420/420 
f 419/419/419 415/415/415 421/421/421 
f 420/420/420 422/422/422 418/418/418 
f 423/423/423 419/419/419 421/421/421 
f 422/422/422 420/420/420 424/424/424 
f 419/419/419 423/423/423 425/425/425 
f 426/426/426 422/422/422 424/424/424 
f 423/423/423 427/427/427 425/425/425 
f 422/422/422 426/426/426 428/428/428 
f 429/429/429 427/427/427 423/423/423 
f 430/430/430 428/428/428 426/426/426 
f 429/429/429 431/431/431 427/427/427 
f 428/428/428 430/430/430 432/432/432 
f 433/433/433 431/431/431 429/429/429 
f 434/434/434 432/432/432 430/430/430 
f 433/433/433 435/435/435 431/431/431 
f 432/432/432 434/434/434 436/436/436 
f 437/437/437 435/435/435 433/433/433 
f 434/434/434 438/438/438 436/436/436 
f 439/439/439 435/435/435 437/437/437 
f 440/440/440 438/438/438 434/434/434 
f 435/435/435 439/439/439 441/441/441 
f 442/442/442 438/438/438 440/440/440 
f 443/443/443 441/441/441 439/439/439 
f 438/438/438 442/442/442 444/444/444 
f 445/445/445 443/443/443 439/439/439 
f 446/446/446 444/444/444 442/442/442 
f 443/443/443 445/445/445 447/447/447 
f 444/444/444 446/446/446 448/448/448 
f 449/449/449 447/447/447 445/445/445 
f 448/448/448 446/446/446 450/450/450 
f 451/451/451 447/447/447 449/449/449 
f 452/452/452 450/450/450 446/446/446 
f 447/447/447 451/451/451 453/453/453 
f 454/454/454 450/450/450 452/452/452 
f 453/453/453 451/451/451 455/455/455 
f 450/450/450 454/454/454 456/456/456 
f 457/457/457 455/455/455 451/451/451 
f 456/456/456 454/454/454 458/458/458 
f 455/455/455 457/457/457 459/459/459 
f 460/460/460 458/458/458 454/454/454 
f 461/461/461 459/459/459 457/457/457 
f 458/458/458 460/460/460 462/462/462 
f 463/463/463 459/459/459 461/461/461 
f 460/460/460 464/464/464 462/462/462 
f 459/459/459 463/463/463 465/465/465 
f 466/466/466 462/462/462 464/464/464 
f 465/465/465 463/463/463 467/467/467 
f 462/462/462 466/466/466 468/468/468 
f 467/467/467 463/463/463 469/469/469 
f 470/470/470 468/468/468 466/466/466 
f 471/471/471 467/467/467 469/469/469 
f 468/468/468 470/470/470 472/472/472 
f 467/467/467 471/471/471 473/473/473 
f 472/472/472 470/470/470 474/474/474 
f 471/471/471 475/475/475 473/473/473 
f 474/474/474 470/470/470 476/476/476 
f 475/475/475 471/471/471 477/477/477 
f 478/478/478 474/474/474 476/476/476 
f 479/479/479 475/475/475 477/477/477 
f 474/474/474 478/478/478 480/480/480 
f 475/475/475 479/479/479 481/481/481 
f 480/480/480 478/478/478 482/482/482 
f 479/479/479 483/483/483 481/481/481 
f 482/482/482 478/478/478 484/484/484 
f 483/483/483 479/479/479 485/485/485 
f 484/484/484 486/486/486 482/482/482 
f 485/485/485 487/487/487 483/483/483 
f 486/486/486 484/484/484 488/488/488 
f 487/487/487 485/485/485 489/489/489 
f 490/490/490 486/486/486 488/488/488 
f 491/491/491 487/487/487 489/489/489 
f 486/486/486 490/490/490 492/492/492 
f 487/487/487 491/491/491 493/493/493 
f 494/494/494 492/492/492 490/490/490 
f 491/491/491 495/495/495 493/493/493 
f 492/492/492 494/494/494 496/496/496 
f 495/495/495 491/491/491 497/497/497 
f 494/494/494 498/498/498 496/496/496 
f 497/497/497 499/499/499 495/495/495 
f 498/498/498 494/494/494 500/500/500 
f 499/499/499 497/497/497 501/501/501 
f 500/500/500 502/502/502 498/498/498 
f 503/503/503 499/499/499 501/501/501 
f 502/502/502 500/500/500 504/504/504 
f 499/499/499 503/503/503 505/505/505 
f 506/506/506 502/502/502 504/504/504 
f 503/503/503 507/507/507 505/505/505 
f 502/502/502 506/506/506 508/508/508 
f 507/507/507 503/503/503 509/509/509 
f 510/510/510 508/508/508 506/506/506 
f 509/509/509 511/511/511 507/507/507 
f 508/508/508 510/510/510 512/512/512 
f 513/513/513 511/511/511 509/509/509 
f 514/514/514 512/512/512 510/510/510 
f 513/513/513 515/515/515 511/511/511 
f 512/512/512 514/514/514 516/516/516 
f 517/517/517 515/515/515 513/513/513 
f 518/518/518 516/516/516 514/514/514 
f 519/519/519 515/515/515 517/517/517 
f 516/516/516 518/518/518 520/520/520 
f 515/515/515 519/519/519 521/521/521 
f 518/518/518 522/522/522 520/520/520 
f 523/523/523 521/521/521 519/519/519 
f 524/524/524 522/522/522 518/518/518 
f 525/525/525 523/523/523 519/519/519 
f 526/526/526 522/522/522 524/524/524 
f 527/527/527 523/523/523 525/525/525 
f 522/522/522 526/526/526 528/528/528 
f 523/523/523 527/527/527 529/529/529 
f 530/530/530 528/528/528 526/526/526 
f 529/529/529 527/527/527 531/531/531 
f 528/528/528 530/530/530 532/532/532 
f 533/533/533 531/531/531 527/527/527 
f 534/534/534 532/532/532 530/530/530 
f 535/535/535 531/531/531 533/533/533 
f 532/532/532 534/534/534 536/536/536 
f 531/531/531 535/535/535 537/537/537 
f 537/537/537 536/536/536 534/534/534 
f 536/536/536 537/537/537 535/535/535 
f 538/538/538 539/539/539 540/540/540 
f 541/541/541 540/540/540 539/539/539 
f 542/542/542 543/543/543 544/544/544 
f 542/542/542 544/544/544 545/545/545 
f 546/546/546 547/547/547 548/548/548 
f 547/547/547 546/546/546 549/549/549 
f 550/550/550 551/551/551 552/552/552 
f 550/550/550 552/552/552 553/553/553 
f 554/554/554 555/555/555 556/556/556 
f 554/554/554 556/556/556 557/557/557 
f 558/558/558 559/559/559 560/560/560 
f 559/559/559 558/558/558 561/561/561 
f 562/562/562 563/563/563 564/564/564 
f 563/563/563 562/562/562 565/565/565 
f 566/566/566 567/567/567 568/568/568 
f 569/569/569 570/570/570 571/571/571 
f 572/572/572 571/571/571 570/570/570 
f 572/572/572 570/570/570 573/573/573 
f 574/574/574 572/572/572 573/573/573 
f 575/575/575 576/576/576 569/569/569 
f 576/576/576 575/575/575 577/577/577 
f 578/578/578 577/577/577 575/575/575 
f 577/577/577 578/578/578 579/579/579 
f 580/580/580 581/581/581 582/582/582 
f 583/583/583 580/580/580 582/582/582 
f 582/582/582 584/584/584 583/583/583 
f 585/585/585 586/586/586 587/587/587 
f 587/587/587 588/588/588 585/585/585 
f 589/589/589 587/587/587 586/586/586 
f 586/586/586 590/590/590 589/589/589 
f 591/591/591 589/589/589 590/590/590 
f 590/590/590 592/592/592 591/591/591 
f 593/593/593 591/591/591 592/592/592 
f 592/592/592 594/594/594 593/593/593 
f 595/595/595 593/593/593 594/594/594 
f 593/593/593 595/595/595 596/596/596 
f 597/597/597 596/596/596 595/595/595 
f 596/596/596 597/597/597 598/598/598 
f 599/599/599 600/600/600 601/601/601 
f 600/600/600 599/599/599 602/602/602 
f 603/603/603 602/602/602 599/599/599 
f 602/602/602 603/603/603 604/604/604 
f 605/605/605 606/606/606 607/607/607 
f 606/606/606 605/605/605 608/608/608 
f 609/609/609 607/607/607 606/606/606 
f 607/607/607 609/609/609 610/610/610 
f 611/611/611 610/610/610 609/609/609 
f 612/612/612 613/613/613 611/611/611 
f 612/612/612 614/614/614 613/613/613 
f 615/615/615 614/614/614 612/612/612 
f 612/612/612 616/616/616 615/615/615 
f 617/617/617 615/615/615 616/616/616 
f 616/616/616 618/618/618 617/617/617 
f 619/619/619 617/617/617 618/618/618 
f 618/618/618 620/620/620 619/619/619 
f 621/621/621 622/622/622 623/623/623 
f 624/624/624 625/625/625 626/626/626 
f 627/627/627 626/626/626 625/625/625 
f 625/625/625 624/624/624 628/628/628 
f 629/629/629 630/630/630 631/631/631 
f 632/632/632 631/631/631 630/630/630 
f 631/631/631 632/632/632 633/633/633 
f 634/634/634 633/633/633 632/632/632 
f 633/633/633 634/634/634 635/635/635 
f 636/636/636 635/635/635 634/634/634 
f 635/635/635 636/636/636 637/637/637 
f 636/636/636 638/638/638 637/637/637 
f 638/638/638 636/636/636 639/639/639 
f 640/640/640 641/641/641 642/642/642 
f 641/641/641 640/640/640 643/643/643 
f 642/642/642 644/644/644 645/645/645 
f 646/646/646 645/645/645 644/644/644 
f 644/644/644 647/647/647 646/646/646 
f 648/648/648 649/649/649 650/650/650 
f 651/651/651 652/652/652 653/653/653 
f 653/653/653 654/654/654 655/655/655 
f 653/653/653 656/656/656 654/654/654 
f 653/653/653 657/657/657 656/656/656 
f 652/652/652 657/657/657 653/653/653 
f 651/651/651 653/653/653 658/658/658 
f 659/659/659 658/658/658 660/660/660 
f 658/658/658 659/659/659 651/651/651 
f 651/651/651 659/659/659 661/661/661 
f 662/662/662 652/652/652 663/663/663 
f 664/664/664 652/652/652 662/662/662 
f 665/665/665 664/664/664 666/666/666 
f 665/665/665 652/652/652 664/664/664 
f 665/665/665 667/667/667 652/652/652 
f 667/667/667 665/665/665 668/668/668 
f 667/667/667 668/668/668 669/669/669 
f 652/652/652 651/651/651 670/670/670 
f 671/671/671 670/670/670 672/672/672 
f 673/673/673 670/670/670 671/671/671 
f 674/674/674 673/673/673 675/675/675 
f 676/676/676 673/673/673 674/674/674 
f 673/673/673 676/676/676 670/670/670 
f 652/652/652 670/670/670 676/676/676 
f 677/677/677 670/670/670 651/651/651 
f 677/677/677 651/651/651 678/678/678 
f 677/677/677 678/678/678 679/679/679 
f 670/670/670 677/677/677 680/680/680 
f 670/670/670 680/680/680 681/681/681 
f 677/677/677 682/682/682 680/680/680 
f 682/682/682 677/677/677 683/683/683 
f 682/682/682 683/683/683 684/684/684 
f 684/684/684 683/683/683 685/685/685 
f 657/657/657 652/652/652 686/686/686 
f 686/686/686 652/652/652 667/667/667 
f 657/657/657 686/686/686 687/687/687 
f 688/688/688 657/657/657 687/687/687 
f 657/657/657 688/688/688 689/689/689 
f 689/689/689 688/688/688 690/690/690 
f 691/691/691 687/687/687 686/686/686 
f 687/687/687 691/691/691 692/692/692 
f 693/693/693 686/686/686 667/667/667 
f 694/694/694 667/667/667 695/695/695 
f 696/696/696 667/667/667 694/694/694 
f 667/667/667 696/696/696 693/693/693 
f 697/697/697 694/694/694 698/698/698 
f 697/697/697 696/696/696 694/694/694 
f 696/696/696 697/697/697 699/699/699 
f 699/699/699 697/697/697 700/700/700 
f 701/701/701 696/696/696 702/702/702 
f 703/703/703 696/696/696 701/701/701 
f 696/696/696 703/703/703 693/693/693 
f 704/704/704 703/703/703 705/705/705 
f 703/703/703 704/704/704 693/693/693 
f 693/693/693 704/704/704 706/706/706 
f 707/707/707 693/693/693 708/708/708 
f 709/709/709 693/693/693 707/707/707 
f 710/710/710 709/709/709 711/711/711 
f 712/712/712 709/709/709 710/710/710 
f 712/712/712 693/693/693 709/709/709 
f 686/686/686 693/693/693 712/712/712 
f 686/686/686 712/712/712 713/713/713 
f 713/713/713 712/712/712 714/714/714 
f 715/715/715 716/716/716 717/717/717 
f 718/718/718 717/717/717 716/716/716 
f 716/716/716 715/715/715 719/719/719 
f 717/717/717 718/718/718 720/720/720 
f 719/719/719 715/715/715 721/721/721 
f 722/722/722 720/720/720 718/718/718 
f 723/723/723 721/721/721 715/715/715 
f 720/720/720 722/722/722 724/724/724 
f 725/725/725 721/721/721 723/723/723 
f 726/726/726 724/724/724 722/722/722 
f 721/721/721 725/725/725 727/727/727 
f 724/724/724 726/726/726 728/728/728 
f 727/727/727 725/725/725 729/729/729 
f 728/728/728 726/726/726 730/730/730 
f 725/725/725 731/731/731 729/729/729 
f 730/730/730 726/726/726 732/732/732 
f 733/733/733 729/729/729 731/731/731 
f 730/730/730 732/732/732 734/734/734 
f 729/729/729 733/733/733 735/735/735 
f 734/734/734 732/732/732 736/736/736 
f 737/737/737 735/735/735 733/733/733 
f 736/736/736 738/738/738 734/734/734 
f 735/735/735 737/737/737 739/739/739 
f 738/738/738 736/736/736 740/740/740 
f 741/741/741 739/739/739 737/737/737 
f 742/742/742 738/738/738 740/740/740 
f 739/739/739 741/741/741 743/743/743 
f 738/738/738 742/742/742 744/744/744 
f 741/741/741 745/745/745 743/743/743 
f 742/742/742 746/746/746 744/744/744 
f 745/745/745 741/741/741 747/747/747 
f 746/746/746 742/742/742 748/748/748 
f 749/749/749 745/745/745 747/747/747 
f 748/748/748 750/750/750 746/746/746 
f 745/745/745 749/749/749 751/751/751 
f 750/750/750 748/748/748 752/752/752 
f 753/753/753 751/751/751 749/749/749 
f 754/754/754 750/750/750 752/752/752 
f 751/751/751 753/753/753 755/755/755 
f 750/750/750 754/754/754 756/756/756 
f 753/753/753 757/757/757 755/755/755 
f 754/754/754 758/758/758 756/756/756 
f 757/757/757 753/753/753 759/759/759 
f 758/758/758 754/754/754 760/760/760 
f 761/761/761 757/757/757 759/759/759 
f 762/762/762 758/758/758 760/760/760 
f 757/757/757 761/761/761 763/763/763 
f 758/758/758 762/762/762 764/764/764 
f 765/765/765 763/763/763 761/761/761 
f 766/766/766 764/764/764 762/762/762 
f 763/763/763 765/765/765 767/767/767 
f 764/764/764 766/766/766 768/768/768 
f 765/765/765 769/769/769 767/767/767 
f 766/766/766 770/770/770 768/768/768 
f 769/769/769 765/765/765 771/771/771 
f 770/770/770 766/766/766 772/772/772 
f 773/773/773 769/769/769 771/771/771 
f 772/772/772 774/774/774 770/770/770 
f 769/769/769 773/773/773 775/775/775 
f 776/776/776 774/774/774 772/772/772 
f 773/773/773 777/777/777 775/775/775 
f 778/778/778 774/774/774 776/776/776 
f 777/777/777 773/773/773 779/779/779 
f 774/774/774 778/778/778 780/780/780 
f 781/781/781 777/777/777 779/779/779 
f 778/778/778 782/782/782 780/780/780 
f 777/777/777 781/781/781 783/783/783 
f 784/784/784 782/782/782 778/778/778 
f 781/781/781 785/785/785 783/783/783 
f 786/786/786 782/782/782 784/784/784 
f 787/787/787 785/785/785 781/781/781 
f 782/782/782 786/786/786 788/788/788 
f 789/789/789 785/785/785 787/787/787 
f 790/790/790 788/788/788 786/786/786 
f 785/785/785 789/789/789 791/791/791 
f 788/788/788 790/790/790 792/792/792 
f 793/793/793 791/791/791 789/789/789 
f 794/794/794 792/792/792 790/790/790 
f 791/791/791 793/793/793 795/795/795 
f 796/796/796 794/794/794 790/790/790 
f 795/795/795 793/793/793 797/797/797 
f 794/794/794 796/796/796 798/798/798 
f 799/799/799 797/797/797 793/793/793 
f 800/800/800 798/798/798 796/796/796 
f 801/801/801 797/797/797 799/799/799 
f 802/802/802 798/798/798 800/800/800 
f 797/797/797 801/801/801 803/803/803 
f 798/798/798 802/802/802 804/804/804 
f 805/805/805 803/803/803 801/801/801 
f 806/806/806 804/804/804 802/802/802 
f 803/803/803 805/805/805 807/807/807 
f 804/804/804 806/806/806 808/808/808 
f 807/807/807 805/805/805 809/809/809 
f 808/808/808 806/806/806 810/810/810 
f 805/805/805 811/811/811 809/809/809 
f 810/810/810 806/806/806 812/812/812 
f 813/813/813 809/809/809 811/811/811 
f 810/810/810 812/812/812 814/814/814 
f 809/809/809 813/813/813 815/815/815 
f 814/814/814 812/812/812 816/816/816 
f 817/817/817 815/815/815 813/813/813 
f 814/814/814 816/816/816 818/818/818 
f 815/815/815 817/817/817 819/819/819 
f 818/818/818 816/816/816 820/820/820 
f 821/821/821 819/819/819 817/817/817 
f 818/818/818 820/820/820 822/822/822 
f 819/819/819 821/821/821 823/823/823 
f 822/822/822 820/820/820 824/824/824 
f 823/823/823 821/821/821 825/825/825 
f 826/826/826 822/822/822 824/824/824 
f 825/825/825 821/821/821 827/827/827 
f 822/822/822 826/826/826 828/828/828 
f 829/829/829 825/825/825 827/827/827 
f 826/826/826 830/830/830 828/828/828 
f 825/825/825 829/829/829 831/831/831 
f 830/830/830 826/826/826 832/832/832 
f 829/829/829 833/833/833 831/831/831 
f 832/832/832 834/834/834 830/830/830 
f 833/833/833 829/829/829 835/835/835 
f 834/834/834 832/832/832 836/836/836 
f 837/837/837 833/833/833 835/835/835 
f 836/836/836 838/838/838 834/834/834 
f 833/833/833 837/837/837 839/839/839 
f 838/838/838 836/836/836 840/840/840 
f 837/837/837 841/841/841 839/839/839 
f 840/840/840 842/842/842 838/838/838 
f 841/841/841 837/837/837 842/842/842 
f 842/842/842 840/840/840 841/841/841 
f 843/843/843 844/844/844 845/845/845 
f 844/844/844 843/843/843 846/846/846 
f 847/847/847 848/848/848 849/849/849 
f 848/848/848 847/847/847 850/850/850 
f 851/851/851 852/852/852 853/853/853 
f 852/852/852 851/851/851 854/854/854 
f 855/855/855 856/856/856 857/857/857 
f 856/856/856 855/855/855 858/858/858 
f 859/859/859 860/860/860 861/861/861 
f 860/860/860 859/859/859 862/862/862 
f 863/863/863 864/864/864 865/865/865 
f 863/863/863 865/865/865 866/866/866 
f 867/867/867 868/868/868 869/869/869 
f 867/867/867 869/869/869 870/870/870 
f 871/871/871 872/872/872 873/873/873 
f 871/871/871 873/873/873 874/874/874 
f 875/875/875 876/876/876 877/877/877 
f 875/875/875 877/877/877 878/878/878 
f 879/879/879 880/880/880 881/881/881 
f 879/879/879 881/881/881 882/882/882 
f 883/883/883 884/884/884 885/885/885 
f 883/883/883 885/885/885 886/886/886 
f 887/887/887 888/888/888 889/889/889 
f 888/888/888 890/890/890 889/889/889 
f 890/890/890 888/888/888 891/891/891 
f 892/892/892 891/891/891 888/888/888 
f 892/892/892 888/888/888 887/887/887 
f 893/893/893 892/892/892 887/887/887 
f 892/892/892 893/893/893 894/894/894 
f 894/894/894 893/893/893 895/895/895 
f 893/893/893 887/887/887 896/896/896 
f 887/887/887 889/889/889 896/896/896 
f 897/897/897 889/889/889 890/890/890 
f 889/889/889 897/897/897 896/896/896 
f 898/898/898 897/897/897 890/890/890 
f 897/897/897 898/898/898 899/899/899 
f 900/900/900 897/897/897 895/895/895 
f 897/897/897 900/900/900 896/896/896 
f 901/901/901 902/902/902 903/903/903 
f 903/903/903 902/902/902 904/904/904 
f 901/901/901 905/905/905 902/902/902 
f 905/905/905 906/906/906 902/902/902 
f 905/905/905 907/907/907 906/906/906 
f 905/905/905 901/901/901 908/908/908 
f 909/909/909 908/908/908 901/901/901 
f 909/909/909 901/901/901 903/903/903 
f 910/910/910 904/904/904 902/902/902 
f 911/911/911 910/910/910 907/907/907 
f 903/903/903 904/904/904 912/912/912 
f 912/912/912 910/910/910 911/911/911 
f 910/910/910 912/912/912 904/904/904 
f 903/903/903 912/912/912 909/909/909 
f 912/912/912 913/913/913 909/909/909 
f 913/913/913 912/912/912 914/914/914 
f 915/915/915 916/916/916 917/917/917 
f 917/917/917 918/918/918 915/915/915 
f 919/919/919 920/920/920 921/921/921 
f 919/919/919 921/921/921 922/922/922 
f 923/923/923 924/924/924 925/925/925 
f 926/926/926 925/925/925 924/924/924 
f 927/927/927 928/928/928 929/929/929 
f 930/930/930 929/929/929 928/928/928 
f 931/931/931 932/932/932 933/933/933 
f 931/931/931 933/933/933 934/934/934 
f 935/935/935 936/936/936 937/937/937 
f 937/937/937 938/938/938 935/935/935 
f 939/939/939 940/940/940 941/941/941 
f 940/940/940 939/939/939 942/942/942 
f 943/943/943 944/944/944 945/945/945 
f 944/944/944 943/943/943 946/946/946 
f 947/947/947 948/948/948 949/949/949 
f 949/949/949 950/950/950 947/947/947 
f 951/951/951 952/952/952 953/953/953 
f 951/951/951 953/953/953 954/954/954 
f 955/955/955 956/956/956 957/957/957 
f 956/956/956 955/955/955 958/958/958 
f 959/959/959 960/960/960 961/961/961 
f 961/961/961 960/960/960 962/962/962 
f 963/963/963 964/964/964 965/965/965 
f 964/964/964 963/963/963 966/966/966 
f 967/967/967 968/968/968 969/969/969 
f 968/968/968 967/967/967 970/970/970 
f 971/971/971 972/972/972 973/973/973 
f 973/973/973 972/972/972 974/974/974 
f 975/975/975 976/976/976 977/977/977 
f 977/977/977 976/976/976 978/978/978 
f 979/979/979 980/980/980 981/981/981 
f 981/981/981 982/982/982 979/979/979 
f 983/983/983 984/984/984 985/985/985 
f 985/985/985 984/984/984 986/986/986 
f 987/987/987 988/988/988 989/989/989 
f 989/989/989 990/990/990 987/987/987 
f 991/991/991 992/992/992 993/993/993 
f 993/993/993 992/992/992 994/994/994 

